<mxfile host="app.diagrams.net" modified="2022-05-21T07:39:05.638Z" agent="5.0 (Windows NT 10.0; Win64; x64) AppleWebKit/537.36 (KHTML, like Gecko) Chrome/103.0.9999.0 Safari/537.36" etag="9-MK8sOXNvkzIc2PD6hV" version="18.0.7" type="github">
  <diagram id="vULv6xEHhgmsOGkGElXs" name="Page-1">
    <mxGraphModel dx="1497" dy="794" grid="1" gridSize="10" guides="1" tooltips="1" connect="1" arrows="1" fold="1" page="1" pageScale="1" pageWidth="827" pageHeight="1169" math="0" shadow="0">
      <root>
        <mxCell id="0" />
        <mxCell id="1" parent="0" />
        <mxCell id="Ew4Cx2_c2zEZE24tookL-24" value="" style="rounded=0;whiteSpace=wrap;html=1;" vertex="1" parent="1">
          <mxGeometry x="40" y="250" width="80" height="230" as="geometry" />
        </mxCell>
        <mxCell id="Ew4Cx2_c2zEZE24tookL-1" value="" style="rounded=0;whiteSpace=wrap;html=1;" vertex="1" parent="1">
          <mxGeometry x="40" y="50" width="580" height="680" as="geometry" />
        </mxCell>
        <mxCell id="Ew4Cx2_c2zEZE24tookL-4" value="" style="rounded=0;whiteSpace=wrap;html=1;" vertex="1" parent="1">
          <mxGeometry x="40" y="50" width="580" height="150" as="geometry" />
        </mxCell>
        <mxCell id="Ew4Cx2_c2zEZE24tookL-5" value="" style="rounded=0;whiteSpace=wrap;html=1;" vertex="1" parent="1">
          <mxGeometry x="40" y="250" width="580" height="230" as="geometry" />
        </mxCell>
        <mxCell id="Ew4Cx2_c2zEZE24tookL-6" value="" style="rounded=0;whiteSpace=wrap;html=1;" vertex="1" parent="1">
          <mxGeometry x="210" y="250" width="220" height="230" as="geometry" />
        </mxCell>
        <mxCell id="Ew4Cx2_c2zEZE24tookL-7" value="" style="rounded=0;whiteSpace=wrap;html=1;" vertex="1" parent="1">
          <mxGeometry x="40" y="510" width="580" height="60" as="geometry" />
        </mxCell>
        <mxCell id="Ew4Cx2_c2zEZE24tookL-8" value="" style="verticalLabelPosition=bottom;html=1;verticalAlign=top;align=center;shape=mxgraph.floorplan.doorDouble;aspect=fixed;" vertex="1" parent="1">
          <mxGeometry x="74.77000000000001" y="725" width="56.47" height="30" as="geometry" />
        </mxCell>
        <mxCell id="Ew4Cx2_c2zEZE24tookL-9" value="" style="verticalLabelPosition=bottom;html=1;verticalAlign=top;align=center;shape=mxgraph.floorplan.doorDouble;aspect=fixed;" vertex="1" parent="1">
          <mxGeometry x="260" y="725" width="56.47" height="30" as="geometry" />
        </mxCell>
        <mxCell id="Ew4Cx2_c2zEZE24tookL-10" value="" style="verticalLabelPosition=bottom;html=1;verticalAlign=top;align=center;shape=mxgraph.floorplan.doorDouble;aspect=fixed;" vertex="1" parent="1">
          <mxGeometry x="432.53" y="725" width="56.47" height="30" as="geometry" />
        </mxCell>
        <mxCell id="Ew4Cx2_c2zEZE24tookL-11" value="" style="rounded=0;whiteSpace=wrap;html=1;" vertex="1" parent="1">
          <mxGeometry x="530" y="570" width="90" height="160" as="geometry" />
        </mxCell>
        <mxCell id="Ew4Cx2_c2zEZE24tookL-12" value="" style="rounded=0;whiteSpace=wrap;html=1;" vertex="1" parent="1">
          <mxGeometry x="40" y="460" width="110" height="50" as="geometry" />
        </mxCell>
        <mxCell id="Ew4Cx2_c2zEZE24tookL-13" value="" style="verticalLabelPosition=bottom;html=1;verticalAlign=top;align=center;shape=mxgraph.floorplan.doorPocket;dx=0.5;" vertex="1" parent="1">
          <mxGeometry x="119" y="506" width="30" height="10" as="geometry" />
        </mxCell>
        <mxCell id="Ew4Cx2_c2zEZE24tookL-14" value="" style="verticalLabelPosition=bottom;html=1;verticalAlign=top;align=center;shape=mxgraph.floorplan.doorPocket;dx=0.5;" vertex="1" parent="1">
          <mxGeometry x="88" y="507" width="30" height="10" as="geometry" />
        </mxCell>
        <mxCell id="Ew4Cx2_c2zEZE24tookL-16" value="" style="verticalLabelPosition=bottom;html=1;verticalAlign=top;align=center;shape=mxgraph.floorplan.doorPocket;dx=0.5;" vertex="1" parent="1">
          <mxGeometry x="57" y="507" width="30" height="10" as="geometry" />
        </mxCell>
        <mxCell id="Ew4Cx2_c2zEZE24tookL-2" value="" style="verticalLabelPosition=bottom;html=1;verticalAlign=top;align=center;shape=mxgraph.floorplan.doorOverhead;shadow=0;" vertex="1" parent="1">
          <mxGeometry x="100" y="40" width="390" height="20" as="geometry" />
        </mxCell>
        <mxCell id="Ew4Cx2_c2zEZE24tookL-18" value="&lt;font style=&quot;font-size: 18px;&quot;&gt;餐厅&lt;/font&gt;" style="text;html=1;align=center;verticalAlign=middle;resizable=0;points=[];autosize=1;strokeColor=none;fillColor=none;rotation=90;" vertex="1" parent="1">
          <mxGeometry x="250" y="640" width="50" height="20" as="geometry" />
        </mxCell>
        <mxCell id="Ew4Cx2_c2zEZE24tookL-19" value="&lt;font style=&quot;font-size: 18px;&quot;&gt;厨房&lt;/font&gt;" style="text;html=1;align=center;verticalAlign=middle;resizable=0;points=[];autosize=1;strokeColor=none;fillColor=none;rotation=90;" vertex="1" parent="1">
          <mxGeometry x="550" y="630" width="50" height="20" as="geometry" />
        </mxCell>
        <mxCell id="Ew4Cx2_c2zEZE24tookL-20" value="&lt;font style=&quot;font-size: 15px;&quot;&gt;卫生间&lt;/font&gt;" style="text;html=1;align=center;verticalAlign=middle;resizable=0;points=[];autosize=1;strokeColor=none;fillColor=none;rotation=90;" vertex="1" parent="1">
          <mxGeometry x="80" y="475" width="60" height="20" as="geometry" />
        </mxCell>
        <mxCell id="Ew4Cx2_c2zEZE24tookL-21" value="&lt;font style=&quot;font-size: 18px;&quot;&gt;前大门&lt;/font&gt;" style="text;html=1;align=center;verticalAlign=middle;resizable=0;points=[];autosize=1;strokeColor=none;fillColor=none;fontSize=15;rotation=90;" vertex="1" parent="1">
          <mxGeometry x="253.23" y="48" width="70" height="20" as="geometry" />
        </mxCell>
        <mxCell id="Ew4Cx2_c2zEZE24tookL-22" value="&lt;font style=&quot;font-size: 18px;&quot;&gt;茶餐厅&lt;/font&gt;" style="text;html=1;align=center;verticalAlign=middle;resizable=0;points=[];autosize=1;strokeColor=none;fillColor=none;rotation=90;" vertex="1" parent="1">
          <mxGeometry x="294" y="340" width="70" height="20" as="geometry" />
        </mxCell>
        <mxCell id="Ew4Cx2_c2zEZE24tookL-23" value="" style="rounded=0;whiteSpace=wrap;html=1;" vertex="1" parent="1">
          <mxGeometry x="440" y="250" width="80" height="230" as="geometry" />
        </mxCell>
        <mxCell id="Ew4Cx2_c2zEZE24tookL-26" value="" style="verticalLabelPosition=bottom;html=1;verticalAlign=top;align=center;shape=mxgraph.floorplan.stairs;shadow=0;fontSize=15;rotation=-90;" vertex="1" parent="1">
          <mxGeometry x="469" y="476" width="20" height="40" as="geometry" />
        </mxCell>
        <mxCell id="Ew4Cx2_c2zEZE24tookL-28" value="&lt;font style=&quot;font-size: 18px;&quot;&gt;右过道&lt;/font&gt;" style="text;html=1;align=center;verticalAlign=middle;resizable=0;points=[];autosize=1;strokeColor=none;fillColor=none;rotation=90;" vertex="1" parent="1">
          <mxGeometry x="440" y="350" width="70" height="20" as="geometry" />
        </mxCell>
        <mxCell id="Ew4Cx2_c2zEZE24tookL-42" value="" style="verticalLabelPosition=bottom;html=1;verticalAlign=top;align=center;shape=mxgraph.floorplan.doorRight;aspect=fixed;shadow=0;fontSize=15;rotation=-90;" vertex="1" parent="1">
          <mxGeometry x="515.6500000000001" y="427" width="18.82" height="20" as="geometry" />
        </mxCell>
        <mxCell id="Ew4Cx2_c2zEZE24tookL-43" value="" style="verticalLabelPosition=bottom;html=1;verticalAlign=top;align=center;shape=mxgraph.floorplan.doorRight;aspect=fixed;shadow=0;fontSize=15;rotation=-90;" vertex="1" parent="1">
          <mxGeometry x="515.6500000000001" y="373" width="18.82" height="20" as="geometry" />
        </mxCell>
        <mxCell id="Ew4Cx2_c2zEZE24tookL-44" value="" style="verticalLabelPosition=bottom;html=1;verticalAlign=top;align=center;shape=mxgraph.floorplan.doorRight;aspect=fixed;shadow=0;fontSize=15;rotation=-90;" vertex="1" parent="1">
          <mxGeometry x="515.6500000000001" y="313" width="18.82" height="20" as="geometry" />
        </mxCell>
        <mxCell id="Ew4Cx2_c2zEZE24tookL-45" value="" style="verticalLabelPosition=bottom;html=1;verticalAlign=top;align=center;shape=mxgraph.floorplan.doorRight;aspect=fixed;shadow=0;fontSize=15;rotation=-90;" vertex="1" parent="1">
          <mxGeometry x="515.6500000000001" y="263" width="18.82" height="20" as="geometry" />
        </mxCell>
        <mxCell id="Ew4Cx2_c2zEZE24tookL-47" value="" style="rounded=0;whiteSpace=wrap;html=1;" vertex="1" parent="1">
          <mxGeometry x="121.5" y="250" width="78.5" height="210" as="geometry" />
        </mxCell>
        <mxCell id="Ew4Cx2_c2zEZE24tookL-29" value="&lt;font style=&quot;font-size: 18px;&quot;&gt;左过道&lt;/font&gt;" style="text;html=1;align=center;verticalAlign=middle;resizable=0;points=[];autosize=1;strokeColor=none;fillColor=none;rotation=90;" vertex="1" parent="1">
          <mxGeometry x="114" y="355" width="70" height="20" as="geometry" />
        </mxCell>
        <mxCell id="Ew4Cx2_c2zEZE24tookL-38" value="" style="verticalLabelPosition=bottom;html=1;verticalAlign=top;align=center;shape=mxgraph.floorplan.doorRight;aspect=fixed;shadow=0;fontSize=15;rotation=90;" vertex="1" parent="1">
          <mxGeometry x="105.18" y="417" width="18.82" height="20" as="geometry" />
        </mxCell>
        <mxCell id="Ew4Cx2_c2zEZE24tookL-39" value="" style="verticalLabelPosition=bottom;html=1;verticalAlign=top;align=center;shape=mxgraph.floorplan.doorRight;aspect=fixed;shadow=0;fontSize=15;rotation=90;" vertex="1" parent="1">
          <mxGeometry x="105.18" y="366" width="18.82" height="20" as="geometry" />
        </mxCell>
        <mxCell id="Ew4Cx2_c2zEZE24tookL-40" value="" style="verticalLabelPosition=bottom;html=1;verticalAlign=top;align=center;shape=mxgraph.floorplan.doorRight;aspect=fixed;shadow=0;fontSize=15;rotation=90;" vertex="1" parent="1">
          <mxGeometry x="106" y="315" width="18.82" height="20" as="geometry" />
        </mxCell>
        <mxCell id="Ew4Cx2_c2zEZE24tookL-41" value="" style="verticalLabelPosition=bottom;html=1;verticalAlign=top;align=center;shape=mxgraph.floorplan.doorRight;aspect=fixed;shadow=0;fontSize=15;rotation=90;" vertex="1" parent="1">
          <mxGeometry x="106" y="270" width="18.82" height="20" as="geometry" />
        </mxCell>
        <mxCell id="Ew4Cx2_c2zEZE24tookL-27" value="" style="verticalLabelPosition=bottom;html=1;verticalAlign=top;align=center;shape=mxgraph.floorplan.stairs;shadow=0;fontSize=15;rotation=90;" vertex="1" parent="1">
          <mxGeometry x="170" y="440" width="10" height="40" as="geometry" />
        </mxCell>
        <mxCell id="Ew4Cx2_c2zEZE24tookL-3" value="" style="rounded=0;whiteSpace=wrap;html=1;" vertex="1" parent="1">
          <mxGeometry x="550" y="50" width="70" height="100" as="geometry" />
        </mxCell>
        <mxCell id="Ew4Cx2_c2zEZE24tookL-46" value="&lt;font style=&quot;font-size: 18px;&quot;&gt;前厅吧台&lt;/font&gt;" style="text;html=1;align=center;verticalAlign=middle;resizable=0;points=[];autosize=1;strokeColor=none;fillColor=none;rotation=90;" vertex="1" parent="1">
          <mxGeometry x="530" y="90" width="90" height="20" as="geometry" />
        </mxCell>
        <mxCell id="Ew4Cx2_c2zEZE24tookL-50" value="" style="rounded=0;whiteSpace=wrap;html=1;" vertex="1" parent="1">
          <mxGeometry x="220" y="510" width="230" height="50" as="geometry" />
        </mxCell>
        <mxCell id="Ew4Cx2_c2zEZE24tookL-51" value="&lt;font style=&quot;font-size: 18px;&quot;&gt;餐厅&lt;br&gt;吧台&lt;br&gt;&lt;/font&gt;" style="text;html=1;align=center;verticalAlign=middle;resizable=0;points=[];autosize=1;strokeColor=none;fillColor=none;rotation=90;" vertex="1" parent="1">
          <mxGeometry x="330" y="515" width="50" height="40" as="geometry" />
        </mxCell>
        <mxCell id="Ew4Cx2_c2zEZE24tookL-52" value="" style="shape=image;verticalLabelPosition=bottom;labelBackgroundColor=default;verticalAlign=top;aspect=fixed;imageAspect=0;image=data:image/png,iVBORw0KGgoAAAANSUhEUgAAAMgAAADICAYAAACtWK6eAAAAAXNSR0IArs4c6QAADy5JREFUeF7tnQnwftUYx79NssxUBpORNWVpFKaxFir7VraJkhAlyRYJjaUsYyxZZmisWVukBiWmhSghRImYbEkmESFbZJuv/7nzv/1/733fe889y3PO+Z6Zd2rqnnOe5/vcz+/ec+45z9kIKlJACgwqsJG0kQJSYFgBAaK7QwosUUCA6PaQAgJE94AU8FNATxA/3VSrEQUESCOBlpt+CggQP91UqxEFBEgjgZabfgoIED/dVKsRBQRII4GWm34KCBA/3VSrEQUESCOBlpt+CggQP91UqxEFBEgjgZabfgoIED/dVKsRBQRII4GWm34KCBA/3VSrEQUESCOBlpt+CggQP91UqxEFBEgjgZabfgoIED/dVKsRBQRII4GWm34KCBA/3VSrEQUESCOBlpt+CggQP91UqxEFBEgjgZabfgoIED/dVKsRBQRII4GWm34KCBA/3VSrEQUESCOBlpt+CggQP91UqxEFBEgjgZabfgoIED/dVKsRBQRII4GWm34KCBA/3VSrEQUESCOBlpt+CggQP91UqxEFBEgjgZabfgoIED/dVKsRBQRII4GWm34KCBA/3VSrEQUESCOBlpt+CggQP91UqxEFBEgjgZabfgoIED/dVKsRBQRII4GWm34KtALIAQC2B3Ar99vS/fM/AC4H8Kve7wQAP/KTU7VqU6BmQO4FYH8A+wDYdGLgvg3gswDOAHD+xLq6vCIFagRkRwCHAnhioDidCuBDAE4O1J6aKUiB2gDhE+ODkfQ/zbX96Ujtq1mDCtQCyMYAjgWwZwKNz3SgnJigL3WRWYEaAHkAgHMz6HiWe/U6PkPf6jKRAqUDwtmoKxJpNdTNOe6JckxmO9R9BAVKB+SnALaJoItPk19zoHzMp7Lq2FSgZEA4WA41UxUyOue5V6+jQzaqtvIoUCogRwA4PI9ko3vl9xPOqPH339G1dKEpBUoE5P4A+N6/iSklh425wEHCbynXFWKzzHQKlAjIKQB2LzCCF7lXLz5Rri3Q/iZNLg2QgwAcVXikLu6B8tfCfane/JIA2dq9Wt2mkqhc0hujXFOJT9W5URIgfIffr7oIAJyq5msX/bu6Qv+KdqkUQPYAUPvSjkt7r15XFX1XVWR8CYBwqTpnrXaoSPdlrnB/Sjc9fGUjPpt1swRA3gTgMLMKxjOMS2i6Vy9u6FLJoIB1QHYGcHYGXSx1+Zveq9dllgxrwRbrgHAPxiNbCMQIH3/fe/X6+YjrdUkABSwDcjCAdwbwsbYm/th79fpxbc5Z88cqINu6gfkW1gQzZM+fe69eSjIRKTBWAfk4gKdH8rm2Zv/ee/X6QW3O5fbHIiB7u+2zubUprf9/9kD5XmnGW7XXGiC3cLNW21kVrAC7/t0bo3ynAHtNm2gNkLcDeKlpxcoyjstX+C3lW2WZbcdaS4A83CVqs6NOPZZ8xIHyjXpcSuOJJUC+DGDXNG432wsnP/hU+WqzCkx03AogrwDw5om263J/BY5zT5Sv+DfRRk0LgNzTffPYvA3JTXnJRN0co3zJlFWGjLEACIP0FEOatGjKSe7V6/QWnV/mc25AngXgwwqKGQWY0Z5PlC+YsSizIbkBYbK1nTJroO7XKvA5Bwr/2XTJCQiTvilTuu3bj08SPlH4ZGmy5ATkSACHNKl6eU5zbMLpYY5Vmio5AWFW9L2aUrt8ZznbxScKJ1aaKDkB0YfBcm8xfj8hKPyeUnURIFWHN7pz/CLPVy9+oa+y5ATkE+6AzSqFbcwprvHiE4VrvqoqOQF5G4CXVaWmnOGq4S4TSxVq5ARE07xV3EILneA+lG6pPfenFFtyAkLR9KGw2FtnlOHc2dglweOOx+JKbkCeDOBTxakmg6cqwL3yHSjcQ19MyQ0IhRIkxdwusw1l9pVujMKsLOaLBUAo0oNcetFHm1dMBoZQgPm8ujEK83yZLVYA6QR6DoBnA+Axayr1K8AMkd2rFzNHmivWAOkEepoD5SHmFJNBMRRgzuHu1Yu5iM0Uq4B0AnEqmE+U3cwoJkNiKsAs9nz14vbrf8TsaGzb1gHp/GACa4KinYdjI1v2dWcBeC7Wnb6VtZQCSCcSB/MEZd+sqqnzFArwxK39ARCWbKU0QDqh7gHgQAfLjbKpp45TKHC/nInvSgWkC8ztALzYgXKzFNFSH8kV4KLWZyTv1XVYOiCdbpsBONSBUssx0bnuCYv9cgx6Rg7DagGkr90rHSh3ziGo+oyiAJNHPC5KyysarRGQzmWOUfhjYjqVshW4BsBNc7hQMyCdntz3znGKvs7nuMPC9ZnlXs3SaTjNJrXE99iXA9DX+UmymbiYaYf40Th5aQmQTlxOG74KwO7J1VaHvgowA+dHfSvPqdciIJ1ed3Wg6CzEOXdQ/Lp/ArAVgCyrflsGpAvtLQG8GsAL48daPXgo8DoAR3jUC1IlNyA3BMCTpe4z4M0vAHwTQIpjjmkLX714Vom+zge5vWY3khUOWp8TkO1d4rG7j5CRoPBDEf+S/HrE9XMveYmDhYeKqgBHAWAWGv4B4Z6dFCU7HLkB4WrN93konVI4Hc8A7LPBsdxbut2fsV5JL3Gzjad43BvBq+R8gsxJPcr9AocFV2Ntg1y+8tYE/VjsgnszdgHAXX+LCkHhk5YahSqfdHBcHqrBue2UCgj9vjeA2OeAnwhgj7kiF1j/MwCeNNJugvI8N9Ex537i2M/cH6M5Do3Ub/CyOU8QNvpFN8Cfa8ey+j8BcKeYHRhsmx9TOd6YWggKX5tZ/yYTKl/gJkbOnFAn2aUlA0KRuHyEs1yxyrUNzWj9zn2tPnemmB0oLwKwagsCj9/jk4N9myylA8IgvDuistzyuU3E9q00zac5p9tDpgntQDkAAP+9X/7mwHiPFQGG7CgdkGMjZ4if+xpoPf60711usB3L1g4ULlfn6gWOb97r0s7G6jNYu6UDwoNcHhxMjbUNcU8009HUWJjZkP6NTf16R5eNn5kw/wCA2n8gwURJVu0FyHL5eVMMTXNmDdzMznmex54Axk6n7gfgtQBuv6BfQlItKAJk9Z32jsCvIOe4o69vsLrrKFfwZuZs05hyFwCHA9h7xMVVglI6ICPitvISvmowTT9vmh8uuPq2AM4GsPXKlsZdwH0pVwHgV3r+Nh1XbfZVPH6ABxaNndTgbkw+NTYcYK8ypCpQBMj6cF8M4DEAfrngDtgVAAfsc8sLsG5dU1e27YGyxdzGl9T/LoCDRk6Jc40cweBYY06pAhQBcv1b4P1uH/uiG2OnmTMv/Co/lBnyDi7RBJ8oTGUUsvCAzWeObJDT5oQj5CLNokERIGvvnCcAOHnghuIThrNatx55w/EyDoS5hGLMnD/3pnBATFBCZGXhOqkjR9i6gwODvscqDwPAc9aLKgJkbbj4ZX5nAENHhnXz+tyJuGxcwlc2/vXm78qJdwXzfHWgMIvk1MK+Od44bUTFQxwcm4+4ds4l3LLAbc48baqYIkAWh4r7TrisflV5hPsOw4E8fxzkc7k2p4ZPB3DdqgZW/H/OdBEU5iO+78i2TnBZXFYdI8C9+Xyd4lMxVdluYCIkVf+T+xEgw5JxrwpXqVopTL9JULgEfai8BsAbRxjMrQKE48Yjrg15Ccc2V4dsMHZbAmS5wlwWwR10lk4/4uwSQXlUz/SfAeCr0tDYqbv0gQ4MrrtKXbgB6vGpO53bnwBZrSC/OnN25/zVlya9gt9TOD65CABtZPbBZYVPDP42Tmrl+s54/uSYMVEm8xZ3K0DGh4Pv9sw0/vnxVa535d0A8C99jpOTuN5q7ncNT7f/X+2kzP172y5ApkvHRXrHuL/ai768dy1yoxX/anY//nd+tefSlZRpbCwcs/3Q3AfhTA/zuhoCxFe5dfX+4p4KPNaYsBAK/vgN4+ZLmuZ3hwvndT26NmHkeqpc5TgAPJS1yCJA8oSNyQ64DyNF4T6MVYP3mHbw2Ly5uxRj2re0bQGSR3rO5qRMa8Mv828BEHO91yIlmU+XfRdbBEj60DE5AT8wpi7cOswn1/MTdpz1fMEQfgqQECpOa4Nw5MzgwWU0BCXmuisqMmXfyTQFE14tQBKK7RYsxspIONWTpzpQhvIiT22vf/2/XL7lVBMRc2zVGCSaetMa/j6Ax07Y5jqtdb+r+dGQTxP+pqxQXtUbVy5b+UOwylYBMkuhMJU5i8Mct5eFaS54K9xrTkgODtAyU/rwqbTsG1GAbtI0oVes+Dqf6s75ZiYQ62VHB8qcr+78EMp1YVUUARIvjFe4zVVvCJyQLZ7F61tmPmI+UbiLckrhKVBcls+UrVUUARI+jASj22aa4iyT8B6sb5GnAxMUbgkeU1Jl3R9jS5BrSgeE66JyF+4W5G45HhdAOM5LdMhPKr+7Yw4IyrJURb91Tw+r4ywvvWoAJGZmRS9RK63E4yYIyVCOrNdnXvMVRXYBEkXWqhvlMhmC0t/ZeLRLY1qd4wKkupAmc2hfl4SB33dSLt9P5iA7Kh0QZglnQjQVKRBFgdIB4UpRrhhVkQJRFCgdEG5jTXGGehTx1ah9BUoGpIrVovZvkbYtLBkQbmktYflG23dY4d6XCgj3OHOvs4oUiKpATkD2AnD8RO94LjrP8Yh9PvpEs3R5rQrkBIRp/rlPejcATNY8VLiM4+vuEBuOO1SkQDIFcgLSOckTlriMYVHhup5Lk6mhjqTABgpYAERBkQJmFRAgZkMjwywoIEAsREE2mFVAgJgNjQyzoIAAsRAF2WBWAQFiNjQyzIICAsRCFGSDWQUEiNnQyDALCggQC1GQDWYVECBmQyPDLCggQCxEQTaYVUCAmA2NDLOggACxEAXZYFYBAWI2NDLMggICxEIUZINZBQSI2dDIMAsKCBALUZANZhUQIGZDI8MsKCBALERBNphVQICYDY0Ms6CAALEQBdlgVgEBYjY0MsyCAgLEQhRkg1kFBIjZ0MgwCwoIEAtRkA1mFRAgZkMjwywoIEAsREE2mFVAgJgNjQyzoIAAsRAF2WBWAQFiNjQyzIICAsRCFGSDWQUEiNnQyDALCggQC1GQDWYVECBmQyPDLCggQCxEQTaYVUCAmA2NDLOggACxEAXZYFYBAWI2NDLMggICxEIUZINZBQSI2dDIMAsKCBALUZANZhUQIGZDI8MsKCBALERBNphVQICYDY0Ms6CAALEQBdlgVgEBYjY0MsyCAv8DZQ7t2FCW2mIAAAAASUVORK5CYII=;rotation=-30;" vertex="1" parent="1">
          <mxGeometry x="52" y="20" width="40" height="40" as="geometry" />
        </mxCell>
        <mxCell id="Ew4Cx2_c2zEZE24tookL-53" value="" style="shape=image;verticalLabelPosition=bottom;labelBackgroundColor=default;verticalAlign=top;aspect=fixed;imageAspect=0;image=data:image/png,iVBORw0KGgoAAAANSUhEUgAAAMgAAADICAYAAACtWK6eAAAAAXNSR0IArs4c6QAAHcNJREFUeF7tnQv4ftlUx7+MxjSRkKI0ozCKkZkuCJNbuZUZUtJVI5eoMEOppnuhKKVMuSSNVC6RomaaMrkkijSEGEJJuUyJmKSk5/POPv/OnHnP+5611j77nPOevZ7nPO/7//3Pvq1zvu/ee+21vusKqlI1UDXQq4ErVN1UDVQN9GugAqS+HVUDOzRQAVJfj6qBCpD6DlQN+DRQZxCf3mqplWigAmQlD7oO06eBChCf3mqplWigAmQlD7oO06eBChCf3mqplWigAmQlD7oO06eBChCf3mqplWigAmQlD7oO06eBChCf3mqplWigAmQlD7oO06eBChCf3mqplWigAmQlD7oO06eBChCf3mqplWigAmT8B32UpE/pXEfv+NsVJf135/r4nr+NP4qVtlABMuzBX0nS50r6HEnXkPQZ6bralu/dvx0zrInQXf8u6UOS2p9937nvXyS9J90favjQC1eASJ+ZXnwA0ICg+/nZB/oifDQBBbC0r3/q/PtAh79/WGsByFUk3ahznZD+fex+Na3+jrdK4roofTb/fv+ha+bQAHJtSSdvAQNLoyr5NfDBLaB5k6S35G9qmhqXDBBmhS+XdPP0yffjplFjbbWjgf+SdKGk13c+L1mappYEkC4Ybrw0Zdf+6m0twACeP5PEPmi2MmeAnCTpjpLulK7ZKrF2LKSBl0s6T9IFkv4yVNMIhecEEDbNt5b0lQkQdd8wwgOfeZXvS2B5hSQujAKTypQAuWaaIQAF15dOqona+Bw18FpJfy7pXEnnT9HB0gC5jqQ7S7pL+uTArUrVwBANvFHSi9P1yiEFctxTAiDHJzA0wKjnDjme3LrreHULLGz2R5OxAMJJ9D1bswWuGlWqBsbQwEskvUjS8yXhAZBVcgPkCyWdnq5rZe1praxqYLcG/lXSMyWdk85fsugrF0A4o2iAUcI5L8vgayUHq4EGKJiOQxIFyB0SML411ItauGpgHA2wqQcsz/NW7wXI7SU9TNJp3oZXVu6TkpqYjnZsR/dvzb9RDzEk3biR9r/b34k5qdKvgVdJekpafpn05AHIT0s6y9TK8m/Gt4gN4LvTJ9+Jt8BNou/6SOv/PjayCljWNjEq2z7bMSr8Py7+nyUJN/4rj9y3OVX/dEn3t3TIApDPk/RcSbe0NLCQe3nh3956+dtA4PsHFjIOTzcBTAMWANP9jkfD9ROoPPXPrQyu+mwJOITcK0MB8mBJv7K3tnnf8I4Egr/vfAIMZogquzXw6QkogKW5viB9v94ClfcoSY/b1+8hAPkjSXfdV9FM/p81PCeuxCQ0n/jzAAL2AVXG0QB7IECDPx0uQ801d386nCR3vtv7APIESWeMo9NwrV0g8G/cqavMRwO4FrUBw/e5geaJkh7ep7JdAGGd9pvz0fVmzUj8wJ+ka0Zdq10xaADQsI/F9YhwhhsYyo51632TOfhy9fcB5GuSr8tYHRpS7xsk/UVyewYUh7xRHqKPQ70HrgDAQpgDXt2ETU8hpyaXlcu0vQ0gX5FezNKdfG+aGV6W2v+70h2o7c1CA5yx3SaBBeCUFEBKHMoR6QIE/ykivPCpKiFsnpkd8PXnc9bhlyUUUtu4jAZulpxe7yGJ72ML7yNOtuxnN9IFyEMknT1yL/6mtY/405HbqtUfjgbuJgmg8AJz0DmWYJh6RB9A2ATfboSW/1nSs9NB4+zijkcYb61yPA0ADkACWABNbuFdvamkf+vOIAADgOQUwiUBBhfuyFWqBnJq4GslPVDS3XNWKum7m4Px9hKLpRVLrKhAvPw7CRTEElepGhhbA7mBwj78tu0ZhM05p8/RIKefSODA36VK1UBpDeQECha085sZJMfmnBNSWMOrVA1MrYHvl/SzwU48Q9L9GoD8mqTvDFR470hQSqDdWrRqoE8DvM+81155s6SbNABhzXWKs6anSnqQs2wtVjUwpgbwsfoFZwN4eF+tAQhLI+8RP6eexXiKnIOtxdapAZwjB8V99KhnM4MAjMjegY39xevUfx31AjSAD5/3YPFUAMLSiiWWV/a5zHvrreWqBnJoIHL4fQYvd3QzUwGS4zHWOsbSQAQgT+Ll/nFJPxboXQVIQHm16OgaiADkXF7un5T0I4FuVoAElFeLjq6BCEBeyssdpfGpABn9GdcGAhoIA+Sxkn4g0IEKkIDyatHRNRAGCEfyHM17pQLEq7laroQGwgB5vKRHBnpaARJQXi06ugbCAPl5SWcGulkB0q888qLAsWu5CBfou/6n5/8Cj+/gi4YBgq9KLy/QAPUdMkDgreUUFm8BPuG4bS4oO/d9L5U46EOSLBe8wpwwc31wwDNe8i1hgECc9dCABpYGkKtKgjKTLFi8+M3VAKH9N+g2D12YlRqw4DLUfO/+7Z2S/mGByggD5JclfU9g4HMEyHEJBAChe0WDwgKqWnxR6FsByrvSZ/s7fyOee24SBgik1JBTe4VlxCe8hYPlPl/Syek6KXHDAohSS5tg9w+uOC7iAAUK2AslwWDDBZCmkjBAnhyM5yBr7X8WGP0XSwIEAKL5ZA9QZf4aYH8EUBrQ8AlzZgkJA4SApwcEespmFQXkFMJ3YXiE6e5WCRQ1i1JODU9fF6sOQEP2J9hvSO38jyN0KwyQaLgtSVfeHxzYiZJIBHqLBIovCtZXiy9TA+Rugfrzr1KgE8FO0bQVYYD8ekrE6VUpmaes+amxIEH8RTTizdNG2tt+LXe4GuCHtwHLC53pncMA+Q1J0L97hcQpZG8aIg0jHp+YW6tUDVg0QDIngPJ7hijWMEDIARJJ48xy6C07RskM0XCqliLFtii93rs8DXBeA0gAC6DZJWGA/Jakbw7oCNbtbRYJmE6+ISVJCVRfi1YN7NTA6xNQWAlhYu5KGCDQhN4n8BDYXLeZIziVJ4wXs2yVqoFSGrgk8WCdI+l1rUbDAHmOJIjfvEJWIDJBcRrPRcagtQgPBb8mLkzd7c/m7+1P/J44TIM5nNzpnCF9avokFdmNk+IgLSNXBfVzxsR1tKSrp+sakrj4dzsvepMPvZ0XfQ3uMt337QWSnpLyzoQB8jxJXx94o09PMe1LTAXcHjYvLFaT96VPvjdX8zde8DYI8LodIljr7pRSjbEniwizNcmGyK0CH9m+FNa4AjUgaoCDuw350Jur/W++A75DEGaSDwdSemxCbp8v6esOQRs7xoDj3bvTQRSHUc13zNMNCFBkLiG/BKCAUgkS5LFeOGYWwMJBG2BhJs8huOoAHsACbxqm/G0XM+AhywYgWAJOO4BR8uI37gx8bwOhhCsMKvy2ZBFktphCMJZgleRi1htbrtkBDib/L0vXIYBnA5A/GCEBydgPhgSfbd8evk+VoAdPAoDBNRfDBOBogFLK56n7zNlPNWBpPgkcW5JsAPJiSaR9nqv8rSTStjWeoXyyX5haAEMDDEAyVwEoz0ob1qn7yJFAFzRT92lX+xuAcNBy1xn1kk0wVKjnSfrDkRzYosP9UUkkC1qS4HN3Vga/udxjvqOkr0oZnXBQnZNsAMKLWDofdVcJr0mgwCQHKOYqPECA8dVz7eCefjEb/1BaNcxxCFjZAAwGjlsmj+4p+7kBCDnKp3jgf52y3rIH2uWqMqWC2m1DjQQ4jplLhwL9gCwwwqYZaNpU9LqS7tByVTIVznDzBiAvSZ3IUN/eKv5XEgeTXL+/9+553ECAFvSs5L87JME8zJKL2XsJgh9f4+waPUsaOt4NQCInjUMbIlb5aQkYWKCWIng5Q2pxqJGLnP2Q8phN/JKEZRjeH6SAHlPOAyBRZ8VdHWyAwbF/JEnPmEroq/tRkn5mioYnaBP/Ocg7liZkkAIkYwHl7Bzs7n1KhdKUX9+lAYPx/KKkhxV8Wwg/bU70PyoJszHXVQr2AcvcTxVsL2dTAIU9YsSncFt/zgQg3yGJlLe5BN+un0uRYLnqLFnPsyV944gNcnDH+p/zp8b3q++QE4A0YCGxPeZ4b7LVIUN6gqRHDLlxpvd8e9pXnZCpf6flSMHW9OUjifyBF2ypgon5bpk7z+zwuynWGmBcFKwf944GKBzwEr6cUwjBjqQEz9kXT13o5wczAf1EAAKDyHs8PWmVYf36fQM8S4PNjFo8t0cBG2BmZl64sdw9cCjEm/p+iRMsl4KeGQzDztWPSD23S17mfHrl2IYVEddpLANWIWaBdR/uH0sWXEZ4KXLIexMoAAYsHSXk0xJIAAtm6RyCdQtSwaULS0ZSDFo5EF4q6fYNQO6fzLBWZeCmwstFANBSBae6N2XqPGGfHCZuC/3M1MTearC+kRCJGJCI4PKDCwgHuksVZg8MD5zMW2XzA9EAhF8g3BCg8rQKB01YEEDc0oS4B6L3bhjsOIAAGABkDnKTBJIIGQfj+GNJd5nDgBx9IDkts4fHEsi+8ToQebeJpx+d/HQcfdkUYWO0tHODJ6WDMu+YKTeHWaOv/1jjcCkBMF7BiyCSBdnbbqRcNEqWkN170YE2QGA3ZBaJCNGJkfDdSNvWshyOcU4TEc5KfilSQYGyLCGfGwQJbjZzdiJt1EgKCzzBo8ycmIsJE7gMQPg3MwBr2IiQQwIK0RIRbd5+spFtM1946rn7jL1iu+OJggRd8UzJJTJXIc4kh18Zlkesghvp5vZgY0d8c2RKburGoSxHh8d4INGlFfph77IkiYLkjORhMMcxEy+fg/ga1yj0dISMfVvyGzZ2m+klg0BVM5T5I0Nzg6pAAVhmvG7r0PTMIaJx0GA7NzF2zns8xhhM1swiU4U2942X54hHgtWMu60+4n1gmT8ifdmhcrlb4NIO7eicJJK0lLOiC+Y0GEdfvknSbzvKUQRLHdahOQkbatzgo7J1bH0AYZPDwRnruqgQc/CYaCWZypN9ivW0x30db4FILsdMQ8hSjdcZk9mDWaTUAei+wUYT0Db1M6uyp7yc7MoviE8LIMnhm/QtgV+tfUqy/L/XlP0iSadaGpr5vZx7ESjHy24VwMV+ZGrBX4w4+6iwH/3evkqGJOB8entX7+wNOR48D8PZ3NZiOPWx97AykGD6xikQsrlDEpaLuBhZBUsWzzJqBbS2273/ZSnZkrceDgM5SNxp6h8CEDrg/eVtdx6XlCkj1+AN9gQFHYpP0rYXybvUmvpQmNk8ErLNDyXuOHt/IIYCBOUSlMLBGC+6RwjtJQB/KvEQ5BEe/CULtlrt0zXWLKw2eAVbBCacKamiCB/YnHQ7hFglPM8HiQUgTYVYMbyuB3AAk/iktLCfwsaN2dki+Jg93lJggfdCA8QKwSKYuQHVf1gKZboXU6yXg9hshfMAhHHiXtG7sdmhiF5rQSbl9VXjiZrk4InZY252/9yqYsPOLIKrkUWm+rHzmukJVjNzJnsBgiLx7yGDlEVwoWaT/HFLoQz3epzXzL82Gfo5VRUsndmPWIRYEfZnpYUsuFb3deKV+LEzSwQgNPZGh1sKuc8ZZEnBdcCaSKabOatkf0u35XFUhewv6hRoHSezHTlarCTYbr+5KEA8+xE2SGyUSgnTKnENFoEsG+rLNQm5/qzs9Mdn8oEaqmePaTp0hhUFiCcar7RLPGC0MnVgAoS2aE2CMeKRxgGT/JUcl6XEY1Bwzx4MKgoQ6rAyM5LVCe/LUmLtH/0C+EtigMyhS89MW3qfxtmH1aOBDFnu0IscAPEss9io44FZQqwAIT7datEpMY4SbXzS2EhpgBBrdJyhj4RCezyXjzSRAyAExvMSWgQyAHyBSogVIBs2ixIdm2EbuF9c0dCvkuG4GFmOxGkM7CNRkCHS8RwAIUGl9azg4ft8YAYqYMhtFSBDtHTpPfhZHTX8dpVMo3CrlKjU0D09NsizkGUPQofZV1gY/vDCfIBlpIF7K0CGK4/zKYsJlRP4Hx5efejOB0l6srGGsBEhxwxCn61p3EqaUStAhr9V5Fy3uOOEf6GHd23jaIrDqUXYS4Y4z3IBBJMofktDBQZzD1/R0Prb91WADNca6bItociQfODZW0Ksz5FkTZbl4tYx5AIIAVFWV/ZbB5zOLA/Eqtg1b9IvkUTM/VB5XAYWnCFtAVprrvsLc9Cw5gIIJ7CcxFqEWYcDubFlzgDhweM2ThjAjSSRZgyjB4wpLA1YimL7L5VjBYZ+3DmGCoeLlpXD0Hq798HueK6xMMQj8FuFJBdA6ITVhs5LkINeaJ8C5ggQkqbCHoNH7JClJu4SL0yk2PvGG/l/3NeH9KdpA89a6+m7p38evrYspH45AeIJgcTfiV/JMWVOAMGDgF9c62az0Q9BXyxrXjmSwqxOnaUS7hCyjfOoRXCkDGdPzgkQbOIwmFikxEnsXADC8olZgKVUVCAsIL1CbsFT1sIKX4LAAb1Z3X7elitfSk6AeHx5SpA5zAEgkJq9QxLcsbmEpQ1LnJxCGourGyokcG7sXI4wqDBTWYSksd9lKdB3b06AYP1AwRYzIf3CrWPM1AlzAIh1fzb02Z4pCW6oXHKxJMKTh0oJrjDr86PvBPIRtx6WnAChM55MVTxgHvRYYlVwbjPvmGm2MX0SI/GqTMr7gHGWOzuwnxrSZfidrXtULHGkFcwSL58bIDivkY/CIiw9WGeOxeE7JUA8+zKL7rgXKlRP+rxt7eAWbmE4GTvs1qM/DBmnWZVYYolFG3eWBCWMVcgpQiDVGDIVQKBJeu0YA9pSJ35KT83QFvkVLcR6+EY9OEO7fVVA2mcNPcBCyMyWRXLPIHSK9Amcklsky6FOT4NTAYSN4gMtSgjcCxFaDh5lqJFIPTZUsm2GtzRIJCCzgUUgBSHYLdvB6hgAgekCvlOL4DcD64T1NH5IG1MApOTs0eggxyxCOnDW70PlaSP+CHBybs2PCE0uCWmzyRgAwVWCqdGiaAY0lslwCoBATMGBXklx8T51Ogj/8HUNnR4rbIHciqTgsAocyniWZ5MxAELnPEQJWB+YRTjkySlTAMRDc8qYWeJwSm7lG2v0RThqhGQbsjwLXwCHlRxa5hYsibc1VurmvtrVzlgA8S4xxnCfngIgrIWtOUjaXgUABGI+q8B2aV3ettsghhsqn6FCht/Th9488D4PCyZVE7hlpVDd26WxAELDHoJhiByYRVgL55LSACGykghLi2DYOKVTwEOGEfWNwuRuITk4RxIvdE7x+F3R/ihMNGMCxEtRn/vgsDRAPCQWbCzZYLYFaxIvrMUzIfqLTuYosnANldzWRxw5PXxkvyrpIUM7bblvTIDQDxgNzYTBiYkiV17u0gDhZce6Y5G+rLk46XGIOlRCLIJp/3eDoY2lIDlvOoxuMzhxMpNa/dVgmufEHcNQdhkbIPeW9BxHr3EvYJNGjHRUSgPE8yvYlzkXmn/o/ocKrj7EmnjlIkk3NBQmGSjRpDnEm8ks94rjMmMZGyA05okToVwuxozSACEIyuoV0DeDWM2u/BjdJ/C2Ej9hcceHdhTmkKh4l+MYQ4gTeXu0A33lSwDkvpJYG3uEUFQrKV23ndIA8YQfbzvk81gCo2tx65IuCsjmWXm8Lyg7OqtKCYAwEK9lgqUWMdsE8nilNEBYLkF+YJFtriIeV5XorEscPNagoYIpmkO9iHjzJOI3xuxhtRia+loKIF7bNoMhFTWzkFdKA4R+evKmkOSHfPKYuHHX8aS5I2W3ldygrVdrvzHlew81aRfLk9excIyAscu9Y6UAQsPPCNjMI4dAUwAEF4wxTph3/UgQrGYJdtpW1xsk3dTwS/SCQDJNXPQBs4XJsekavM7wO48uJQFyvbSf4NMj3iixKQCSK8m9RU8EZsGUEhG4pG5mqICErBglrII7C+DwstoUIz8vCRCUGFlq4afEfoRfOYtMARAO+YgFsTpsWsbVvTeUKCZVhj/TSYZOwNl1D8P9za1Y+TzAonwpqqFNX0sDhDYjSy1+4XCBtiREmQIgjNPjKuJ41zZFogeETbsYCyzJLj3Re7ineAndMCKQ45LlZBGZAiDRpRaHZ5aArKkAUnIWyTF78MIx62FeHirWtN5EIGLS9gpLSJaSxWQKgDA4Boofj1csm7SpAJJjnEP0k5NZxGqOtySoic6oY0Yv9up5KoDQIUyaEWbwoY5yUwKEcZIsKCc1T/thcpJs4bHaBzjOnfBrGipstDEt75N7SsLi5RX6hU/fh70VeMtNCRD6DNNghIFiSIajqQHCOK19GPo8T5bEviyXQB9kSX8NQQeGk13iIZ5u10dSH8CBy1JxmRogxB6g5BMCI9+3xLC+nLl5sZqhEUIaPXVu6sKpkB+WMPdsR+9W58jzE5NN3+Pzhs626yuZru9y45gaIHSIOGI2exHZFbgzF4AwPk7HWYtHBM8CqG2yEKN1OmL1idrlPcxJN+kRIjJGQJapP3MACB3OQXLAhhHXBeKq2zIngNAvuMNYGlppekiUikeBNU+f5YV4haTbGAr0GUu8/lXtpmG4YWlVKl341mHPBSB0Lrpppw6CZh7a4fqdG0DoJymNseSxwWUG3SWYXtmrMcuOQYvUbtsamoBu8bhuBNIIDBLeQ8CmHtz8MV2PPd69vwVzAgidJaYaNu+IwLGFrR1/KMQKEBz2eGm7M1GkT7vKXit5peJHRTQd3sBw5HK91UH9H+mnVVft/Rq/9k80RkD29ZUgsVdHBpKr7NwAwrgIwokE/TS6aXi2rA+d8i930M7keiZT1QN1qTU1dwMQUiCwrMohY7P9m/o4R4AwgNflSMAoiTX1JyRBpGCVaPCRtb0p74e6x5OQB4BgScuSiyOZjD3czqPpbq4AYcCkij42w8ghpLPk3Ws3WSIDVoYhhqrwsLA0DQIQz4/Ptg5HOb1CSugrPGeA0GcsN1CZTilFvUcLDzQSDp2zq0WCnzwdnjtAGJM1ys2jh31lcOvGNFsqncG+/kT//6iUx8UTtRhtu1u+uAOiZQBLAAjj8WSusuhhyL3EmQMSiAKWLLh+cJ5i8YgeY7z4kZEXhrOU2cpSAIICn5WRgynyQLCKwX8bcb6LtO8tC2s7JvQx090N7RuBWcwcbx5aYKr7lgQQdORhjR9Lt9jpiU0AuPwazlXIF46VimhOzlymFn5YMCcXC3qKDHhpAGGsHAKSe4PT6DkIp76cdOP6HWEUyT0WvGxxaAQYV85dubM+vCXOcpadpNgSAYKibpFIjq05JMZWMgx/DVA4bMRUXVIARXNZOHbH7iOzBcs7HC0XJUsFCEo+Os0kYyey9z5QgnuIr8BDFhLv13gr6inHngKXDAKcYHOEjcSSgDNzd3qrw4UecBCtuDhZMkAaZWPLZ8llSV88xYPCCsapM/SefHLB1MJBJq7rfHIRIHTVdHHAyXd8tGB552JPwaeVBX2KMXM6DziKRwLmGuwhAARd8OtJfvZ75VJMrSekAfZl/GhFsl2FOpCr8KEApNEHaZex8Vvy7OXSZa3nUg0ACsARyZU4G10eGkBQLGG8WEpKU3/O5qFO1BGy7BJByOfByCECpHk4xEMzm5x4ME9rngM5mOXUNvUeMkAYL5Q4WLk4mCpJAzrPVzlvrzAosJziypl0NW8vg7UdOkAa9cByyAFjBUrwhUnFiYuHTWb2riLR4a4FIBUo0Tfl0vJEezJjcLaxClkbQLpAwSxc9yi7X3Vi/EmUQxq9ObnSFAHoWgHSVi4MHLhdAxZO56tcqgEYG0lTADhyE9QtRscVIP//qPBdAihcFobzxTzsAR3ltL8BBakNVi8VINtfAYKKyDdOJiP8nA5ZSJB6QQpcYgn1rkMerHVsFSD7NYZDYAOWU/bfvog74NtqQMFnJIvwIgbs7WQFiE1zpEhmVoEBHS/a69uKT3b3xYmIjQxShLhCh1RlgAYqQAYoaccteNayX2GWITXYXCxinG4DAlztAQVkE1ijqhg1UAFiVNie26EoYmYhzdzx6ZPvXNfO25TYUL9zywWfLX+vkkEDFSAZlDiwimMSUHB54XvfdSVJH9txEVsBACyJTAd2sd7W1UAFSH0nqgZ2aKACpL4eVQMVIPUdqBrwaaDOID691VIr0UAFyEoedB2mTwMVID691VIr0UAFyEoedB2mTwMVID691VIr0UAFyEoedB2mTwMVID691VIr0UAFyEoedB2mTwMVID691VIr0UAFyEoedB2mTwMVID691VIr0UAFyEoedB2mTwMVID691VIr0UAFyEoedB2mTwMVID691VIr0cD/AfpXkG2phpxuAAAAAElFTkSuQmCC;rotation=-90;" vertex="1" parent="1">
          <mxGeometry x="40.000000000000014" y="60" width="30" height="30" as="geometry" />
        </mxCell>
        <mxCell id="Ew4Cx2_c2zEZE24tookL-54" value="" style="shape=image;verticalLabelPosition=bottom;labelBackgroundColor=default;verticalAlign=top;aspect=fixed;imageAspect=0;image=data:image/png,iVBORw0KGgoAAAANSUhEUgAAAMgAAADICAYAAACtWK6eAAAAAXNSR0IArs4c6QAADy5JREFUeF7tnQnwftUYx79NssxUBpORNWVpFKaxFir7VraJkhAlyRYJjaUsYyxZZmisWVukBiWmhSghRImYbEkmESFbZJuv/7nzv/1/733fe889y3PO+Z6Zd2rqnnOe5/vcz+/ec+45z9kIKlJACgwqsJG0kQJSYFgBAaK7QwosUUCA6PaQAgJE94AU8FNATxA/3VSrEQUESCOBlpt+CggQP91UqxEFBEgjgZabfgoIED/dVKsRBQRII4GWm34KCBA/3VSrEQUESCOBlpt+CggQP91UqxEFBEgjgZabfgoIED/dVKsRBQRII4GWm34KCBA/3VSrEQUESCOBlpt+CggQP91UqxEFBEgjgZabfgoIED/dVKsRBQRII4GWm34KCBA/3VSrEQUESCOBlpt+CggQP91UqxEFBEgjgZabfgoIED/dVKsRBQRII4GWm34KCBA/3VSrEQUESCOBlpt+CggQP91UqxEFBEgjgZabfgoIED/dVKsRBQRII4GWm34KCBA/3VSrEQUESCOBlpt+CggQP91UqxEFBEgjgZabfgoIED/dVKsRBQRII4GWm34KCBA/3VSrEQUESCOBlpt+CggQP91UqxEFBEgjgZabfgoIED/dVKsRBQRII4GWm34KtALIAQC2B3Ar99vS/fM/AC4H8Kve7wQAP/KTU7VqU6BmQO4FYH8A+wDYdGLgvg3gswDOAHD+xLq6vCIFagRkRwCHAnhioDidCuBDAE4O1J6aKUiB2gDhE+ODkfQ/zbX96Ujtq1mDCtQCyMYAjgWwZwKNz3SgnJigL3WRWYEaAHkAgHMz6HiWe/U6PkPf6jKRAqUDwtmoKxJpNdTNOe6JckxmO9R9BAVKB+SnALaJoItPk19zoHzMp7Lq2FSgZEA4WA41UxUyOue5V6+jQzaqtvIoUCogRwA4PI9ko3vl9xPOqPH339G1dKEpBUoE5P4A+N6/iSklh425wEHCbynXFWKzzHQKlAjIKQB2LzCCF7lXLz5Rri3Q/iZNLg2QgwAcVXikLu6B8tfCfane/JIA2dq9Wt2mkqhc0hujXFOJT9W5URIgfIffr7oIAJyq5msX/bu6Qv+KdqkUQPYAUPvSjkt7r15XFX1XVWR8CYBwqTpnrXaoSPdlrnB/Sjc9fGUjPpt1swRA3gTgMLMKxjOMS2i6Vy9u6FLJoIB1QHYGcHYGXSx1+Zveq9dllgxrwRbrgHAPxiNbCMQIH3/fe/X6+YjrdUkABSwDcjCAdwbwsbYm/th79fpxbc5Z88cqINu6gfkW1gQzZM+fe69eSjIRKTBWAfk4gKdH8rm2Zv/ee/X6QW3O5fbHIiB7u+2zubUprf9/9kD5XmnGW7XXGiC3cLNW21kVrAC7/t0bo3ynAHtNm2gNkLcDeKlpxcoyjstX+C3lW2WZbcdaS4A83CVqs6NOPZZ8xIHyjXpcSuOJJUC+DGDXNG432wsnP/hU+WqzCkx03AogrwDw5om263J/BY5zT5Sv+DfRRk0LgNzTffPYvA3JTXnJRN0co3zJlFWGjLEACIP0FEOatGjKSe7V6/QWnV/mc25AngXgwwqKGQWY0Z5PlC+YsSizIbkBYbK1nTJroO7XKvA5Bwr/2XTJCQiTvilTuu3bj08SPlH4ZGmy5ATkSACHNKl6eU5zbMLpYY5Vmio5AWFW9L2aUrt8ZznbxScKJ1aaKDkB0YfBcm8xfj8hKPyeUnURIFWHN7pz/CLPVy9+oa+y5ATkE+6AzSqFbcwprvHiE4VrvqoqOQF5G4CXVaWmnOGq4S4TSxVq5ARE07xV3EILneA+lG6pPfenFFtyAkLR9KGw2FtnlOHc2dglweOOx+JKbkCeDOBTxakmg6cqwL3yHSjcQ19MyQ0IhRIkxdwusw1l9pVujMKsLOaLBUAo0oNcetFHm1dMBoZQgPm8ujEK83yZLVYA6QR6DoBnA+Axayr1K8AMkd2rFzNHmivWAOkEepoD5SHmFJNBMRRgzuHu1Yu5iM0Uq4B0AnEqmE+U3cwoJkNiKsAs9nz14vbrf8TsaGzb1gHp/GACa4KinYdjI1v2dWcBeC7Wnb6VtZQCSCcSB/MEZd+sqqnzFArwxK39ARCWbKU0QDqh7gHgQAfLjbKpp45TKHC/nInvSgWkC8ztALzYgXKzFNFSH8kV4KLWZyTv1XVYOiCdbpsBONSBUssx0bnuCYv9cgx6Rg7DagGkr90rHSh3ziGo+oyiAJNHPC5KyysarRGQzmWOUfhjYjqVshW4BsBNc7hQMyCdntz3znGKvs7nuMPC9ZnlXs3SaTjNJrXE99iXA9DX+UmymbiYaYf40Th5aQmQTlxOG74KwO7J1VaHvgowA+dHfSvPqdciIJ1ed3Wg6CzEOXdQ/Lp/ArAVgCyrflsGpAvtLQG8GsAL48daPXgo8DoAR3jUC1IlNyA3BMCTpe4z4M0vAHwTQIpjjmkLX714Vom+zge5vWY3khUOWp8TkO1d4rG7j5CRoPBDEf+S/HrE9XMveYmDhYeKqgBHAWAWGv4B4Z6dFCU7HLkB4WrN93konVI4Hc8A7LPBsdxbut2fsV5JL3Gzjad43BvBq+R8gsxJPcr9AocFV2Ntg1y+8tYE/VjsgnszdgHAXX+LCkHhk5YahSqfdHBcHqrBue2UCgj9vjeA2OeAnwhgj7kiF1j/MwCeNNJugvI8N9Ex537i2M/cH6M5Do3Ub/CyOU8QNvpFN8Cfa8ey+j8BcKeYHRhsmx9TOd6YWggKX5tZ/yYTKl/gJkbOnFAn2aUlA0KRuHyEs1yxyrUNzWj9zn2tPnemmB0oLwKwagsCj9/jk4N9myylA8IgvDuistzyuU3E9q00zac5p9tDpgntQDkAAP+9X/7mwHiPFQGG7CgdkGMjZ4if+xpoPf60711usB3L1g4ULlfn6gWOb97r0s7G6jNYu6UDwoNcHhxMjbUNcU8009HUWJjZkP6NTf16R5eNn5kw/wCA2n8gwURJVu0FyHL5eVMMTXNmDdzMznmex54Axk6n7gfgtQBuv6BfQlItKAJk9Z32jsCvIOe4o69vsLrrKFfwZuZs05hyFwCHA9h7xMVVglI6ICPitvISvmowTT9vmh8uuPq2AM4GsPXKlsZdwH0pVwHgV3r+Nh1XbfZVPH6ABxaNndTgbkw+NTYcYK8ypCpQBMj6cF8M4DEAfrngDtgVAAfsc8sLsG5dU1e27YGyxdzGl9T/LoCDRk6Jc40cweBYY06pAhQBcv1b4P1uH/uiG2OnmTMv/Co/lBnyDi7RBJ8oTGUUsvCAzWeObJDT5oQj5CLNokERIGvvnCcAOHnghuIThrNatx55w/EyDoS5hGLMnD/3pnBATFBCZGXhOqkjR9i6gwODvscqDwPAc9aLKgJkbbj4ZX5nAENHhnXz+tyJuGxcwlc2/vXm78qJdwXzfHWgMIvk1MK+Od44bUTFQxwcm4+4ds4l3LLAbc48baqYIkAWh4r7TrisflV5hPsOw4E8fxzkc7k2p4ZPB3DdqgZW/H/OdBEU5iO+78i2TnBZXFYdI8C9+Xyd4lMxVdluYCIkVf+T+xEgw5JxrwpXqVopTL9JULgEfai8BsAbRxjMrQKE48Yjrg15Ccc2V4dsMHZbAmS5wlwWwR10lk4/4uwSQXlUz/SfAeCr0tDYqbv0gQ4MrrtKXbgB6vGpO53bnwBZrSC/OnN25/zVlya9gt9TOD65CABtZPbBZYVPDP42Tmrl+s54/uSYMVEm8xZ3K0DGh4Pv9sw0/vnxVa535d0A8C99jpOTuN5q7ncNT7f/X+2kzP172y5ApkvHRXrHuL/ai768dy1yoxX/anY//nd+tefSlZRpbCwcs/3Q3AfhTA/zuhoCxFe5dfX+4p4KPNaYsBAK/vgN4+ZLmuZ3hwvndT26NmHkeqpc5TgAPJS1yCJA8oSNyQ64DyNF4T6MVYP3mHbw2Ly5uxRj2re0bQGSR3rO5qRMa8Mv828BEHO91yIlmU+XfRdbBEj60DE5AT8wpi7cOswn1/MTdpz1fMEQfgqQECpOa4Nw5MzgwWU0BCXmuisqMmXfyTQFE14tQBKK7RYsxspIONWTpzpQhvIiT22vf/2/XL7lVBMRc2zVGCSaetMa/j6Ax07Y5jqtdb+r+dGQTxP+pqxQXtUbVy5b+UOwylYBMkuhMJU5i8Mct5eFaS54K9xrTkgODtAyU/rwqbTsG1GAbtI0oVes+Dqf6s75ZiYQ62VHB8qcr+78EMp1YVUUARIvjFe4zVVvCJyQLZ7F61tmPmI+UbiLckrhKVBcls+UrVUUARI+jASj22aa4iyT8B6sb5GnAxMUbgkeU1Jl3R9jS5BrSgeE66JyF+4W5G45HhdAOM5LdMhPKr+7Yw4IyrJURb91Tw+r4ywvvWoAJGZmRS9RK63E4yYIyVCOrNdnXvMVRXYBEkXWqhvlMhmC0t/ZeLRLY1qd4wKkupAmc2hfl4SB33dSLt9P5iA7Kh0QZglnQjQVKRBFgdIB4UpRrhhVkQJRFCgdEG5jTXGGehTx1ah9BUoGpIrVovZvkbYtLBkQbmktYflG23dY4d6XCgj3OHOvs4oUiKpATkD2AnD8RO94LjrP8Yh9PvpEs3R5rQrkBIRp/rlPejcATNY8VLiM4+vuEBuOO1SkQDIFcgLSOckTlriMYVHhup5Lk6mhjqTABgpYAERBkQJmFRAgZkMjwywoIEAsREE2mFVAgJgNjQyzoIAAsRAF2WBWAQFiNjQyzIICAsRCFGSDWQUEiNnQyDALCggQC1GQDWYVECBmQyPDLCggQCxEQTaYVUCAmA2NDLOggACxEAXZYFYBAWI2NDLMggICxEIUZINZBQSI2dDIMAsKCBALUZANZhUQIGZDI8MsKCBALERBNphVQICYDY0Ms6CAALEQBdlgVgEBYjY0MsyCAgLEQhRkg1kFBIjZ0MgwCwoIEAtRkA1mFRAgZkMjwywoIEAsREE2mFVAgJgNjQyzoIAAsRAF2WBWAQFiNjQyzIICAsRCFGSDWQUEiNnQyDALCggQC1GQDWYVECBmQyPDLCggQCxEQTaYVUCAmA2NDLOggACxEAXZYFYBAWI2NDLMggICxEIUZINZBQSI2dDIMAsKCBALUZANZhUQIGZDI8MsKCBALERBNphVQICYDY0Ms6CAALEQBdlgVgEBYjY0MsyCAv8DZQ7t2FCW2mIAAAAASUVORK5CYII=;rotation=30;flipV=0;flipH=1;container=0;" vertex="1" parent="1">
          <mxGeometry x="520" y="20" width="40" height="40" as="geometry" />
        </mxCell>
        <mxCell id="Ew4Cx2_c2zEZE24tookL-55" value="" style="shape=image;verticalLabelPosition=bottom;labelBackgroundColor=default;verticalAlign=top;aspect=fixed;imageAspect=0;image=data:image/png,iVBORw0KGgoAAAANSUhEUgAAAMgAAADICAYAAACtWK6eAAAAAXNSR0IArs4c6QAADy5JREFUeF7tnQnwftUYx79NssxUBpORNWVpFKaxFir7VraJkhAlyRYJjaUsYyxZZmisWVukBiWmhSghRImYbEkmESFbZJuv/7nzv/1/733fe889y3PO+Z6Zd2rqnnOe5/vcz+/ec+45z9kIKlJACgwqsJG0kQJSYFgBAaK7QwosUUCA6PaQAgJE94AU8FNATxA/3VSrEQUESCOBlpt+CggQP91UqxEFBEgjgZabfgoIED/dVKsRBQRII4GWm34KCBA/3VSrEQUESCOBlpt+CggQP91UqxEFBEgjgZabfgoIED/dVKsRBQRII4GWm34KCBA/3VSrEQUESCOBlpt+CggQP91UqxEFBEgjgZabfgoIED/dVKsRBQRII4GWm34KCBA/3VSrEQUESCOBlpt+CggQP91UqxEFBEgjgZabfgoIED/dVKsRBQRII4GWm34KCBA/3VSrEQUESCOBlpt+CggQP91UqxEFBEgjgZabfgoIED/dVKsRBQRII4GWm34KCBA/3VSrEQUESCOBlpt+CggQP91UqxEFBEgjgZabfgoIED/dVKsRBQRII4GWm34KCBA/3VSrEQUESCOBlpt+CggQP91UqxEFBEgjgZabfgoIED/dVKsRBQRII4GWm34KtALIAQC2B3Ar99vS/fM/AC4H8Kve7wQAP/KTU7VqU6BmQO4FYH8A+wDYdGLgvg3gswDOAHD+xLq6vCIFagRkRwCHAnhioDidCuBDAE4O1J6aKUiB2gDhE+ODkfQ/zbX96Ujtq1mDCtQCyMYAjgWwZwKNz3SgnJigL3WRWYEaAHkAgHMz6HiWe/U6PkPf6jKRAqUDwtmoKxJpNdTNOe6JckxmO9R9BAVKB+SnALaJoItPk19zoHzMp7Lq2FSgZEA4WA41UxUyOue5V6+jQzaqtvIoUCogRwA4PI9ko3vl9xPOqPH339G1dKEpBUoE5P4A+N6/iSklh425wEHCbynXFWKzzHQKlAjIKQB2LzCCF7lXLz5Rri3Q/iZNLg2QgwAcVXikLu6B8tfCfane/JIA2dq9Wt2mkqhc0hujXFOJT9W5URIgfIffr7oIAJyq5msX/bu6Qv+KdqkUQPYAUPvSjkt7r15XFX1XVWR8CYBwqTpnrXaoSPdlrnB/Sjc9fGUjPpt1swRA3gTgMLMKxjOMS2i6Vy9u6FLJoIB1QHYGcHYGXSx1+Zveq9dllgxrwRbrgHAPxiNbCMQIH3/fe/X6+YjrdUkABSwDcjCAdwbwsbYm/th79fpxbc5Z88cqINu6gfkW1gQzZM+fe69eSjIRKTBWAfk4gKdH8rm2Zv/ee/X6QW3O5fbHIiB7u+2zubUprf9/9kD5XmnGW7XXGiC3cLNW21kVrAC7/t0bo3ynAHtNm2gNkLcDeKlpxcoyjstX+C3lW2WZbcdaS4A83CVqs6NOPZZ8xIHyjXpcSuOJJUC+DGDXNG432wsnP/hU+WqzCkx03AogrwDw5om263J/BY5zT5Sv+DfRRk0LgNzTffPYvA3JTXnJRN0co3zJlFWGjLEACIP0FEOatGjKSe7V6/QWnV/mc25AngXgwwqKGQWY0Z5PlC+YsSizIbkBYbK1nTJroO7XKvA5Bwr/2XTJCQiTvilTuu3bj08SPlH4ZGmy5ATkSACHNKl6eU5zbMLpYY5Vmio5AWFW9L2aUrt8ZznbxScKJ1aaKDkB0YfBcm8xfj8hKPyeUnURIFWHN7pz/CLPVy9+oa+y5ATkE+6AzSqFbcwprvHiE4VrvqoqOQF5G4CXVaWmnOGq4S4TSxVq5ARE07xV3EILneA+lG6pPfenFFtyAkLR9KGw2FtnlOHc2dglweOOx+JKbkCeDOBTxakmg6cqwL3yHSjcQ19MyQ0IhRIkxdwusw1l9pVujMKsLOaLBUAo0oNcetFHm1dMBoZQgPm8ujEK83yZLVYA6QR6DoBnA+Axayr1K8AMkd2rFzNHmivWAOkEepoD5SHmFJNBMRRgzuHu1Yu5iM0Uq4B0AnEqmE+U3cwoJkNiKsAs9nz14vbrf8TsaGzb1gHp/GACa4KinYdjI1v2dWcBeC7Wnb6VtZQCSCcSB/MEZd+sqqnzFArwxK39ARCWbKU0QDqh7gHgQAfLjbKpp45TKHC/nInvSgWkC8ztALzYgXKzFNFSH8kV4KLWZyTv1XVYOiCdbpsBONSBUssx0bnuCYv9cgx6Rg7DagGkr90rHSh3ziGo+oyiAJNHPC5KyysarRGQzmWOUfhjYjqVshW4BsBNc7hQMyCdntz3znGKvs7nuMPC9ZnlXs3SaTjNJrXE99iXA9DX+UmymbiYaYf40Th5aQmQTlxOG74KwO7J1VaHvgowA+dHfSvPqdciIJ1ed3Wg6CzEOXdQ/Lp/ArAVgCyrflsGpAvtLQG8GsAL48daPXgo8DoAR3jUC1IlNyA3BMCTpe4z4M0vAHwTQIpjjmkLX714Vom+zge5vWY3khUOWp8TkO1d4rG7j5CRoPBDEf+S/HrE9XMveYmDhYeKqgBHAWAWGv4B4Z6dFCU7HLkB4WrN93konVI4Hc8A7LPBsdxbut2fsV5JL3Gzjad43BvBq+R8gsxJPcr9AocFV2Ntg1y+8tYE/VjsgnszdgHAXX+LCkHhk5YahSqfdHBcHqrBue2UCgj9vjeA2OeAnwhgj7kiF1j/MwCeNNJugvI8N9Ex537i2M/cH6M5Do3Ub/CyOU8QNvpFN8Cfa8ey+j8BcKeYHRhsmx9TOd6YWggKX5tZ/yYTKl/gJkbOnFAn2aUlA0KRuHyEs1yxyrUNzWj9zn2tPnemmB0oLwKwagsCj9/jk4N9myylA8IgvDuistzyuU3E9q00zac5p9tDpgntQDkAAP+9X/7mwHiPFQGG7CgdkGMjZ4if+xpoPf60711usB3L1g4ULlfn6gWOb97r0s7G6jNYu6UDwoNcHhxMjbUNcU8009HUWJjZkP6NTf16R5eNn5kw/wCA2n8gwURJVu0FyHL5eVMMTXNmDdzMznmex54Axk6n7gfgtQBuv6BfQlItKAJk9Z32jsCvIOe4o69vsLrrKFfwZuZs05hyFwCHA9h7xMVVglI6ICPitvISvmowTT9vmh8uuPq2AM4GsPXKlsZdwH0pVwHgV3r+Nh1XbfZVPH6ABxaNndTgbkw+NTYcYK8ypCpQBMj6cF8M4DEAfrngDtgVAAfsc8sLsG5dU1e27YGyxdzGl9T/LoCDRk6Jc40cweBYY06pAhQBcv1b4P1uH/uiG2OnmTMv/Co/lBnyDi7RBJ8oTGUUsvCAzWeObJDT5oQj5CLNokERIGvvnCcAOHnghuIThrNatx55w/EyDoS5hGLMnD/3pnBATFBCZGXhOqkjR9i6gwODvscqDwPAc9aLKgJkbbj4ZX5nAENHhnXz+tyJuGxcwlc2/vXm78qJdwXzfHWgMIvk1MK+Od44bUTFQxwcm4+4ds4l3LLAbc48baqYIkAWh4r7TrisflV5hPsOw4E8fxzkc7k2p4ZPB3DdqgZW/H/OdBEU5iO+78i2TnBZXFYdI8C9+Xyd4lMxVdluYCIkVf+T+xEgw5JxrwpXqVopTL9JULgEfai8BsAbRxjMrQKE48Yjrg15Ccc2V4dsMHZbAmS5wlwWwR10lk4/4uwSQXlUz/SfAeCr0tDYqbv0gQ4MrrtKXbgB6vGpO53bnwBZrSC/OnN25/zVlya9gt9TOD65CABtZPbBZYVPDP42Tmrl+s54/uSYMVEm8xZ3K0DGh4Pv9sw0/vnxVa535d0A8C99jpOTuN5q7ncNT7f/X+2kzP172y5ApkvHRXrHuL/ai768dy1yoxX/anY//nd+tefSlZRpbCwcs/3Q3AfhTA/zuhoCxFe5dfX+4p4KPNaYsBAK/vgN4+ZLmuZ3hwvndT26NmHkeqpc5TgAPJS1yCJA8oSNyQ64DyNF4T6MVYP3mHbw2Ly5uxRj2re0bQGSR3rO5qRMa8Mv828BEHO91yIlmU+XfRdbBEj60DE5AT8wpi7cOswn1/MTdpz1fMEQfgqQECpOa4Nw5MzgwWU0BCXmuisqMmXfyTQFE14tQBKK7RYsxspIONWTpzpQhvIiT22vf/2/XL7lVBMRc2zVGCSaetMa/j6Ax07Y5jqtdb+r+dGQTxP+pqxQXtUbVy5b+UOwylYBMkuhMJU5i8Mct5eFaS54K9xrTkgODtAyU/rwqbTsG1GAbtI0oVes+Dqf6s75ZiYQ62VHB8qcr+78EMp1YVUUARIvjFe4zVVvCJyQLZ7F61tmPmI+UbiLckrhKVBcls+UrVUUARI+jASj22aa4iyT8B6sb5GnAxMUbgkeU1Jl3R9jS5BrSgeE66JyF+4W5G45HhdAOM5LdMhPKr+7Yw4IyrJURb91Tw+r4ywvvWoAJGZmRS9RK63E4yYIyVCOrNdnXvMVRXYBEkXWqhvlMhmC0t/ZeLRLY1qd4wKkupAmc2hfl4SB33dSLt9P5iA7Kh0QZglnQjQVKRBFgdIB4UpRrhhVkQJRFCgdEG5jTXGGehTx1ah9BUoGpIrVovZvkbYtLBkQbmktYflG23dY4d6XCgj3OHOvs4oUiKpATkD2AnD8RO94LjrP8Yh9PvpEs3R5rQrkBIRp/rlPejcATNY8VLiM4+vuEBuOO1SkQDIFcgLSOckTlriMYVHhup5Lk6mhjqTABgpYAERBkQJmFRAgZkMjwywoIEAsREE2mFVAgJgNjQyzoIAAsRAF2WBWAQFiNjQyzIICAsRCFGSDWQUEiNnQyDALCggQC1GQDWYVECBmQyPDLCggQCxEQTaYVUCAmA2NDLOggACxEAXZYFYBAWI2NDLMggICxEIUZINZBQSI2dDIMAsKCBALUZANZhUQIGZDI8MsKCBALERBNphVQICYDY0Ms6CAALEQBdlgVgEBYjY0MsyCAgLEQhRkg1kFBIjZ0MgwCwoIEAtRkA1mFRAgZkMjwywoIEAsREE2mFVAgJgNjQyzoIAAsRAF2WBWAQFiNjQyzIICAsRCFGSDWQUEiNnQyDALCggQC1GQDWYVECBmQyPDLCggQCxEQTaYVUCAmA2NDLOggACxEAXZYFYBAWI2NDLMggICxEIUZINZBQSI2dDIMAsKCBALUZANZhUQIGZDI8MsKCBALERBNphVQICYDY0Ms6CAALEQBdlgVgEBYjY0MsyCAv8DZQ7t2FCW2mIAAAAASUVORK5CYII=;rotation=0;" vertex="1" parent="1">
          <mxGeometry x="19.999999999999996" y="715" width="40" height="40" as="geometry" />
        </mxCell>
        <mxCell id="Ew4Cx2_c2zEZE24tookL-57" value="" style="shape=image;verticalLabelPosition=bottom;labelBackgroundColor=default;verticalAlign=top;aspect=fixed;imageAspect=0;image=data:image/png,iVBORw0KGgoAAAANSUhEUgAAAMgAAADICAYAAACtWK6eAAAAAXNSR0IArs4c6QAADy5JREFUeF7tnQnwftUYx79NssxUBpORNWVpFKaxFir7VraJkhAlyRYJjaUsYyxZZmisWVukBiWmhSghRImYbEkmESFbZJuv/7nzv/1/733fe889y3PO+Z6Zd2rqnnOe5/vcz+/ec+45z9kIKlJACgwqsJG0kQJSYFgBAaK7QwosUUCA6PaQAgJE94AU8FNATxA/3VSrEQUESCOBlpt+CggQP91UqxEFBEgjgZabfgoIED/dVKsRBQRII4GWm34KCBA/3VSrEQUESCOBlpt+CggQP91UqxEFBEgjgZabfgoIED/dVKsRBQRII4GWm34KCBA/3VSrEQUESCOBlpt+CggQP91UqxEFBEgjgZabfgoIED/dVKsRBQRII4GWm34KCBA/3VSrEQUESCOBlpt+CggQP91UqxEFBEgjgZabfgoIED/dVKsRBQRII4GWm34KCBA/3VSrEQUESCOBlpt+CggQP91UqxEFBEgjgZabfgoIED/dVKsRBQRII4GWm34KCBA/3VSrEQUESCOBlpt+CggQP91UqxEFBEgjgZabfgoIED/dVKsRBQRII4GWm34KCBA/3VSrEQUESCOBlpt+CggQP91UqxEFBEgjgZabfgoIED/dVKsRBQRII4GWm34KtALIAQC2B3Ar99vS/fM/AC4H8Kve7wQAP/KTU7VqU6BmQO4FYH8A+wDYdGLgvg3gswDOAHD+xLq6vCIFagRkRwCHAnhioDidCuBDAE4O1J6aKUiB2gDhE+ODkfQ/zbX96Ujtq1mDCtQCyMYAjgWwZwKNz3SgnJigL3WRWYEaAHkAgHMz6HiWe/U6PkPf6jKRAqUDwtmoKxJpNdTNOe6JckxmO9R9BAVKB+SnALaJoItPk19zoHzMp7Lq2FSgZEA4WA41UxUyOue5V6+jQzaqtvIoUCogRwA4PI9ko3vl9xPOqPH339G1dKEpBUoE5P4A+N6/iSklh425wEHCbynXFWKzzHQKlAjIKQB2LzCCF7lXLz5Rri3Q/iZNLg2QgwAcVXikLu6B8tfCfane/JIA2dq9Wt2mkqhc0hujXFOJT9W5URIgfIffr7oIAJyq5msX/bu6Qv+KdqkUQPYAUPvSjkt7r15XFX1XVWR8CYBwqTpnrXaoSPdlrnB/Sjc9fGUjPpt1swRA3gTgMLMKxjOMS2i6Vy9u6FLJoIB1QHYGcHYGXSx1+Zveq9dllgxrwRbrgHAPxiNbCMQIH3/fe/X6+YjrdUkABSwDcjCAdwbwsbYm/th79fpxbc5Z88cqINu6gfkW1gQzZM+fe69eSjIRKTBWAfk4gKdH8rm2Zv/ee/X6QW3O5fbHIiB7u+2zubUprf9/9kD5XmnGW7XXGiC3cLNW21kVrAC7/t0bo3ynAHtNm2gNkLcDeKlpxcoyjstX+C3lW2WZbcdaS4A83CVqs6NOPZZ8xIHyjXpcSuOJJUC+DGDXNG432wsnP/hU+WqzCkx03AogrwDw5om263J/BY5zT5Sv+DfRRk0LgNzTffPYvA3JTXnJRN0co3zJlFWGjLEACIP0FEOatGjKSe7V6/QWnV/mc25AngXgwwqKGQWY0Z5PlC+YsSizIbkBYbK1nTJroO7XKvA5Bwr/2XTJCQiTvilTuu3bj08SPlH4ZGmy5ATkSACHNKl6eU5zbMLpYY5Vmio5AWFW9L2aUrt8ZznbxScKJ1aaKDkB0YfBcm8xfj8hKPyeUnURIFWHN7pz/CLPVy9+oa+y5ATkE+6AzSqFbcwprvHiE4VrvqoqOQF5G4CXVaWmnOGq4S4TSxVq5ARE07xV3EILneA+lG6pPfenFFtyAkLR9KGw2FtnlOHc2dglweOOx+JKbkCeDOBTxakmg6cqwL3yHSjcQ19MyQ0IhRIkxdwusw1l9pVujMKsLOaLBUAo0oNcetFHm1dMBoZQgPm8ujEK83yZLVYA6QR6DoBnA+Axayr1K8AMkd2rFzNHmivWAOkEepoD5SHmFJNBMRRgzuHu1Yu5iM0Uq4B0AnEqmE+U3cwoJkNiKsAs9nz14vbrf8TsaGzb1gHp/GACa4KinYdjI1v2dWcBeC7Wnb6VtZQCSCcSB/MEZd+sqqnzFArwxK39ARCWbKU0QDqh7gHgQAfLjbKpp45TKHC/nInvSgWkC8ztALzYgXKzFNFSH8kV4KLWZyTv1XVYOiCdbpsBONSBUssx0bnuCYv9cgx6Rg7DagGkr90rHSh3ziGo+oyiAJNHPC5KyysarRGQzmWOUfhjYjqVshW4BsBNc7hQMyCdntz3znGKvs7nuMPC9ZnlXs3SaTjNJrXE99iXA9DX+UmymbiYaYf40Th5aQmQTlxOG74KwO7J1VaHvgowA+dHfSvPqdciIJ1ed3Wg6CzEOXdQ/Lp/ArAVgCyrflsGpAvtLQG8GsAL48daPXgo8DoAR3jUC1IlNyA3BMCTpe4z4M0vAHwTQIpjjmkLX714Vom+zge5vWY3khUOWp8TkO1d4rG7j5CRoPBDEf+S/HrE9XMveYmDhYeKqgBHAWAWGv4B4Z6dFCU7HLkB4WrN93konVI4Hc8A7LPBsdxbut2fsV5JL3Gzjad43BvBq+R8gsxJPcr9AocFV2Ntg1y+8tYE/VjsgnszdgHAXX+LCkHhk5YahSqfdHBcHqrBue2UCgj9vjeA2OeAnwhgj7kiF1j/MwCeNNJugvI8N9Ex537i2M/cH6M5Do3Ub/CyOU8QNvpFN8Cfa8ey+j8BcKeYHRhsmx9TOd6YWggKX5tZ/yYTKl/gJkbOnFAn2aUlA0KRuHyEs1yxyrUNzWj9zn2tPnemmB0oLwKwagsCj9/jk4N9myylA8IgvDuistzyuU3E9q00zac5p9tDpgntQDkAAP+9X/7mwHiPFQGG7CgdkGMjZ4if+xpoPf60711usB3L1g4ULlfn6gWOb97r0s7G6jNYu6UDwoNcHhxMjbUNcU8009HUWJjZkP6NTf16R5eNn5kw/wCA2n8gwURJVu0FyHL5eVMMTXNmDdzMznmex54Axk6n7gfgtQBuv6BfQlItKAJk9Z32jsCvIOe4o69vsLrrKFfwZuZs05hyFwCHA9h7xMVVglI6ICPitvISvmowTT9vmh8uuPq2AM4GsPXKlsZdwH0pVwHgV3r+Nh1XbfZVPH6ABxaNndTgbkw+NTYcYK8ypCpQBMj6cF8M4DEAfrngDtgVAAfsc8sLsG5dU1e27YGyxdzGl9T/LoCDRk6Jc40cweBYY06pAhQBcv1b4P1uH/uiG2OnmTMv/Co/lBnyDi7RBJ8oTGUUsvCAzWeObJDT5oQj5CLNokERIGvvnCcAOHnghuIThrNatx55w/EyDoS5hGLMnD/3pnBATFBCZGXhOqkjR9i6gwODvscqDwPAc9aLKgJkbbj4ZX5nAENHhnXz+tyJuGxcwlc2/vXm78qJdwXzfHWgMIvk1MK+Od44bUTFQxwcm4+4ds4l3LLAbc48baqYIkAWh4r7TrisflV5hPsOw4E8fxzkc7k2p4ZPB3DdqgZW/H/OdBEU5iO+78i2TnBZXFYdI8C9+Xyd4lMxVdluYCIkVf+T+xEgw5JxrwpXqVopTL9JULgEfai8BsAbRxjMrQKE48Yjrg15Ccc2V4dsMHZbAmS5wlwWwR10lk4/4uwSQXlUz/SfAeCr0tDYqbv0gQ4MrrtKXbgB6vGpO53bnwBZrSC/OnN25/zVlya9gt9TOD65CABtZPbBZYVPDP42Tmrl+s54/uSYMVEm8xZ3K0DGh4Pv9sw0/vnxVa535d0A8C99jpOTuN5q7ncNT7f/X+2kzP172y5ApkvHRXrHuL/ai768dy1yoxX/anY//nd+tefSlZRpbCwcs/3Q3AfhTA/zuhoCxFe5dfX+4p4KPNaYsBAK/vgN4+ZLmuZ3hwvndT26NmHkeqpc5TgAPJS1yCJA8oSNyQ64DyNF4T6MVYP3mHbw2Ly5uxRj2re0bQGSR3rO5qRMa8Mv828BEHO91yIlmU+XfRdbBEj60DE5AT8wpi7cOswn1/MTdpz1fMEQfgqQECpOa4Nw5MzgwWU0BCXmuisqMmXfyTQFE14tQBKK7RYsxspIONWTpzpQhvIiT22vf/2/XL7lVBMRc2zVGCSaetMa/j6Ax07Y5jqtdb+r+dGQTxP+pqxQXtUbVy5b+UOwylYBMkuhMJU5i8Mct5eFaS54K9xrTkgODtAyU/rwqbTsG1GAbtI0oVes+Dqf6s75ZiYQ62VHB8qcr+78EMp1YVUUARIvjFe4zVVvCJyQLZ7F61tmPmI+UbiLckrhKVBcls+UrVUUARI+jASj22aa4iyT8B6sb5GnAxMUbgkeU1Jl3R9jS5BrSgeE66JyF+4W5G45HhdAOM5LdMhPKr+7Yw4IyrJURb91Tw+r4ywvvWoAJGZmRS9RK63E4yYIyVCOrNdnXvMVRXYBEkXWqhvlMhmC0t/ZeLRLY1qd4wKkupAmc2hfl4SB33dSLt9P5iA7Kh0QZglnQjQVKRBFgdIB4UpRrhhVkQJRFCgdEG5jTXGGehTx1ah9BUoGpIrVovZvkbYtLBkQbmktYflG23dY4d6XCgj3OHOvs4oUiKpATkD2AnD8RO94LjrP8Yh9PvpEs3R5rQrkBIRp/rlPejcATNY8VLiM4+vuEBuOO1SkQDIFcgLSOckTlriMYVHhup5Lk6mhjqTABgpYAERBkQJmFRAgZkMjwywoIEAsREE2mFVAgJgNjQyzoIAAsRAF2WBWAQFiNjQyzIICAsRCFGSDWQUEiNnQyDALCggQC1GQDWYVECBmQyPDLCggQCxEQTaYVUCAmA2NDLOggACxEAXZYFYBAWI2NDLMggICxEIUZINZBQSI2dDIMAsKCBALUZANZhUQIGZDI8MsKCBALERBNphVQICYDY0Ms6CAALEQBdlgVgEBYjY0MsyCAgLEQhRkg1kFBIjZ0MgwCwoIEAtRkA1mFRAgZkMjwywoIEAsREE2mFVAgJgNjQyzoIAAsRAF2WBWAQFiNjQyzIICAsRCFGSDWQUEiNnQyDALCggQC1GQDWYVECBmQyPDLCggQCxEQTaYVUCAmA2NDLOggACxEAXZYFYBAWI2NDLMggICxEIUZINZBQSI2dDIMAsKCBALUZANZhUQIGZDI8MsKCBALERBNphVQICYDY0Ms6CAALEQBdlgVgEBYjY0MsyCAv8DZQ7t2FCW2mIAAAAASUVORK5CYII=;rotation=15;flipV=0;flipH=1;container=0;" vertex="1" parent="1">
          <mxGeometry x="600" y="715" width="40" height="40" as="geometry" />
        </mxCell>
        <mxCell id="Ew4Cx2_c2zEZE24tookL-58" value="" style="shape=image;verticalLabelPosition=bottom;labelBackgroundColor=default;verticalAlign=top;aspect=fixed;imageAspect=0;image=data:image/png,iVBORw0KGgoAAAANSUhEUgAAAMgAAADICAYAAACtWK6eAAAAAXNSR0IArs4c6QAADy5JREFUeF7tnQnwftUYx79NssxUBpORNWVpFKaxFir7VraJkhAlyRYJjaUsYyxZZmisWVukBiWmhSghRImYbEkmESFbZJuv/7nzv/1/733fe889y3PO+Z6Zd2rqnnOe5/vcz+/ec+45z9kIKlJACgwqsJG0kQJSYFgBAaK7QwosUUCA6PaQAgJE94AU8FNATxA/3VSrEQUESCOBlpt+CggQP91UqxEFBEgjgZabfgoIED/dVKsRBQRII4GWm34KCBA/3VSrEQUESCOBlpt+CggQP91UqxEFBEgjgZabfgoIED/dVKsRBQRII4GWm34KCBA/3VSrEQUESCOBlpt+CggQP91UqxEFBEgjgZabfgoIED/dVKsRBQRII4GWm34KCBA/3VSrEQUESCOBlpt+CggQP91UqxEFBEgjgZabfgoIED/dVKsRBQRII4GWm34KCBA/3VSrEQUESCOBlpt+CggQP91UqxEFBEgjgZabfgoIED/dVKsRBQRII4GWm34KCBA/3VSrEQUESCOBlpt+CggQP91UqxEFBEgjgZabfgoIED/dVKsRBQRII4GWm34KCBA/3VSrEQUESCOBlpt+CggQP91UqxEFBEgjgZabfgoIED/dVKsRBQRII4GWm34KtALIAQC2B3Ar99vS/fM/AC4H8Kve7wQAP/KTU7VqU6BmQO4FYH8A+wDYdGLgvg3gswDOAHD+xLq6vCIFagRkRwCHAnhioDidCuBDAE4O1J6aKUiB2gDhE+ODkfQ/zbX96Ujtq1mDCtQCyMYAjgWwZwKNz3SgnJigL3WRWYEaAHkAgHMz6HiWe/U6PkPf6jKRAqUDwtmoKxJpNdTNOe6JckxmO9R9BAVKB+SnALaJoItPk19zoHzMp7Lq2FSgZEA4WA41UxUyOue5V6+jQzaqtvIoUCogRwA4PI9ko3vl9xPOqPH339G1dKEpBUoE5P4A+N6/iSklh425wEHCbynXFWKzzHQKlAjIKQB2LzCCF7lXLz5Rri3Q/iZNLg2QgwAcVXikLu6B8tfCfane/JIA2dq9Wt2mkqhc0hujXFOJT9W5URIgfIffr7oIAJyq5msX/bu6Qv+KdqkUQPYAUPvSjkt7r15XFX1XVWR8CYBwqTpnrXaoSPdlrnB/Sjc9fGUjPpt1swRA3gTgMLMKxjOMS2i6Vy9u6FLJoIB1QHYGcHYGXSx1+Zveq9dllgxrwRbrgHAPxiNbCMQIH3/fe/X6+YjrdUkABSwDcjCAdwbwsbYm/th79fpxbc5Z88cqINu6gfkW1gQzZM+fe69eSjIRKTBWAfk4gKdH8rm2Zv/ee/X6QW3O5fbHIiB7u+2zubUprf9/9kD5XmnGW7XXGiC3cLNW21kVrAC7/t0bo3ynAHtNm2gNkLcDeKlpxcoyjstX+C3lW2WZbcdaS4A83CVqs6NOPZZ8xIHyjXpcSuOJJUC+DGDXNG432wsnP/hU+WqzCkx03AogrwDw5om263J/BY5zT5Sv+DfRRk0LgNzTffPYvA3JTXnJRN0co3zJlFWGjLEACIP0FEOatGjKSe7V6/QWnV/mc25AngXgwwqKGQWY0Z5PlC+YsSizIbkBYbK1nTJroO7XKvA5Bwr/2XTJCQiTvilTuu3bj08SPlH4ZGmy5ATkSACHNKl6eU5zbMLpYY5Vmio5AWFW9L2aUrt8ZznbxScKJ1aaKDkB0YfBcm8xfj8hKPyeUnURIFWHN7pz/CLPVy9+oa+y5ATkE+6AzSqFbcwprvHiE4VrvqoqOQF5G4CXVaWmnOGq4S4TSxVq5ARE07xV3EILneA+lG6pPfenFFtyAkLR9KGw2FtnlOHc2dglweOOx+JKbkCeDOBTxakmg6cqwL3yHSjcQ19MyQ0IhRIkxdwusw1l9pVujMKsLOaLBUAo0oNcetFHm1dMBoZQgPm8ujEK83yZLVYA6QR6DoBnA+Axayr1K8AMkd2rFzNHmivWAOkEepoD5SHmFJNBMRRgzuHu1Yu5iM0Uq4B0AnEqmE+U3cwoJkNiKsAs9nz14vbrf8TsaGzb1gHp/GACa4KinYdjI1v2dWcBeC7Wnb6VtZQCSCcSB/MEZd+sqqnzFArwxK39ARCWbKU0QDqh7gHgQAfLjbKpp45TKHC/nInvSgWkC8ztALzYgXKzFNFSH8kV4KLWZyTv1XVYOiCdbpsBONSBUssx0bnuCYv9cgx6Rg7DagGkr90rHSh3ziGo+oyiAJNHPC5KyysarRGQzmWOUfhjYjqVshW4BsBNc7hQMyCdntz3znGKvs7nuMPC9ZnlXs3SaTjNJrXE99iXA9DX+UmymbiYaYf40Th5aQmQTlxOG74KwO7J1VaHvgowA+dHfSvPqdciIJ1ed3Wg6CzEOXdQ/Lp/ArAVgCyrflsGpAvtLQG8GsAL48daPXgo8DoAR3jUC1IlNyA3BMCTpe4z4M0vAHwTQIpjjmkLX714Vom+zge5vWY3khUOWp8TkO1d4rG7j5CRoPBDEf+S/HrE9XMveYmDhYeKqgBHAWAWGv4B4Z6dFCU7HLkB4WrN93konVI4Hc8A7LPBsdxbut2fsV5JL3Gzjad43BvBq+R8gsxJPcr9AocFV2Ntg1y+8tYE/VjsgnszdgHAXX+LCkHhk5YahSqfdHBcHqrBue2UCgj9vjeA2OeAnwhgj7kiF1j/MwCeNNJugvI8N9Ex537i2M/cH6M5Do3Ub/CyOU8QNvpFN8Cfa8ey+j8BcKeYHRhsmx9TOd6YWggKX5tZ/yYTKl/gJkbOnFAn2aUlA0KRuHyEs1yxyrUNzWj9zn2tPnemmB0oLwKwagsCj9/jk4N9myylA8IgvDuistzyuU3E9q00zac5p9tDpgntQDkAAP+9X/7mwHiPFQGG7CgdkGMjZ4if+xpoPf60711usB3L1g4ULlfn6gWOb97r0s7G6jNYu6UDwoNcHhxMjbUNcU8009HUWJjZkP6NTf16R5eNn5kw/wCA2n8gwURJVu0FyHL5eVMMTXNmDdzMznmex54Axk6n7gfgtQBuv6BfQlItKAJk9Z32jsCvIOe4o69vsLrrKFfwZuZs05hyFwCHA9h7xMVVglI6ICPitvISvmowTT9vmh8uuPq2AM4GsPXKlsZdwH0pVwHgV3r+Nh1XbfZVPH6ABxaNndTgbkw+NTYcYK8ypCpQBMj6cF8M4DEAfrngDtgVAAfsc8sLsG5dU1e27YGyxdzGl9T/LoCDRk6Jc40cweBYY06pAhQBcv1b4P1uH/uiG2OnmTMv/Co/lBnyDi7RBJ8oTGUUsvCAzWeObJDT5oQj5CLNokERIGvvnCcAOHnghuIThrNatx55w/EyDoS5hGLMnD/3pnBATFBCZGXhOqkjR9i6gwODvscqDwPAc9aLKgJkbbj4ZX5nAENHhnXz+tyJuGxcwlc2/vXm78qJdwXzfHWgMIvk1MK+Od44bUTFQxwcm4+4ds4l3LLAbc48baqYIkAWh4r7TrisflV5hPsOw4E8fxzkc7k2p4ZPB3DdqgZW/H/OdBEU5iO+78i2TnBZXFYdI8C9+Xyd4lMxVdluYCIkVf+T+xEgw5JxrwpXqVopTL9JULgEfai8BsAbRxjMrQKE48Yjrg15Ccc2V4dsMHZbAmS5wlwWwR10lk4/4uwSQXlUz/SfAeCr0tDYqbv0gQ4MrrtKXbgB6vGpO53bnwBZrSC/OnN25/zVlya9gt9TOD65CABtZPbBZYVPDP42Tmrl+s54/uSYMVEm8xZ3K0DGh4Pv9sw0/vnxVa535d0A8C99jpOTuN5q7ncNT7f/X+2kzP172y5ApkvHRXrHuL/ai768dy1yoxX/anY//nd+tefSlZRpbCwcs/3Q3AfhTA/zuhoCxFe5dfX+4p4KPNaYsBAK/vgN4+ZLmuZ3hwvndT26NmHkeqpc5TgAPJS1yCJA8oSNyQ64DyNF4T6MVYP3mHbw2Ly5uxRj2re0bQGSR3rO5qRMa8Mv828BEHO91yIlmU+XfRdbBEj60DE5AT8wpi7cOswn1/MTdpz1fMEQfgqQECpOa4Nw5MzgwWU0BCXmuisqMmXfyTQFE14tQBKK7RYsxspIONWTpzpQhvIiT22vf/2/XL7lVBMRc2zVGCSaetMa/j6Ax07Y5jqtdb+r+dGQTxP+pqxQXtUbVy5b+UOwylYBMkuhMJU5i8Mct5eFaS54K9xrTkgODtAyU/rwqbTsG1GAbtI0oVes+Dqf6s75ZiYQ62VHB8qcr+78EMp1YVUUARIvjFe4zVVvCJyQLZ7F61tmPmI+UbiLckrhKVBcls+UrVUUARI+jASj22aa4iyT8B6sb5GnAxMUbgkeU1Jl3R9jS5BrSgeE66JyF+4W5G45HhdAOM5LdMhPKr+7Yw4IyrJURb91Tw+r4ywvvWoAJGZmRS9RK63E4yYIyVCOrNdnXvMVRXYBEkXWqhvlMhmC0t/ZeLRLY1qd4wKkupAmc2hfl4SB33dSLt9P5iA7Kh0QZglnQjQVKRBFgdIB4UpRrhhVkQJRFCgdEG5jTXGGehTx1ah9BUoGpIrVovZvkbYtLBkQbmktYflG23dY4d6XCgj3OHOvs4oUiKpATkD2AnD8RO94LjrP8Yh9PvpEs3R5rQrkBIRp/rlPejcATNY8VLiM4+vuEBuOO1SkQDIFcgLSOckTlriMYVHhup5Lk6mhjqTABgpYAERBkQJmFRAgZkMjwywoIEAsREE2mFVAgJgNjQyzoIAAsRAF2WBWAQFiNjQyzIICAsRCFGSDWQUEiNnQyDALCggQC1GQDWYVECBmQyPDLCggQCxEQTaYVUCAmA2NDLOggACxEAXZYFYBAWI2NDLMggICxEIUZINZBQSI2dDIMAsKCBALUZANZhUQIGZDI8MsKCBALERBNphVQICYDY0Ms6CAALEQBdlgVgEBYjY0MsyCAgLEQhRkg1kFBIjZ0MgwCwoIEAtRkA1mFRAgZkMjwywoIEAsREE2mFVAgJgNjQyzoIAAsRAF2WBWAQFiNjQyzIICAsRCFGSDWQUEiNnQyDALCggQC1GQDWYVECBmQyPDLCggQCxEQTaYVUCAmA2NDLOggACxEAXZYFYBAWI2NDLMggICxEIUZINZBQSI2dDIMAsKCBALUZANZhUQIGZDI8MsKCBALERBNphVQICYDY0Ms6CAALEQBdlgVgEBYjY0MsyCAv8DZQ7t2FCW2mIAAAAASUVORK5CYII=;rotation=15;flipV=0;flipH=1;container=0;" vertex="1" parent="1">
          <mxGeometry x="364" y="715" width="40" height="40" as="geometry" />
        </mxCell>
        <mxCell id="Ew4Cx2_c2zEZE24tookL-59" value="" style="shape=image;verticalLabelPosition=bottom;labelBackgroundColor=default;verticalAlign=top;aspect=fixed;imageAspect=0;image=data:image/png,iVBORw0KGgoAAAANSUhEUgAAAMgAAADICAYAAACtWK6eAAAAAXNSR0IArs4c6QAAHcNJREFUeF7tnQv4ftlUx7+MxjSRkKI0ozCKkZkuCJNbuZUZUtJVI5eoMEOppnuhKKVMuSSNVC6RomaaMrkkijSEGEJJuUyJmKSk5/POPv/OnHnP+5611j77nPOevZ7nPO/7//3Pvq1zvu/ee+21vusKqlI1UDXQq4ErVN1UDVQN9GugAqS+HVUDOzRQAVJfj6qBCpD6DlQN+DRQZxCf3mqplWigAmQlD7oO06eBChCf3mqplWigAmQlD7oO06eBChCf3mqplWigAmQlD7oO06eBChCf3mqplWigAmQlD7oO06eBChCf3mqplWigAmQlD7oO06eBChCf3mqplWigAmQlD7oO06eBChCf3mqplWigAmT8B32UpE/pXEfv+NsVJf135/r4nr+NP4qVtlABMuzBX0nS50r6HEnXkPQZ6bralu/dvx0zrInQXf8u6UOS2p9937nvXyS9J90favjQC1eASJ+ZXnwA0ICg+/nZB/oifDQBBbC0r3/q/PtAh79/WGsByFUk3ahznZD+fex+Na3+jrdK4roofTb/fv+ha+bQAHJtSSdvAQNLoyr5NfDBLaB5k6S35G9qmhqXDBBmhS+XdPP0yffjplFjbbWjgf+SdKGk13c+L1mappYEkC4Ybrw0Zdf+6m0twACeP5PEPmi2MmeAnCTpjpLulK7ZKrF2LKSBl0s6T9IFkv4yVNMIhecEEDbNt5b0lQkQdd8wwgOfeZXvS2B5hSQujAKTypQAuWaaIQAF15dOqona+Bw18FpJfy7pXEnnT9HB0gC5jqQ7S7pL+uTArUrVwBANvFHSi9P1yiEFctxTAiDHJzA0wKjnDjme3LrreHULLGz2R5OxAMJJ9D1bswWuGlWqBsbQwEskvUjS8yXhAZBVcgPkCyWdnq5rZe1praxqYLcG/lXSMyWdk85fsugrF0A4o2iAUcI5L8vgayUHq4EGKJiOQxIFyB0SML411ItauGpgHA2wqQcsz/NW7wXI7SU9TNJp3oZXVu6TkpqYjnZsR/dvzb9RDzEk3biR9r/b34k5qdKvgVdJekpafpn05AHIT0s6y9TK8m/Gt4gN4LvTJ9+Jt8BNou/6SOv/PjayCljWNjEq2z7bMSr8Py7+nyUJN/4rj9y3OVX/dEn3t3TIApDPk/RcSbe0NLCQe3nh3956+dtA4PsHFjIOTzcBTAMWANP9jkfD9ROoPPXPrQyu+mwJOITcK0MB8mBJv7K3tnnf8I4Egr/vfAIMZogquzXw6QkogKW5viB9v94ClfcoSY/b1+8hAPkjSXfdV9FM/p81PCeuxCQ0n/jzAAL2AVXG0QB7IECDPx0uQ801d386nCR3vtv7APIESWeMo9NwrV0g8G/cqavMRwO4FrUBw/e5geaJkh7ep7JdAGGd9pvz0fVmzUj8wJ+ka0Zdq10xaADQsI/F9YhwhhsYyo51632TOfhy9fcB5GuSr8tYHRpS7xsk/UVyewYUh7xRHqKPQ70HrgDAQpgDXt2ETU8hpyaXlcu0vQ0gX5FezNKdfG+aGV6W2v+70h2o7c1CA5yx3SaBBeCUFEBKHMoR6QIE/ykivPCpKiFsnpkd8PXnc9bhlyUUUtu4jAZulpxe7yGJ72ML7yNOtuxnN9IFyEMknT1yL/6mtY/405HbqtUfjgbuJgmg8AJz0DmWYJh6RB9A2ATfboSW/1nSs9NB4+zijkcYb61yPA0ADkACWABNbuFdvamkf+vOIAADgOQUwiUBBhfuyFWqBnJq4GslPVDS3XNWKum7m4Px9hKLpRVLrKhAvPw7CRTEElepGhhbA7mBwj78tu0ZhM05p8/RIKefSODA36VK1UBpDeQECha085sZJMfmnBNSWMOrVA1MrYHvl/SzwU48Q9L9GoD8mqTvDFR470hQSqDdWrRqoE8DvM+81155s6SbNABhzXWKs6anSnqQs2wtVjUwpgbwsfoFZwN4eF+tAQhLI+8RP6eexXiKnIOtxdapAZwjB8V99KhnM4MAjMjegY39xevUfx31AjSAD5/3YPFUAMLSiiWWV/a5zHvrreWqBnJoIHL4fQYvd3QzUwGS4zHWOsbSQAQgT+Ll/nFJPxboXQVIQHm16OgaiADkXF7un5T0I4FuVoAElFeLjq6BCEBeyssdpfGpABn9GdcGAhoIA+Sxkn4g0IEKkIDyatHRNRAGCEfyHM17pQLEq7laroQGwgB5vKRHBnpaARJQXi06ugbCAPl5SWcGulkB0q888qLAsWu5CBfou/6n5/8Cj+/gi4YBgq9KLy/QAPUdMkDgreUUFm8BPuG4bS4oO/d9L5U46EOSLBe8wpwwc31wwDNe8i1hgECc9dCABpYGkKtKgjKTLFi8+M3VAKH9N+g2D12YlRqw4DLUfO/+7Z2S/mGByggD5JclfU9g4HMEyHEJBAChe0WDwgKqWnxR6FsByrvSZ/s7fyOee24SBgik1JBTe4VlxCe8hYPlPl/Syek6KXHDAohSS5tg9w+uOC7iAAUK2AslwWDDBZCmkjBAnhyM5yBr7X8WGP0XSwIEAKL5ZA9QZf4aYH8EUBrQ8AlzZgkJA4SApwcEespmFQXkFMJ3YXiE6e5WCRQ1i1JODU9fF6sOQEP2J9hvSO38jyN0KwyQaLgtSVfeHxzYiZJIBHqLBIovCtZXiy9TA+Rugfrzr1KgE8FO0bQVYYD8ekrE6VUpmaes+amxIEH8RTTizdNG2tt+LXe4GuCHtwHLC53pncMA+Q1J0L97hcQpZG8aIg0jHp+YW6tUDVg0QDIngPJ7hijWMEDIARJJ48xy6C07RskM0XCqliLFtii93rs8DXBeA0gAC6DZJWGA/Jakbw7oCNbtbRYJmE6+ISVJCVRfi1YN7NTA6xNQWAlhYu5KGCDQhN4n8BDYXLeZIziVJ4wXs2yVqoFSGrgk8WCdI+l1rUbDAHmOJIjfvEJWIDJBcRrPRcagtQgPBb8mLkzd7c/m7+1P/J44TIM5nNzpnCF9avokFdmNk+IgLSNXBfVzxsR1tKSrp+sakrj4dzsvepMPvZ0XfQ3uMt337QWSnpLyzoQB8jxJXx94o09PMe1LTAXcHjYvLFaT96VPvjdX8zde8DYI8LodIljr7pRSjbEniwizNcmGyK0CH9m+FNa4AjUgaoCDuw350Jur/W++A75DEGaSDwdSemxCbp8v6esOQRs7xoDj3bvTQRSHUc13zNMNCFBkLiG/BKCAUgkS5LFeOGYWwMJBG2BhJs8huOoAHsACbxqm/G0XM+AhywYgWAJOO4BR8uI37gx8bwOhhCsMKvy2ZBFktphCMJZgleRi1htbrtkBDib/L0vXIYBnA5A/GCEBydgPhgSfbd8evk+VoAdPAoDBNRfDBOBogFLK56n7zNlPNWBpPgkcW5JsAPJiSaR9nqv8rSTStjWeoXyyX5haAEMDDEAyVwEoz0ob1qn7yJFAFzRT92lX+xuAcNBy1xn1kk0wVKjnSfrDkRzYosP9UUkkC1qS4HN3Vga/udxjvqOkr0oZnXBQnZNsAMKLWDofdVcJr0mgwCQHKOYqPECA8dVz7eCefjEb/1BaNcxxCFjZAAwGjlsmj+4p+7kBCDnKp3jgf52y3rIH2uWqMqWC2m1DjQQ4jplLhwL9gCwwwqYZaNpU9LqS7tByVTIVznDzBiAvSZ3IUN/eKv5XEgeTXL+/9+553ECAFvSs5L87JME8zJKL2XsJgh9f4+waPUsaOt4NQCInjUMbIlb5aQkYWKCWIng5Q2pxqJGLnP2Q8phN/JKEZRjeH6SAHlPOAyBRZ8VdHWyAwbF/JEnPmEroq/tRkn5mioYnaBP/Ocg7liZkkAIkYwHl7Bzs7n1KhdKUX9+lAYPx/KKkhxV8Wwg/bU70PyoJszHXVQr2AcvcTxVsL2dTAIU9YsSncFt/zgQg3yGJlLe5BN+un0uRYLnqLFnPsyV944gNcnDH+p/zp8b3q++QE4A0YCGxPeZ4b7LVIUN6gqRHDLlxpvd8e9pXnZCpf6flSMHW9OUjifyBF2ypgon5bpk7z+zwuynWGmBcFKwf944GKBzwEr6cUwjBjqQEz9kXT13o5wczAf1EAAKDyHs8PWmVYf36fQM8S4PNjFo8t0cBG2BmZl64sdw9cCjEm/p+iRMsl4KeGQzDztWPSD23S17mfHrl2IYVEddpLANWIWaBdR/uH0sWXEZ4KXLIexMoAAYsHSXk0xJIAAtm6RyCdQtSwaULS0ZSDFo5EF4q6fYNQO6fzLBWZeCmwstFANBSBae6N2XqPGGfHCZuC/3M1MTearC+kRCJGJCI4PKDCwgHuksVZg8MD5zMW2XzA9EAhF8g3BCg8rQKB01YEEDc0oS4B6L3bhjsOIAAGABkDnKTBJIIGQfj+GNJd5nDgBx9IDkts4fHEsi+8ToQebeJpx+d/HQcfdkUYWO0tHODJ6WDMu+YKTeHWaOv/1jjcCkBMF7BiyCSBdnbbqRcNEqWkN170YE2QGA3ZBaJCNGJkfDdSNvWshyOcU4TEc5KfilSQYGyLCGfGwQJbjZzdiJt1EgKCzzBo8ycmIsJE7gMQPg3MwBr2IiQQwIK0RIRbd5+spFtM1946rn7jL1iu+OJggRd8UzJJTJXIc4kh18Zlkesghvp5vZgY0d8c2RKburGoSxHh8d4INGlFfph77IkiYLkjORhMMcxEy+fg/ga1yj0dISMfVvyGzZ2m+klg0BVM5T5I0Nzg6pAAVhmvG7r0PTMIaJx0GA7NzF2zns8xhhM1swiU4U2942X54hHgtWMu60+4n1gmT8ifdmhcrlb4NIO7eicJJK0lLOiC+Y0GEdfvknSbzvKUQRLHdahOQkbatzgo7J1bH0AYZPDwRnruqgQc/CYaCWZypN9ivW0x30db4FILsdMQ8hSjdcZk9mDWaTUAei+wUYT0Db1M6uyp7yc7MoviE8LIMnhm/QtgV+tfUqy/L/XlP0iSadaGpr5vZx7ESjHy24VwMV+ZGrBX4w4+6iwH/3evkqGJOB8entX7+wNOR48D8PZ3NZiOPWx97AykGD6xikQsrlDEpaLuBhZBUsWzzJqBbS2273/ZSnZkrceDgM5SNxp6h8CEDrg/eVtdx6XlCkj1+AN9gQFHYpP0rYXybvUmvpQmNk8ErLNDyXuOHt/IIYCBOUSlMLBGC+6RwjtJQB/KvEQ5BEe/CULtlrt0zXWLKw2eAVbBCacKamiCB/YnHQ7hFglPM8HiQUgTYVYMbyuB3AAk/iktLCfwsaN2dki+Jg93lJggfdCA8QKwSKYuQHVf1gKZboXU6yXg9hshfMAhHHiXtG7sdmhiF5rQSbl9VXjiZrk4InZY252/9yqYsPOLIKrkUWm+rHzmukJVjNzJnsBgiLx7yGDlEVwoWaT/HFLoQz3epzXzL82Gfo5VRUsndmPWIRYEfZnpYUsuFb3deKV+LEzSwQgNPZGh1sKuc8ZZEnBdcCaSKabOatkf0u35XFUhewv6hRoHSezHTlarCTYbr+5KEA8+xE2SGyUSgnTKnENFoEsG+rLNQm5/qzs9Mdn8oEaqmePaTp0hhUFiCcar7RLPGC0MnVgAoS2aE2CMeKRxgGT/JUcl6XEY1Bwzx4MKgoQ6rAyM5LVCe/LUmLtH/0C+EtigMyhS89MW3qfxtmH1aOBDFnu0IscAPEss9io44FZQqwAIT7datEpMY4SbXzS2EhpgBBrdJyhj4RCezyXjzSRAyAExvMSWgQyAHyBSogVIBs2ixIdm2EbuF9c0dCvkuG4GFmOxGkM7CNRkCHS8RwAIUGl9azg4ft8YAYqYMhtFSBDtHTpPfhZHTX8dpVMo3CrlKjU0D09NsizkGUPQofZV1gY/vDCfIBlpIF7K0CGK4/zKYsJlRP4Hx5efejOB0l6srGGsBEhxwxCn61p3EqaUStAhr9V5Fy3uOOEf6GHd23jaIrDqUXYS4Y4z3IBBJMofktDBQZzD1/R0Prb91WADNca6bItociQfODZW0Ksz5FkTZbl4tYx5AIIAVFWV/ZbB5zOLA/Eqtg1b9IvkUTM/VB5XAYWnCFtAVprrvsLc9Cw5gIIJ7CcxFqEWYcDubFlzgDhweM2ThjAjSSRZgyjB4wpLA1YimL7L5VjBYZ+3DmGCoeLlpXD0Hq798HueK6xMMQj8FuFJBdA6ITVhs5LkINeaJ8C5ggQkqbCHoNH7JClJu4SL0yk2PvGG/l/3NeH9KdpA89a6+m7p38evrYspH45AeIJgcTfiV/JMWVOAMGDgF9c62az0Q9BXyxrXjmSwqxOnaUS7hCyjfOoRXCkDGdPzgkQbOIwmFikxEnsXADC8olZgKVUVCAsIL1CbsFT1sIKX4LAAb1Z3X7elitfSk6AeHx5SpA5zAEgkJq9QxLcsbmEpQ1LnJxCGourGyokcG7sXI4wqDBTWYSksd9lKdB3b06AYP1AwRYzIf3CrWPM1AlzAIh1fzb02Z4pCW6oXHKxJMKTh0oJrjDr86PvBPIRtx6WnAChM55MVTxgHvRYYlVwbjPvmGm2MX0SI/GqTMr7gHGWOzuwnxrSZfidrXtULHGkFcwSL58bIDivkY/CIiw9WGeOxeE7JUA8+zKL7rgXKlRP+rxt7eAWbmE4GTvs1qM/DBmnWZVYYolFG3eWBCWMVcgpQiDVGDIVQKBJeu0YA9pSJ35KT83QFvkVLcR6+EY9OEO7fVVA2mcNPcBCyMyWRXLPIHSK9Amcklsky6FOT4NTAYSN4gMtSgjcCxFaDh5lqJFIPTZUsm2GtzRIJCCzgUUgBSHYLdvB6hgAgekCvlOL4DcD64T1NH5IG1MApOTs0eggxyxCOnDW70PlaSP+CHBybs2PCE0uCWmzyRgAwVWCqdGiaAY0lslwCoBATMGBXklx8T51Ogj/8HUNnR4rbIHciqTgsAocyniWZ5MxAELnPEQJWB+YRTjkySlTAMRDc8qYWeJwSm7lG2v0RThqhGQbsjwLXwCHlRxa5hYsibc1VurmvtrVzlgA8S4xxnCfngIgrIWtOUjaXgUABGI+q8B2aV3ettsghhsqn6FCht/Th9488D4PCyZVE7hlpVDd26WxAELDHoJhiByYRVgL55LSACGykghLi2DYOKVTwEOGEfWNwuRuITk4RxIvdE7x+F3R/ihMNGMCxEtRn/vgsDRAPCQWbCzZYLYFaxIvrMUzIfqLTuYosnANldzWRxw5PXxkvyrpIUM7bblvTIDQDxgNzYTBiYkiV17u0gDhZce6Y5G+rLk46XGIOlRCLIJp/3eDoY2lIDlvOoxuMzhxMpNa/dVgmufEHcNQdhkbIPeW9BxHr3EvYJNGjHRUSgPE8yvYlzkXmn/o/ocKrj7EmnjlIkk3NBQmGSjRpDnEm8ks94rjMmMZGyA05okToVwuxozSACEIyuoV0DeDWM2u/BjdJ/C2Ej9hcceHdhTmkKh4l+MYQ4gTeXu0A33lSwDkvpJYG3uEUFQrKV23ndIA8YQfbzvk81gCo2tx65IuCsjmWXm8Lyg7OqtKCYAwEK9lgqUWMdsE8nilNEBYLkF+YJFtriIeV5XorEscPNagoYIpmkO9iHjzJOI3xuxhtRia+loKIF7bNoMhFTWzkFdKA4R+evKmkOSHfPKYuHHX8aS5I2W3ldygrVdrvzHlew81aRfLk9excIyAscu9Y6UAQsPPCNjMI4dAUwAEF4wxTph3/UgQrGYJdtpW1xsk3dTwS/SCQDJNXPQBs4XJsekavM7wO48uJQFyvbSf4NMj3iixKQCSK8m9RU8EZsGUEhG4pG5mqICErBglrII7C+DwstoUIz8vCRCUGFlq4afEfoRfOYtMARAO+YgFsTpsWsbVvTeUKCZVhj/TSYZOwNl1D8P9za1Y+TzAonwpqqFNX0sDhDYjSy1+4XCBtiREmQIgjNPjKuJ41zZFogeETbsYCyzJLj3Re7ineAndMCKQ45LlZBGZAiDRpRaHZ5aArKkAUnIWyTF78MIx62FeHirWtN5EIGLS9gpLSJaSxWQKgDA4Boofj1csm7SpAJJjnEP0k5NZxGqOtySoic6oY0Yv9up5KoDQIUyaEWbwoY5yUwKEcZIsKCc1T/thcpJs4bHaBzjOnfBrGipstDEt75N7SsLi5RX6hU/fh70VeMtNCRD6DNNghIFiSIajqQHCOK19GPo8T5bEviyXQB9kSX8NQQeGk13iIZ5u10dSH8CBy1JxmRogxB6g5BMCI9+3xLC+nLl5sZqhEUIaPXVu6sKpkB+WMPdsR+9W58jzE5NN3+Pzhs626yuZru9y45gaIHSIOGI2exHZFbgzF4AwPk7HWYtHBM8CqG2yEKN1OmL1idrlPcxJN+kRIjJGQJapP3MACB3OQXLAhhHXBeKq2zIngNAvuMNYGlppekiUikeBNU+f5YV4haTbGAr0GUu8/lXtpmG4YWlVKl341mHPBSB0Lrpppw6CZh7a4fqdG0DoJymNseSxwWUG3SWYXtmrMcuOQYvUbtsamoBu8bhuBNIIDBLeQ8CmHtz8MV2PPd69vwVzAgidJaYaNu+IwLGFrR1/KMQKEBz2eGm7M1GkT7vKXit5peJHRTQd3sBw5HK91UH9H+mnVVft/Rq/9k80RkD29ZUgsVdHBpKr7NwAwrgIwokE/TS6aXi2rA+d8i930M7keiZT1QN1qTU1dwMQUiCwrMohY7P9m/o4R4AwgNflSMAoiTX1JyRBpGCVaPCRtb0p74e6x5OQB4BgScuSiyOZjD3czqPpbq4AYcCkij42w8ghpLPk3Ws3WSIDVoYhhqrwsLA0DQIQz4/Ptg5HOb1CSugrPGeA0GcsN1CZTilFvUcLDzQSDp2zq0WCnzwdnjtAGJM1ys2jh31lcOvGNFsqncG+/kT//6iUx8UTtRhtu1u+uAOiZQBLAAjj8WSusuhhyL3EmQMSiAKWLLh+cJ5i8YgeY7z4kZEXhrOU2cpSAIICn5WRgynyQLCKwX8bcb6LtO8tC2s7JvQx090N7RuBWcwcbx5aYKr7lgQQdORhjR9Lt9jpiU0AuPwazlXIF46VimhOzlymFn5YMCcXC3qKDHhpAGGsHAKSe4PT6DkIp76cdOP6HWEUyT0WvGxxaAQYV85dubM+vCXOcpadpNgSAYKibpFIjq05JMZWMgx/DVA4bMRUXVIARXNZOHbH7iOzBcs7HC0XJUsFCEo+Os0kYyey9z5QgnuIr8BDFhLv13gr6inHngKXDAKcYHOEjcSSgDNzd3qrw4UecBCtuDhZMkAaZWPLZ8llSV88xYPCCsapM/SefHLB1MJBJq7rfHIRIHTVdHHAyXd8tGB552JPwaeVBX2KMXM6DziKRwLmGuwhAARd8OtJfvZ75VJMrSekAfZl/GhFsl2FOpCr8KEApNEHaZex8Vvy7OXSZa3nUg0ACsARyZU4G10eGkBQLGG8WEpKU3/O5qFO1BGy7BJByOfByCECpHk4xEMzm5x4ME9rngM5mOXUNvUeMkAYL5Q4WLk4mCpJAzrPVzlvrzAosJziypl0NW8vg7UdOkAa9cByyAFjBUrwhUnFiYuHTWb2riLR4a4FIBUo0Tfl0vJEezJjcLaxClkbQLpAwSxc9yi7X3Vi/EmUQxq9ObnSFAHoWgHSVi4MHLhdAxZO56tcqgEYG0lTADhyE9QtRscVIP//qPBdAihcFobzxTzsAR3ltL8BBakNVi8VINtfAYKKyDdOJiP8nA5ZSJB6QQpcYgn1rkMerHVsFSD7NYZDYAOWU/bfvog74NtqQMFnJIvwIgbs7WQFiE1zpEhmVoEBHS/a69uKT3b3xYmIjQxShLhCh1RlgAYqQAYoaccteNayX2GWITXYXCxinG4DAlztAQVkE1ijqhg1UAFiVNie26EoYmYhzdzx6ZPvXNfO25TYUL9zywWfLX+vkkEDFSAZlDiwimMSUHB54XvfdSVJH9txEVsBACyJTAd2sd7W1UAFSH0nqgZ2aKACpL4eVQMVIPUdqBrwaaDOID691VIr0UAFyEoedB2mTwMVID691VIr0UAFyEoedB2mTwMVID691VIr0UAFyEoedB2mTwMVID691VIr0UAFyEoedB2mTwMVID691VIr0UAFyEoedB2mTwMVID691VIr0UAFyEoedB2mTwMVID691VIr0UAFyEoedB2mTwMVID691VIr0cD/AfpXkG2phpxuAAAAAElFTkSuQmCC;" vertex="1" parent="1">
          <mxGeometry x="590" y="47" width="30" height="30" as="geometry" />
        </mxCell>
        <mxCell id="Ew4Cx2_c2zEZE24tookL-60" value="&lt;font style=&quot;font-size: 18px;&quot;&gt;前大厅&lt;/font&gt;" style="text;html=1;align=center;verticalAlign=middle;resizable=0;points=[];autosize=1;strokeColor=none;fillColor=none;rotation=90;" vertex="1" parent="1">
          <mxGeometry x="300" y="115" width="70" height="20" as="geometry" />
        </mxCell>
        <mxCell id="Ew4Cx2_c2zEZE24tookL-61" value="" style="shape=image;verticalLabelPosition=bottom;labelBackgroundColor=default;verticalAlign=top;aspect=fixed;imageAspect=0;image=data:image/png,iVBORw0KGgoAAAANSUhEUgAAAMgAAADICAYAAACtWK6eAAAAAXNSR0IArs4c6QAAHcNJREFUeF7tnQv4ftlUx7+MxjSRkKI0ozCKkZkuCJNbuZUZUtJVI5eoMEOppnuhKKVMuSSNVC6RomaaMrkkijSEGEJJuUyJmKSk5/POPv/OnHnP+5611j77nPOevZ7nPO/7//3Pvq1zvu/ee+21vusKqlI1UDXQq4ErVN1UDVQN9GugAqS+HVUDOzRQAVJfj6qBCpD6DlQN+DRQZxCf3mqplWigAmQlD7oO06eBChCf3mqplWigAmQlD7oO06eBChCf3mqplWigAmQlD7oO06eBChCf3mqplWigAmQlD7oO06eBChCf3mqplWigAmQlD7oO06eBChCf3mqplWigAmQlD7oO06eBChCf3mqplWigAmT8B32UpE/pXEfv+NsVJf135/r4nr+NP4qVtlABMuzBX0nS50r6HEnXkPQZ6bralu/dvx0zrInQXf8u6UOS2p9937nvXyS9J90favjQC1eASJ+ZXnwA0ICg+/nZB/oifDQBBbC0r3/q/PtAh79/WGsByFUk3ahznZD+fex+Na3+jrdK4roofTb/fv+ha+bQAHJtSSdvAQNLoyr5NfDBLaB5k6S35G9qmhqXDBBmhS+XdPP0yffjplFjbbWjgf+SdKGk13c+L1mappYEkC4Ybrw0Zdf+6m0twACeP5PEPmi2MmeAnCTpjpLulK7ZKrF2LKSBl0s6T9IFkv4yVNMIhecEEDbNt5b0lQkQdd8wwgOfeZXvS2B5hSQujAKTypQAuWaaIQAF15dOqona+Bw18FpJfy7pXEnnT9HB0gC5jqQ7S7pL+uTArUrVwBANvFHSi9P1yiEFctxTAiDHJzA0wKjnDjme3LrreHULLGz2R5OxAMJJ9D1bswWuGlWqBsbQwEskvUjS8yXhAZBVcgPkCyWdnq5rZe1praxqYLcG/lXSMyWdk85fsugrF0A4o2iAUcI5L8vgayUHq4EGKJiOQxIFyB0SML411ItauGpgHA2wqQcsz/NW7wXI7SU9TNJp3oZXVu6TkpqYjnZsR/dvzb9RDzEk3biR9r/b34k5qdKvgVdJekpafpn05AHIT0s6y9TK8m/Gt4gN4LvTJ9+Jt8BNou/6SOv/PjayCljWNjEq2z7bMSr8Py7+nyUJN/4rj9y3OVX/dEn3t3TIApDPk/RcSbe0NLCQe3nh3956+dtA4PsHFjIOTzcBTAMWANP9jkfD9ROoPPXPrQyu+mwJOITcK0MB8mBJv7K3tnnf8I4Egr/vfAIMZogquzXw6QkogKW5viB9v94ClfcoSY/b1+8hAPkjSXfdV9FM/p81PCeuxCQ0n/jzAAL2AVXG0QB7IECDPx0uQ801d386nCR3vtv7APIESWeMo9NwrV0g8G/cqavMRwO4FrUBw/e5geaJkh7ep7JdAGGd9pvz0fVmzUj8wJ+ka0Zdq10xaADQsI/F9YhwhhsYyo51632TOfhy9fcB5GuSr8tYHRpS7xsk/UVyewYUh7xRHqKPQ70HrgDAQpgDXt2ETU8hpyaXlcu0vQ0gX5FezNKdfG+aGV6W2v+70h2o7c1CA5yx3SaBBeCUFEBKHMoR6QIE/ykivPCpKiFsnpkd8PXnc9bhlyUUUtu4jAZulpxe7yGJ72ML7yNOtuxnN9IFyEMknT1yL/6mtY/405HbqtUfjgbuJgmg8AJz0DmWYJh6RB9A2ATfboSW/1nSs9NB4+zijkcYb61yPA0ADkACWABNbuFdvamkf+vOIAADgOQUwiUBBhfuyFWqBnJq4GslPVDS3XNWKum7m4Px9hKLpRVLrKhAvPw7CRTEElepGhhbA7mBwj78tu0ZhM05p8/RIKefSODA36VK1UBpDeQECha085sZJMfmnBNSWMOrVA1MrYHvl/SzwU48Q9L9GoD8mqTvDFR470hQSqDdWrRqoE8DvM+81155s6SbNABhzXWKs6anSnqQs2wtVjUwpgbwsfoFZwN4eF+tAQhLI+8RP6eexXiKnIOtxdapAZwjB8V99KhnM4MAjMjegY39xevUfx31AjSAD5/3YPFUAMLSiiWWV/a5zHvrreWqBnJoIHL4fQYvd3QzUwGS4zHWOsbSQAQgT+Ll/nFJPxboXQVIQHm16OgaiADkXF7un5T0I4FuVoAElFeLjq6BCEBeyssdpfGpABn9GdcGAhoIA+Sxkn4g0IEKkIDyatHRNRAGCEfyHM17pQLEq7laroQGwgB5vKRHBnpaARJQXi06ugbCAPl5SWcGulkB0q888qLAsWu5CBfou/6n5/8Cj+/gi4YBgq9KLy/QAPUdMkDgreUUFm8BPuG4bS4oO/d9L5U46EOSLBe8wpwwc31wwDNe8i1hgECc9dCABpYGkKtKgjKTLFi8+M3VAKH9N+g2D12YlRqw4DLUfO/+7Z2S/mGByggD5JclfU9g4HMEyHEJBAChe0WDwgKqWnxR6FsByrvSZ/s7fyOee24SBgik1JBTe4VlxCe8hYPlPl/Syek6KXHDAohSS5tg9w+uOC7iAAUK2AslwWDDBZCmkjBAnhyM5yBr7X8WGP0XSwIEAKL5ZA9QZf4aYH8EUBrQ8AlzZgkJA4SApwcEespmFQXkFMJ3YXiE6e5WCRQ1i1JODU9fF6sOQEP2J9hvSO38jyN0KwyQaLgtSVfeHxzYiZJIBHqLBIovCtZXiy9TA+Rugfrzr1KgE8FO0bQVYYD8ekrE6VUpmaes+amxIEH8RTTizdNG2tt+LXe4GuCHtwHLC53pncMA+Q1J0L97hcQpZG8aIg0jHp+YW6tUDVg0QDIngPJ7hijWMEDIARJJ48xy6C07RskM0XCqliLFtii93rs8DXBeA0gAC6DZJWGA/Jakbw7oCNbtbRYJmE6+ISVJCVRfi1YN7NTA6xNQWAlhYu5KGCDQhN4n8BDYXLeZIziVJ4wXs2yVqoFSGrgk8WCdI+l1rUbDAHmOJIjfvEJWIDJBcRrPRcagtQgPBb8mLkzd7c/m7+1P/J44TIM5nNzpnCF9avokFdmNk+IgLSNXBfVzxsR1tKSrp+sakrj4dzsvepMPvZ0XfQ3uMt337QWSnpLyzoQB8jxJXx94o09PMe1LTAXcHjYvLFaT96VPvjdX8zde8DYI8LodIljr7pRSjbEniwizNcmGyK0CH9m+FNa4AjUgaoCDuw350Jur/W++A75DEGaSDwdSemxCbp8v6esOQRs7xoDj3bvTQRSHUc13zNMNCFBkLiG/BKCAUgkS5LFeOGYWwMJBG2BhJs8huOoAHsACbxqm/G0XM+AhywYgWAJOO4BR8uI37gx8bwOhhCsMKvy2ZBFktphCMJZgleRi1htbrtkBDib/L0vXIYBnA5A/GCEBydgPhgSfbd8evk+VoAdPAoDBNRfDBOBogFLK56n7zNlPNWBpPgkcW5JsAPJiSaR9nqv8rSTStjWeoXyyX5haAEMDDEAyVwEoz0ob1qn7yJFAFzRT92lX+xuAcNBy1xn1kk0wVKjnSfrDkRzYosP9UUkkC1qS4HN3Vga/udxjvqOkr0oZnXBQnZNsAMKLWDofdVcJr0mgwCQHKOYqPECA8dVz7eCefjEb/1BaNcxxCFjZAAwGjlsmj+4p+7kBCDnKp3jgf52y3rIH2uWqMqWC2m1DjQQ4jplLhwL9gCwwwqYZaNpU9LqS7tByVTIVznDzBiAvSZ3IUN/eKv5XEgeTXL+/9+553ECAFvSs5L87JME8zJKL2XsJgh9f4+waPUsaOt4NQCInjUMbIlb5aQkYWKCWIng5Q2pxqJGLnP2Q8phN/JKEZRjeH6SAHlPOAyBRZ8VdHWyAwbF/JEnPmEroq/tRkn5mioYnaBP/Ocg7liZkkAIkYwHl7Bzs7n1KhdKUX9+lAYPx/KKkhxV8Wwg/bU70PyoJszHXVQr2AcvcTxVsL2dTAIU9YsSncFt/zgQg3yGJlLe5BN+un0uRYLnqLFnPsyV944gNcnDH+p/zp8b3q++QE4A0YCGxPeZ4b7LVIUN6gqRHDLlxpvd8e9pXnZCpf6flSMHW9OUjifyBF2ypgon5bpk7z+zwuynWGmBcFKwf944GKBzwEr6cUwjBjqQEz9kXT13o5wczAf1EAAKDyHs8PWmVYf36fQM8S4PNjFo8t0cBG2BmZl64sdw9cCjEm/p+iRMsl4KeGQzDztWPSD23S17mfHrl2IYVEddpLANWIWaBdR/uH0sWXEZ4KXLIexMoAAYsHSXk0xJIAAtm6RyCdQtSwaULS0ZSDFo5EF4q6fYNQO6fzLBWZeCmwstFANBSBae6N2XqPGGfHCZuC/3M1MTearC+kRCJGJCI4PKDCwgHuksVZg8MD5zMW2XzA9EAhF8g3BCg8rQKB01YEEDc0oS4B6L3bhjsOIAAGABkDnKTBJIIGQfj+GNJd5nDgBx9IDkts4fHEsi+8ToQebeJpx+d/HQcfdkUYWO0tHODJ6WDMu+YKTeHWaOv/1jjcCkBMF7BiyCSBdnbbqRcNEqWkN170YE2QGA3ZBaJCNGJkfDdSNvWshyOcU4TEc5KfilSQYGyLCGfGwQJbjZzdiJt1EgKCzzBo8ycmIsJE7gMQPg3MwBr2IiQQwIK0RIRbd5+spFtM1946rn7jL1iu+OJggRd8UzJJTJXIc4kh18Zlkesghvp5vZgY0d8c2RKburGoSxHh8d4INGlFfph77IkiYLkjORhMMcxEy+fg/ga1yj0dISMfVvyGzZ2m+klg0BVM5T5I0Nzg6pAAVhmvG7r0PTMIaJx0GA7NzF2zns8xhhM1swiU4U2942X54hHgtWMu60+4n1gmT8ifdmhcrlb4NIO7eicJJK0lLOiC+Y0GEdfvknSbzvKUQRLHdahOQkbatzgo7J1bH0AYZPDwRnruqgQc/CYaCWZypN9ivW0x30db4FILsdMQ8hSjdcZk9mDWaTUAei+wUYT0Db1M6uyp7yc7MoviE8LIMnhm/QtgV+tfUqy/L/XlP0iSadaGpr5vZx7ESjHy24VwMV+ZGrBX4w4+6iwH/3evkqGJOB8entX7+wNOR48D8PZ3NZiOPWx97AykGD6xikQsrlDEpaLuBhZBUsWzzJqBbS2273/ZSnZkrceDgM5SNxp6h8CEDrg/eVtdx6XlCkj1+AN9gQFHYpP0rYXybvUmvpQmNk8ErLNDyXuOHt/IIYCBOUSlMLBGC+6RwjtJQB/KvEQ5BEe/CULtlrt0zXWLKw2eAVbBCacKamiCB/YnHQ7hFglPM8HiQUgTYVYMbyuB3AAk/iktLCfwsaN2dki+Jg93lJggfdCA8QKwSKYuQHVf1gKZboXU6yXg9hshfMAhHHiXtG7sdmhiF5rQSbl9VXjiZrk4InZY252/9yqYsPOLIKrkUWm+rHzmukJVjNzJnsBgiLx7yGDlEVwoWaT/HFLoQz3epzXzL82Gfo5VRUsndmPWIRYEfZnpYUsuFb3deKV+LEzSwQgNPZGh1sKuc8ZZEnBdcCaSKabOatkf0u35XFUhewv6hRoHSezHTlarCTYbr+5KEA8+xE2SGyUSgnTKnENFoEsG+rLNQm5/qzs9Mdn8oEaqmePaTp0hhUFiCcar7RLPGC0MnVgAoS2aE2CMeKRxgGT/JUcl6XEY1Bwzx4MKgoQ6rAyM5LVCe/LUmLtH/0C+EtigMyhS89MW3qfxtmH1aOBDFnu0IscAPEss9io44FZQqwAIT7datEpMY4SbXzS2EhpgBBrdJyhj4RCezyXjzSRAyAExvMSWgQyAHyBSogVIBs2ixIdm2EbuF9c0dCvkuG4GFmOxGkM7CNRkCHS8RwAIUGl9azg4ft8YAYqYMhtFSBDtHTpPfhZHTX8dpVMo3CrlKjU0D09NsizkGUPQofZV1gY/vDCfIBlpIF7K0CGK4/zKYsJlRP4Hx5efejOB0l6srGGsBEhxwxCn61p3EqaUStAhr9V5Fy3uOOEf6GHd23jaIrDqUXYS4Y4z3IBBJMofktDBQZzD1/R0Prb91WADNca6bItociQfODZW0Ksz5FkTZbl4tYx5AIIAVFWV/ZbB5zOLA/Eqtg1b9IvkUTM/VB5XAYWnCFtAVprrvsLc9Cw5gIIJ7CcxFqEWYcDubFlzgDhweM2ThjAjSSRZgyjB4wpLA1YimL7L5VjBYZ+3DmGCoeLlpXD0Hq798HueK6xMMQj8FuFJBdA6ITVhs5LkINeaJ8C5ggQkqbCHoNH7JClJu4SL0yk2PvGG/l/3NeH9KdpA89a6+m7p38evrYspH45AeIJgcTfiV/JMWVOAMGDgF9c62az0Q9BXyxrXjmSwqxOnaUS7hCyjfOoRXCkDGdPzgkQbOIwmFikxEnsXADC8olZgKVUVCAsIL1CbsFT1sIKX4LAAb1Z3X7elitfSk6AeHx5SpA5zAEgkJq9QxLcsbmEpQ1LnJxCGourGyokcG7sXI4wqDBTWYSksd9lKdB3b06AYP1AwRYzIf3CrWPM1AlzAIh1fzb02Z4pCW6oXHKxJMKTh0oJrjDr86PvBPIRtx6WnAChM55MVTxgHvRYYlVwbjPvmGm2MX0SI/GqTMr7gHGWOzuwnxrSZfidrXtULHGkFcwSL58bIDivkY/CIiw9WGeOxeE7JUA8+zKL7rgXKlRP+rxt7eAWbmE4GTvs1qM/DBmnWZVYYolFG3eWBCWMVcgpQiDVGDIVQKBJeu0YA9pSJ35KT83QFvkVLcR6+EY9OEO7fVVA2mcNPcBCyMyWRXLPIHSK9Amcklsky6FOT4NTAYSN4gMtSgjcCxFaDh5lqJFIPTZUsm2GtzRIJCCzgUUgBSHYLdvB6hgAgekCvlOL4DcD64T1NH5IG1MApOTs0eggxyxCOnDW70PlaSP+CHBybs2PCE0uCWmzyRgAwVWCqdGiaAY0lslwCoBATMGBXklx8T51Ogj/8HUNnR4rbIHciqTgsAocyniWZ5MxAELnPEQJWB+YRTjkySlTAMRDc8qYWeJwSm7lG2v0RThqhGQbsjwLXwCHlRxa5hYsibc1VurmvtrVzlgA8S4xxnCfngIgrIWtOUjaXgUABGI+q8B2aV3ettsghhsqn6FCht/Th9488D4PCyZVE7hlpVDd26WxAELDHoJhiByYRVgL55LSACGykghLi2DYOKVTwEOGEfWNwuRuITk4RxIvdE7x+F3R/ihMNGMCxEtRn/vgsDRAPCQWbCzZYLYFaxIvrMUzIfqLTuYosnANldzWRxw5PXxkvyrpIUM7bblvTIDQDxgNzYTBiYkiV17u0gDhZce6Y5G+rLk46XGIOlRCLIJp/3eDoY2lIDlvOoxuMzhxMpNa/dVgmufEHcNQdhkbIPeW9BxHr3EvYJNGjHRUSgPE8yvYlzkXmn/o/ocKrj7EmnjlIkk3NBQmGSjRpDnEm8ks94rjMmMZGyA05okToVwuxozSACEIyuoV0DeDWM2u/BjdJ/C2Ej9hcceHdhTmkKh4l+MYQ4gTeXu0A33lSwDkvpJYG3uEUFQrKV23ndIA8YQfbzvk81gCo2tx65IuCsjmWXm8Lyg7OqtKCYAwEK9lgqUWMdsE8nilNEBYLkF+YJFtriIeV5XorEscPNagoYIpmkO9iHjzJOI3xuxhtRia+loKIF7bNoMhFTWzkFdKA4R+evKmkOSHfPKYuHHX8aS5I2W3ldygrVdrvzHlew81aRfLk9excIyAscu9Y6UAQsPPCNjMI4dAUwAEF4wxTph3/UgQrGYJdtpW1xsk3dTwS/SCQDJNXPQBs4XJsekavM7wO48uJQFyvbSf4NMj3iixKQCSK8m9RU8EZsGUEhG4pG5mqICErBglrII7C+DwstoUIz8vCRCUGFlq4afEfoRfOYtMARAO+YgFsTpsWsbVvTeUKCZVhj/TSYZOwNl1D8P9za1Y+TzAonwpqqFNX0sDhDYjSy1+4XCBtiREmQIgjNPjKuJ41zZFogeETbsYCyzJLj3Re7ineAndMCKQ45LlZBGZAiDRpRaHZ5aArKkAUnIWyTF78MIx62FeHirWtN5EIGLS9gpLSJaSxWQKgDA4Boofj1csm7SpAJJjnEP0k5NZxGqOtySoic6oY0Yv9up5KoDQIUyaEWbwoY5yUwKEcZIsKCc1T/thcpJs4bHaBzjOnfBrGipstDEt75N7SsLi5RX6hU/fh70VeMtNCRD6DNNghIFiSIajqQHCOK19GPo8T5bEviyXQB9kSX8NQQeGk13iIZ5u10dSH8CBy1JxmRogxB6g5BMCI9+3xLC+nLl5sZqhEUIaPXVu6sKpkB+WMPdsR+9W58jzE5NN3+Pzhs626yuZru9y45gaIHSIOGI2exHZFbgzF4AwPk7HWYtHBM8CqG2yEKN1OmL1idrlPcxJN+kRIjJGQJapP3MACB3OQXLAhhHXBeKq2zIngNAvuMNYGlppekiUikeBNU+f5YV4haTbGAr0GUu8/lXtpmG4YWlVKl341mHPBSB0Lrpppw6CZh7a4fqdG0DoJymNseSxwWUG3SWYXtmrMcuOQYvUbtsamoBu8bhuBNIIDBLeQ8CmHtz8MV2PPd69vwVzAgidJaYaNu+IwLGFrR1/KMQKEBz2eGm7M1GkT7vKXit5peJHRTQd3sBw5HK91UH9H+mnVVft/Rq/9k80RkD29ZUgsVdHBpKr7NwAwrgIwokE/TS6aXi2rA+d8i930M7keiZT1QN1qTU1dwMQUiCwrMohY7P9m/o4R4AwgNflSMAoiTX1JyRBpGCVaPCRtb0p74e6x5OQB4BgScuSiyOZjD3czqPpbq4AYcCkij42w8ghpLPk3Ws3WSIDVoYhhqrwsLA0DQIQz4/Ptg5HOb1CSugrPGeA0GcsN1CZTilFvUcLDzQSDp2zq0WCnzwdnjtAGJM1ys2jh31lcOvGNFsqncG+/kT//6iUx8UTtRhtu1u+uAOiZQBLAAjj8WSusuhhyL3EmQMSiAKWLLh+cJ5i8YgeY7z4kZEXhrOU2cpSAIICn5WRgynyQLCKwX8bcb6LtO8tC2s7JvQx090N7RuBWcwcbx5aYKr7lgQQdORhjR9Lt9jpiU0AuPwazlXIF46VimhOzlymFn5YMCcXC3qKDHhpAGGsHAKSe4PT6DkIp76cdOP6HWEUyT0WvGxxaAQYV85dubM+vCXOcpadpNgSAYKibpFIjq05JMZWMgx/DVA4bMRUXVIARXNZOHbH7iOzBcs7HC0XJUsFCEo+Os0kYyey9z5QgnuIr8BDFhLv13gr6inHngKXDAKcYHOEjcSSgDNzd3qrw4UecBCtuDhZMkAaZWPLZ8llSV88xYPCCsapM/SefHLB1MJBJq7rfHIRIHTVdHHAyXd8tGB552JPwaeVBX2KMXM6DziKRwLmGuwhAARd8OtJfvZ75VJMrSekAfZl/GhFsl2FOpCr8KEApNEHaZex8Vvy7OXSZa3nUg0ACsARyZU4G10eGkBQLGG8WEpKU3/O5qFO1BGy7BJByOfByCECpHk4xEMzm5x4ME9rngM5mOXUNvUeMkAYL5Q4WLk4mCpJAzrPVzlvrzAosJziypl0NW8vg7UdOkAa9cByyAFjBUrwhUnFiYuHTWb2riLR4a4FIBUo0Tfl0vJEezJjcLaxClkbQLpAwSxc9yi7X3Vi/EmUQxq9ObnSFAHoWgHSVi4MHLhdAxZO56tcqgEYG0lTADhyE9QtRscVIP//qPBdAihcFobzxTzsAR3ltL8BBakNVi8VINtfAYKKyDdOJiP8nA5ZSJB6QQpcYgn1rkMerHVsFSD7NYZDYAOWU/bfvog74NtqQMFnJIvwIgbs7WQFiE1zpEhmVoEBHS/a69uKT3b3xYmIjQxShLhCh1RlgAYqQAYoaccteNayX2GWITXYXCxinG4DAlztAQVkE1ijqhg1UAFiVNie26EoYmYhzdzx6ZPvXNfO25TYUL9zywWfLX+vkkEDFSAZlDiwimMSUHB54XvfdSVJH9txEVsBACyJTAd2sd7W1UAFSH0nqgZ2aKACpL4eVQMVIPUdqBrwaaDOID691VIr0UAFyEoedB2mTwMVID691VIr0UAFyEoedB2mTwMVID691VIr0UAFyEoedB2mTwMVID691VIr0UAFyEoedB2mTwMVID691VIr0UAFyEoedB2mTwMVID691VIr0UAFyEoedB2mTwMVID691VIr0UAFyEoedB2mTwMVID691VIr0cD/AfpXkG2phpxuAAAAAElFTkSuQmCC;rotation=90;" vertex="1" parent="1">
          <mxGeometry x="589" y="166" width="30" height="30" as="geometry" />
        </mxCell>
        <mxCell id="Ew4Cx2_c2zEZE24tookL-62" value="" style="endArrow=classic;html=1;rounded=0;fontSize=18;dashed=1;" edge="1" parent="1">
          <mxGeometry width="50" height="50" relative="1" as="geometry">
            <mxPoint x="610" y="50" as="sourcePoint" />
            <mxPoint x="590" y="90" as="targetPoint" />
          </mxGeometry>
        </mxCell>
        <mxCell id="Ew4Cx2_c2zEZE24tookL-63" value="" style="endArrow=classic;html=1;rounded=0;fontSize=18;dashed=1;exitX=0.5;exitY=0.5;exitDx=0;exitDy=0;exitPerimeter=0;strokeColor=#6666FF;" edge="1" parent="1" source="Ew4Cx2_c2zEZE24tookL-54">
          <mxGeometry width="50" height="50" relative="1" as="geometry">
            <mxPoint x="620" y="60" as="sourcePoint" />
            <mxPoint x="470" y="30" as="targetPoint" />
          </mxGeometry>
        </mxCell>
        <mxCell id="Ew4Cx2_c2zEZE24tookL-64" value="" style="endArrow=classic;html=1;rounded=0;fontSize=18;dashed=1;exitX=0.457;exitY=0.475;exitDx=0;exitDy=0;exitPerimeter=0;strokeColor=#6666FF;" edge="1" parent="1" source="Ew4Cx2_c2zEZE24tookL-52">
          <mxGeometry width="50" height="50" relative="1" as="geometry">
            <mxPoint x="550" y="50" as="sourcePoint" />
            <mxPoint x="120" y="30" as="targetPoint" />
          </mxGeometry>
        </mxCell>
        <mxCell id="Ew4Cx2_c2zEZE24tookL-65" value="" style="endArrow=classic;html=1;rounded=0;fontSize=18;dashed=1;exitX=0.333;exitY=0.667;exitDx=0;exitDy=0;exitPerimeter=0;entryX=0.155;entryY=0.333;entryDx=0;entryDy=0;entryPerimeter=0;strokeColor=#6666FF;" edge="1" parent="1" source="Ew4Cx2_c2zEZE24tookL-53" target="Ew4Cx2_c2zEZE24tookL-4">
          <mxGeometry width="50" height="50" relative="1" as="geometry">
            <mxPoint x="80.01043630549066" y="49.993974596215594" as="sourcePoint" />
            <mxPoint x="130" y="40" as="targetPoint" />
          </mxGeometry>
        </mxCell>
        <mxCell id="Ew4Cx2_c2zEZE24tookL-67" value="" style="endArrow=classic;html=1;rounded=0;fontSize=18;dashed=1;strokeColor=#6666FF;" edge="1" parent="1" source="Ew4Cx2_c2zEZE24tookL-61">
          <mxGeometry width="50" height="50" relative="1" as="geometry">
            <mxPoint x="610.01" y="190.01" as="sourcePoint" />
            <mxPoint x="500" y="170" as="targetPoint" />
          </mxGeometry>
        </mxCell>
        <mxCell id="Ew4Cx2_c2zEZE24tookL-68" value="" style="shape=image;verticalLabelPosition=bottom;labelBackgroundColor=default;verticalAlign=top;aspect=fixed;imageAspect=0;image=data:image/png,iVBORw0KGgoAAAANSUhEUgAAAMgAAADICAYAAACtWK6eAAAAAXNSR0IArs4c6QAAHcNJREFUeF7tnQv4ftlUx7+MxjSRkKI0ozCKkZkuCJNbuZUZUtJVI5eoMEOppnuhKKVMuSSNVC6RomaaMrkkijSEGEJJuUyJmKSk5/POPv/OnHnP+5611j77nPOevZ7nPO/7//3Pvq1zvu/ee+21vusKqlI1UDXQq4ErVN1UDVQN9GugAqS+HVUDOzRQAVJfj6qBCpD6DlQN+DRQZxCf3mqplWigAmQlD7oO06eBChCf3mqplWigAmQlD7oO06eBChCf3mqplWigAmQlD7oO06eBChCf3mqplWigAmQlD7oO06eBChCf3mqplWigAmQlD7oO06eBChCf3mqplWigAmQlD7oO06eBChCf3mqplWigAmT8B32UpE/pXEfv+NsVJf135/r4nr+NP4qVtlABMuzBX0nS50r6HEnXkPQZ6bralu/dvx0zrInQXf8u6UOS2p9937nvXyS9J90favjQC1eASJ+ZXnwA0ICg+/nZB/oifDQBBbC0r3/q/PtAh79/WGsByFUk3ahznZD+fex+Na3+jrdK4roofTb/fv+ha+bQAHJtSSdvAQNLoyr5NfDBLaB5k6S35G9qmhqXDBBmhS+XdPP0yffjplFjbbWjgf+SdKGk13c+L1mappYEkC4Ybrw0Zdf+6m0twACeP5PEPmi2MmeAnCTpjpLulK7ZKrF2LKSBl0s6T9IFkv4yVNMIhecEEDbNt5b0lQkQdd8wwgOfeZXvS2B5hSQujAKTypQAuWaaIQAF15dOqona+Bw18FpJfy7pXEnnT9HB0gC5jqQ7S7pL+uTArUrVwBANvFHSi9P1yiEFctxTAiDHJzA0wKjnDjme3LrreHULLGz2R5OxAMJJ9D1bswWuGlWqBsbQwEskvUjS8yXhAZBVcgPkCyWdnq5rZe1praxqYLcG/lXSMyWdk85fsugrF0A4o2iAUcI5L8vgayUHq4EGKJiOQxIFyB0SML411ItauGpgHA2wqQcsz/NW7wXI7SU9TNJp3oZXVu6TkpqYjnZsR/dvzb9RDzEk3biR9r/b34k5qdKvgVdJekpafpn05AHIT0s6y9TK8m/Gt4gN4LvTJ9+Jt8BNou/6SOv/PjayCljWNjEq2z7bMSr8Py7+nyUJN/4rj9y3OVX/dEn3t3TIApDPk/RcSbe0NLCQe3nh3956+dtA4PsHFjIOTzcBTAMWANP9jkfD9ROoPPXPrQyu+mwJOITcK0MB8mBJv7K3tnnf8I4Egr/vfAIMZogquzXw6QkogKW5viB9v94ClfcoSY/b1+8hAPkjSXfdV9FM/p81PCeuxCQ0n/jzAAL2AVXG0QB7IECDPx0uQ801d386nCR3vtv7APIESWeMo9NwrV0g8G/cqavMRwO4FrUBw/e5geaJkh7ep7JdAGGd9pvz0fVmzUj8wJ+ka0Zdq10xaADQsI/F9YhwhhsYyo51632TOfhy9fcB5GuSr8tYHRpS7xsk/UVyewYUh7xRHqKPQ70HrgDAQpgDXt2ETU8hpyaXlcu0vQ0gX5FezNKdfG+aGV6W2v+70h2o7c1CA5yx3SaBBeCUFEBKHMoR6QIE/ykivPCpKiFsnpkd8PXnc9bhlyUUUtu4jAZulpxe7yGJ72ML7yNOtuxnN9IFyEMknT1yL/6mtY/405HbqtUfjgbuJgmg8AJz0DmWYJh6RB9A2ATfboSW/1nSs9NB4+zijkcYb61yPA0ADkACWABNbuFdvamkf+vOIAADgOQUwiUBBhfuyFWqBnJq4GslPVDS3XNWKum7m4Px9hKLpRVLrKhAvPw7CRTEElepGhhbA7mBwj78tu0ZhM05p8/RIKefSODA36VK1UBpDeQECha085sZJMfmnBNSWMOrVA1MrYHvl/SzwU48Q9L9GoD8mqTvDFR470hQSqDdWrRqoE8DvM+81155s6SbNABhzXWKs6anSnqQs2wtVjUwpgbwsfoFZwN4eF+tAQhLI+8RP6eexXiKnIOtxdapAZwjB8V99KhnM4MAjMjegY39xevUfx31AjSAD5/3YPFUAMLSiiWWV/a5zHvrreWqBnJoIHL4fQYvd3QzUwGS4zHWOsbSQAQgT+Ll/nFJPxboXQVIQHm16OgaiADkXF7un5T0I4FuVoAElFeLjq6BCEBeyssdpfGpABn9GdcGAhoIA+Sxkn4g0IEKkIDyatHRNRAGCEfyHM17pQLEq7laroQGwgB5vKRHBnpaARJQXi06ugbCAPl5SWcGulkB0q888qLAsWu5CBfou/6n5/8Cj+/gi4YBgq9KLy/QAPUdMkDgreUUFm8BPuG4bS4oO/d9L5U46EOSLBe8wpwwc31wwDNe8i1hgECc9dCABpYGkKtKgjKTLFi8+M3VAKH9N+g2D12YlRqw4DLUfO/+7Z2S/mGByggD5JclfU9g4HMEyHEJBAChe0WDwgKqWnxR6FsByrvSZ/s7fyOee24SBgik1JBTe4VlxCe8hYPlPl/Syek6KXHDAohSS5tg9w+uOC7iAAUK2AslwWDDBZCmkjBAnhyM5yBr7X8WGP0XSwIEAKL5ZA9QZf4aYH8EUBrQ8AlzZgkJA4SApwcEespmFQXkFMJ3YXiE6e5WCRQ1i1JODU9fF6sOQEP2J9hvSO38jyN0KwyQaLgtSVfeHxzYiZJIBHqLBIovCtZXiy9TA+Rugfrzr1KgE8FO0bQVYYD8ekrE6VUpmaes+amxIEH8RTTizdNG2tt+LXe4GuCHtwHLC53pncMA+Q1J0L97hcQpZG8aIg0jHp+YW6tUDVg0QDIngPJ7hijWMEDIARJJ48xy6C07RskM0XCqliLFtii93rs8DXBeA0gAC6DZJWGA/Jakbw7oCNbtbRYJmE6+ISVJCVRfi1YN7NTA6xNQWAlhYu5KGCDQhN4n8BDYXLeZIziVJ4wXs2yVqoFSGrgk8WCdI+l1rUbDAHmOJIjfvEJWIDJBcRrPRcagtQgPBb8mLkzd7c/m7+1P/J44TIM5nNzpnCF9avokFdmNk+IgLSNXBfVzxsR1tKSrp+sakrj4dzsvepMPvZ0XfQ3uMt337QWSnpLyzoQB8jxJXx94o09PMe1LTAXcHjYvLFaT96VPvjdX8zde8DYI8LodIljr7pRSjbEniwizNcmGyK0CH9m+FNa4AjUgaoCDuw350Jur/W++A75DEGaSDwdSemxCbp8v6esOQRs7xoDj3bvTQRSHUc13zNMNCFBkLiG/BKCAUgkS5LFeOGYWwMJBG2BhJs8huOoAHsACbxqm/G0XM+AhywYgWAJOO4BR8uI37gx8bwOhhCsMKvy2ZBFktphCMJZgleRi1htbrtkBDib/L0vXIYBnA5A/GCEBydgPhgSfbd8evk+VoAdPAoDBNRfDBOBogFLK56n7zNlPNWBpPgkcW5JsAPJiSaR9nqv8rSTStjWeoXyyX5haAEMDDEAyVwEoz0ob1qn7yJFAFzRT92lX+xuAcNBy1xn1kk0wVKjnSfrDkRzYosP9UUkkC1qS4HN3Vga/udxjvqOkr0oZnXBQnZNsAMKLWDofdVcJr0mgwCQHKOYqPECA8dVz7eCefjEb/1BaNcxxCFjZAAwGjlsmj+4p+7kBCDnKp3jgf52y3rIH2uWqMqWC2m1DjQQ4jplLhwL9gCwwwqYZaNpU9LqS7tByVTIVznDzBiAvSZ3IUN/eKv5XEgeTXL+/9+553ECAFvSs5L87JME8zJKL2XsJgh9f4+waPUsaOt4NQCInjUMbIlb5aQkYWKCWIng5Q2pxqJGLnP2Q8phN/JKEZRjeH6SAHlPOAyBRZ8VdHWyAwbF/JEnPmEroq/tRkn5mioYnaBP/Ocg7liZkkAIkYwHl7Bzs7n1KhdKUX9+lAYPx/KKkhxV8Wwg/bU70PyoJszHXVQr2AcvcTxVsL2dTAIU9YsSncFt/zgQg3yGJlLe5BN+un0uRYLnqLFnPsyV944gNcnDH+p/zp8b3q++QE4A0YCGxPeZ4b7LVIUN6gqRHDLlxpvd8e9pXnZCpf6flSMHW9OUjifyBF2ypgon5bpk7z+zwuynWGmBcFKwf944GKBzwEr6cUwjBjqQEz9kXT13o5wczAf1EAAKDyHs8PWmVYf36fQM8S4PNjFo8t0cBG2BmZl64sdw9cCjEm/p+iRMsl4KeGQzDztWPSD23S17mfHrl2IYVEddpLANWIWaBdR/uH0sWXEZ4KXLIexMoAAYsHSXk0xJIAAtm6RyCdQtSwaULS0ZSDFo5EF4q6fYNQO6fzLBWZeCmwstFANBSBae6N2XqPGGfHCZuC/3M1MTearC+kRCJGJCI4PKDCwgHuksVZg8MD5zMW2XzA9EAhF8g3BCg8rQKB01YEEDc0oS4B6L3bhjsOIAAGABkDnKTBJIIGQfj+GNJd5nDgBx9IDkts4fHEsi+8ToQebeJpx+d/HQcfdkUYWO0tHODJ6WDMu+YKTeHWaOv/1jjcCkBMF7BiyCSBdnbbqRcNEqWkN170YE2QGA3ZBaJCNGJkfDdSNvWshyOcU4TEc5KfilSQYGyLCGfGwQJbjZzdiJt1EgKCzzBo8ycmIsJE7gMQPg3MwBr2IiQQwIK0RIRbd5+spFtM1946rn7jL1iu+OJggRd8UzJJTJXIc4kh18Zlkesghvp5vZgY0d8c2RKburGoSxHh8d4INGlFfph77IkiYLkjORhMMcxEy+fg/ga1yj0dISMfVvyGzZ2m+klg0BVM5T5I0Nzg6pAAVhmvG7r0PTMIaJx0GA7NzF2zns8xhhM1swiU4U2942X54hHgtWMu60+4n1gmT8ifdmhcrlb4NIO7eicJJK0lLOiC+Y0GEdfvknSbzvKUQRLHdahOQkbatzgo7J1bH0AYZPDwRnruqgQc/CYaCWZypN9ivW0x30db4FILsdMQ8hSjdcZk9mDWaTUAei+wUYT0Db1M6uyp7yc7MoviE8LIMnhm/QtgV+tfUqy/L/XlP0iSadaGpr5vZx7ESjHy24VwMV+ZGrBX4w4+6iwH/3evkqGJOB8entX7+wNOR48D8PZ3NZiOPWx97AykGD6xikQsrlDEpaLuBhZBUsWzzJqBbS2273/ZSnZkrceDgM5SNxp6h8CEDrg/eVtdx6XlCkj1+AN9gQFHYpP0rYXybvUmvpQmNk8ErLNDyXuOHt/IIYCBOUSlMLBGC+6RwjtJQB/KvEQ5BEe/CULtlrt0zXWLKw2eAVbBCacKamiCB/YnHQ7hFglPM8HiQUgTYVYMbyuB3AAk/iktLCfwsaN2dki+Jg93lJggfdCA8QKwSKYuQHVf1gKZboXU6yXg9hshfMAhHHiXtG7sdmhiF5rQSbl9VXjiZrk4InZY252/9yqYsPOLIKrkUWm+rHzmukJVjNzJnsBgiLx7yGDlEVwoWaT/HFLoQz3epzXzL82Gfo5VRUsndmPWIRYEfZnpYUsuFb3deKV+LEzSwQgNPZGh1sKuc8ZZEnBdcCaSKabOatkf0u35XFUhewv6hRoHSezHTlarCTYbr+5KEA8+xE2SGyUSgnTKnENFoEsG+rLNQm5/qzs9Mdn8oEaqmePaTp0hhUFiCcar7RLPGC0MnVgAoS2aE2CMeKRxgGT/JUcl6XEY1Bwzx4MKgoQ6rAyM5LVCe/LUmLtH/0C+EtigMyhS89MW3qfxtmH1aOBDFnu0IscAPEss9io44FZQqwAIT7datEpMY4SbXzS2EhpgBBrdJyhj4RCezyXjzSRAyAExvMSWgQyAHyBSogVIBs2ixIdm2EbuF9c0dCvkuG4GFmOxGkM7CNRkCHS8RwAIUGl9azg4ft8YAYqYMhtFSBDtHTpPfhZHTX8dpVMo3CrlKjU0D09NsizkGUPQofZV1gY/vDCfIBlpIF7K0CGK4/zKYsJlRP4Hx5efejOB0l6srGGsBEhxwxCn61p3EqaUStAhr9V5Fy3uOOEf6GHd23jaIrDqUXYS4Y4z3IBBJMofktDBQZzD1/R0Prb91WADNca6bItociQfODZW0Ksz5FkTZbl4tYx5AIIAVFWV/ZbB5zOLA/Eqtg1b9IvkUTM/VB5XAYWnCFtAVprrvsLc9Cw5gIIJ7CcxFqEWYcDubFlzgDhweM2ThjAjSSRZgyjB4wpLA1YimL7L5VjBYZ+3DmGCoeLlpXD0Hq798HueK6xMMQj8FuFJBdA6ITVhs5LkINeaJ8C5ggQkqbCHoNH7JClJu4SL0yk2PvGG/l/3NeH9KdpA89a6+m7p38evrYspH45AeIJgcTfiV/JMWVOAMGDgF9c62az0Q9BXyxrXjmSwqxOnaUS7hCyjfOoRXCkDGdPzgkQbOIwmFikxEnsXADC8olZgKVUVCAsIL1CbsFT1sIKX4LAAb1Z3X7elitfSk6AeHx5SpA5zAEgkJq9QxLcsbmEpQ1LnJxCGourGyokcG7sXI4wqDBTWYSksd9lKdB3b06AYP1AwRYzIf3CrWPM1AlzAIh1fzb02Z4pCW6oXHKxJMKTh0oJrjDr86PvBPIRtx6WnAChM55MVTxgHvRYYlVwbjPvmGm2MX0SI/GqTMr7gHGWOzuwnxrSZfidrXtULHGkFcwSL58bIDivkY/CIiw9WGeOxeE7JUA8+zKL7rgXKlRP+rxt7eAWbmE4GTvs1qM/DBmnWZVYYolFG3eWBCWMVcgpQiDVGDIVQKBJeu0YA9pSJ35KT83QFvkVLcR6+EY9OEO7fVVA2mcNPcBCyMyWRXLPIHSK9Amcklsky6FOT4NTAYSN4gMtSgjcCxFaDh5lqJFIPTZUsm2GtzRIJCCzgUUgBSHYLdvB6hgAgekCvlOL4DcD64T1NH5IG1MApOTs0eggxyxCOnDW70PlaSP+CHBybs2PCE0uCWmzyRgAwVWCqdGiaAY0lslwCoBATMGBXklx8T51Ogj/8HUNnR4rbIHciqTgsAocyniWZ5MxAELnPEQJWB+YRTjkySlTAMRDc8qYWeJwSm7lG2v0RThqhGQbsjwLXwCHlRxa5hYsibc1VurmvtrVzlgA8S4xxnCfngIgrIWtOUjaXgUABGI+q8B2aV3ettsghhsqn6FCht/Th9488D4PCyZVE7hlpVDd26WxAELDHoJhiByYRVgL55LSACGykghLi2DYOKVTwEOGEfWNwuRuITk4RxIvdE7x+F3R/ihMNGMCxEtRn/vgsDRAPCQWbCzZYLYFaxIvrMUzIfqLTuYosnANldzWRxw5PXxkvyrpIUM7bblvTIDQDxgNzYTBiYkiV17u0gDhZce6Y5G+rLk46XGIOlRCLIJp/3eDoY2lIDlvOoxuMzhxMpNa/dVgmufEHcNQdhkbIPeW9BxHr3EvYJNGjHRUSgPE8yvYlzkXmn/o/ocKrj7EmnjlIkk3NBQmGSjRpDnEm8ks94rjMmMZGyA05okToVwuxozSACEIyuoV0DeDWM2u/BjdJ/C2Ej9hcceHdhTmkKh4l+MYQ4gTeXu0A33lSwDkvpJYG3uEUFQrKV23ndIA8YQfbzvk81gCo2tx65IuCsjmWXm8Lyg7OqtKCYAwEK9lgqUWMdsE8nilNEBYLkF+YJFtriIeV5XorEscPNagoYIpmkO9iHjzJOI3xuxhtRia+loKIF7bNoMhFTWzkFdKA4R+evKmkOSHfPKYuHHX8aS5I2W3ldygrVdrvzHlew81aRfLk9excIyAscu9Y6UAQsPPCNjMI4dAUwAEF4wxTph3/UgQrGYJdtpW1xsk3dTwS/SCQDJNXPQBs4XJsekavM7wO48uJQFyvbSf4NMj3iixKQCSK8m9RU8EZsGUEhG4pG5mqICErBglrII7C+DwstoUIz8vCRCUGFlq4afEfoRfOYtMARAO+YgFsTpsWsbVvTeUKCZVhj/TSYZOwNl1D8P9za1Y+TzAonwpqqFNX0sDhDYjSy1+4XCBtiREmQIgjNPjKuJ41zZFogeETbsYCyzJLj3Re7ineAndMCKQ45LlZBGZAiDRpRaHZ5aArKkAUnIWyTF78MIx62FeHirWtN5EIGLS9gpLSJaSxWQKgDA4Boofj1csm7SpAJJjnEP0k5NZxGqOtySoic6oY0Yv9up5KoDQIUyaEWbwoY5yUwKEcZIsKCc1T/thcpJs4bHaBzjOnfBrGipstDEt75N7SsLi5RX6hU/fh70VeMtNCRD6DNNghIFiSIajqQHCOK19GPo8T5bEviyXQB9kSX8NQQeGk13iIZ5u10dSH8CBy1JxmRogxB6g5BMCI9+3xLC+nLl5sZqhEUIaPXVu6sKpkB+WMPdsR+9W58jzE5NN3+Pzhs626yuZru9y45gaIHSIOGI2exHZFbgzF4AwPk7HWYtHBM8CqG2yEKN1OmL1idrlPcxJN+kRIjJGQJapP3MACB3OQXLAhhHXBeKq2zIngNAvuMNYGlppekiUikeBNU+f5YV4haTbGAr0GUu8/lXtpmG4YWlVKl341mHPBSB0Lrpppw6CZh7a4fqdG0DoJymNseSxwWUG3SWYXtmrMcuOQYvUbtsamoBu8bhuBNIIDBLeQ8CmHtz8MV2PPd69vwVzAgidJaYaNu+IwLGFrR1/KMQKEBz2eGm7M1GkT7vKXit5peJHRTQd3sBw5HK91UH9H+mnVVft/Rq/9k80RkD29ZUgsVdHBpKr7NwAwrgIwokE/TS6aXi2rA+d8i930M7keiZT1QN1qTU1dwMQUiCwrMohY7P9m/o4R4AwgNflSMAoiTX1JyRBpGCVaPCRtb0p74e6x5OQB4BgScuSiyOZjD3czqPpbq4AYcCkij42w8ghpLPk3Ws3WSIDVoYhhqrwsLA0DQIQz4/Ptg5HOb1CSugrPGeA0GcsN1CZTilFvUcLDzQSDp2zq0WCnzwdnjtAGJM1ys2jh31lcOvGNFsqncG+/kT//6iUx8UTtRhtu1u+uAOiZQBLAAjj8WSusuhhyL3EmQMSiAKWLLh+cJ5i8YgeY7z4kZEXhrOU2cpSAIICn5WRgynyQLCKwX8bcb6LtO8tC2s7JvQx090N7RuBWcwcbx5aYKr7lgQQdORhjR9Lt9jpiU0AuPwazlXIF46VimhOzlymFn5YMCcXC3qKDHhpAGGsHAKSe4PT6DkIp76cdOP6HWEUyT0WvGxxaAQYV85dubM+vCXOcpadpNgSAYKibpFIjq05JMZWMgx/DVA4bMRUXVIARXNZOHbH7iOzBcs7HC0XJUsFCEo+Os0kYyey9z5QgnuIr8BDFhLv13gr6inHngKXDAKcYHOEjcSSgDNzd3qrw4UecBCtuDhZMkAaZWPLZ8llSV88xYPCCsapM/SefHLB1MJBJq7rfHIRIHTVdHHAyXd8tGB552JPwaeVBX2KMXM6DziKRwLmGuwhAARd8OtJfvZ75VJMrSekAfZl/GhFsl2FOpCr8KEApNEHaZex8Vvy7OXSZa3nUg0ACsARyZU4G10eGkBQLGG8WEpKU3/O5qFO1BGy7BJByOfByCECpHk4xEMzm5x4ME9rngM5mOXUNvUeMkAYL5Q4WLk4mCpJAzrPVzlvrzAosJziypl0NW8vg7UdOkAa9cByyAFjBUrwhUnFiYuHTWb2riLR4a4FIBUo0Tfl0vJEezJjcLaxClkbQLpAwSxc9yi7X3Vi/EmUQxq9ObnSFAHoWgHSVi4MHLhdAxZO56tcqgEYG0lTADhyE9QtRscVIP//qPBdAihcFobzxTzsAR3ltL8BBakNVi8VINtfAYKKyDdOJiP8nA5ZSJB6QQpcYgn1rkMerHVsFSD7NYZDYAOWU/bfvog74NtqQMFnJIvwIgbs7WQFiE1zpEhmVoEBHS/a69uKT3b3xYmIjQxShLhCh1RlgAYqQAYoaccteNayX2GWITXYXCxinG4DAlztAQVkE1ijqhg1UAFiVNie26EoYmYhzdzx6ZPvXNfO25TYUL9zywWfLX+vkkEDFSAZlDiwimMSUHB54XvfdSVJH9txEVsBACyJTAd2sd7W1UAFSH0nqgZ2aKACpL4eVQMVIPUdqBrwaaDOID691VIr0UAFyEoedB2mTwMVID691VIr0UAFyEoedB2mTwMVID691VIr0UAFyEoedB2mTwMVID691VIr0UAFyEoedB2mTwMVID691VIr0UAFyEoedB2mTwMVID691VIr0UAFyEoedB2mTwMVID691VIr0UAFyEoedB2mTwMVID691VIr0cD/AfpXkG2phpxuAAAAAElFTkSuQmCC;" vertex="1" parent="1">
          <mxGeometry x="314" y="240" width="30" height="30" as="geometry" />
        </mxCell>
        <mxCell id="Ew4Cx2_c2zEZE24tookL-69" value="" style="shape=image;verticalLabelPosition=bottom;labelBackgroundColor=default;verticalAlign=top;aspect=fixed;imageAspect=0;image=data:image/png,iVBORw0KGgoAAAANSUhEUgAAAMgAAADICAYAAACtWK6eAAAAAXNSR0IArs4c6QAAHcNJREFUeF7tnQv4ftlUx7+MxjSRkKI0ozCKkZkuCJNbuZUZUtJVI5eoMEOppnuhKKVMuSSNVC6RomaaMrkkijSEGEJJuUyJmKSk5/POPv/OnHnP+5611j77nPOevZ7nPO/7//3Pvq1zvu/ee+21vusKqlI1UDXQq4ErVN1UDVQN9GugAqS+HVUDOzRQAVJfj6qBCpD6DlQN+DRQZxCf3mqplWigAmQlD7oO06eBChCf3mqplWigAmQlD7oO06eBChCf3mqplWigAmQlD7oO06eBChCf3mqplWigAmQlD7oO06eBChCf3mqplWigAmQlD7oO06eBChCf3mqplWigAmQlD7oO06eBChCf3mqplWigAmT8B32UpE/pXEfv+NsVJf135/r4nr+NP4qVtlABMuzBX0nS50r6HEnXkPQZ6bralu/dvx0zrInQXf8u6UOS2p9937nvXyS9J90favjQC1eASJ+ZXnwA0ICg+/nZB/oifDQBBbC0r3/q/PtAh79/WGsByFUk3ahznZD+fex+Na3+jrdK4roofTb/fv+ha+bQAHJtSSdvAQNLoyr5NfDBLaB5k6S35G9qmhqXDBBmhS+XdPP0yffjplFjbbWjgf+SdKGk13c+L1mappYEkC4Ybrw0Zdf+6m0twACeP5PEPmi2MmeAnCTpjpLulK7ZKrF2LKSBl0s6T9IFkv4yVNMIhecEEDbNt5b0lQkQdd8wwgOfeZXvS2B5hSQujAKTypQAuWaaIQAF15dOqona+Bw18FpJfy7pXEnnT9HB0gC5jqQ7S7pL+uTArUrVwBANvFHSi9P1yiEFctxTAiDHJzA0wKjnDjme3LrreHULLGz2R5OxAMJJ9D1bswWuGlWqBsbQwEskvUjS8yXhAZBVcgPkCyWdnq5rZe1praxqYLcG/lXSMyWdk85fsugrF0A4o2iAUcI5L8vgayUHq4EGKJiOQxIFyB0SML411ItauGpgHA2wqQcsz/NW7wXI7SU9TNJp3oZXVu6TkpqYjnZsR/dvzb9RDzEk3biR9r/b34k5qdKvgVdJekpafpn05AHIT0s6y9TK8m/Gt4gN4LvTJ9+Jt8BNou/6SOv/PjayCljWNjEq2z7bMSr8Py7+nyUJN/4rj9y3OVX/dEn3t3TIApDPk/RcSbe0NLCQe3nh3956+dtA4PsHFjIOTzcBTAMWANP9jkfD9ROoPPXPrQyu+mwJOITcK0MB8mBJv7K3tnnf8I4Egr/vfAIMZogquzXw6QkogKW5viB9v94ClfcoSY/b1+8hAPkjSXfdV9FM/p81PCeuxCQ0n/jzAAL2AVXG0QB7IECDPx0uQ801d386nCR3vtv7APIESWeMo9NwrV0g8G/cqavMRwO4FrUBw/e5geaJkh7ep7JdAGGd9pvz0fVmzUj8wJ+ka0Zdq10xaADQsI/F9YhwhhsYyo51632TOfhy9fcB5GuSr8tYHRpS7xsk/UVyewYUh7xRHqKPQ70HrgDAQpgDXt2ETU8hpyaXlcu0vQ0gX5FezNKdfG+aGV6W2v+70h2o7c1CA5yx3SaBBeCUFEBKHMoR6QIE/ykivPCpKiFsnpkd8PXnc9bhlyUUUtu4jAZulpxe7yGJ72ML7yNOtuxnN9IFyEMknT1yL/6mtY/405HbqtUfjgbuJgmg8AJz0DmWYJh6RB9A2ATfboSW/1nSs9NB4+zijkcYb61yPA0ADkACWABNbuFdvamkf+vOIAADgOQUwiUBBhfuyFWqBnJq4GslPVDS3XNWKum7m4Px9hKLpRVLrKhAvPw7CRTEElepGhhbA7mBwj78tu0ZhM05p8/RIKefSODA36VK1UBpDeQECha085sZJMfmnBNSWMOrVA1MrYHvl/SzwU48Q9L9GoD8mqTvDFR470hQSqDdWrRqoE8DvM+81155s6SbNABhzXWKs6anSnqQs2wtVjUwpgbwsfoFZwN4eF+tAQhLI+8RP6eexXiKnIOtxdapAZwjB8V99KhnM4MAjMjegY39xevUfx31AjSAD5/3YPFUAMLSiiWWV/a5zHvrreWqBnJoIHL4fQYvd3QzUwGS4zHWOsbSQAQgT+Ll/nFJPxboXQVIQHm16OgaiADkXF7un5T0I4FuVoAElFeLjq6BCEBeyssdpfGpABn9GdcGAhoIA+Sxkn4g0IEKkIDyatHRNRAGCEfyHM17pQLEq7laroQGwgB5vKRHBnpaARJQXi06ugbCAPl5SWcGulkB0q888qLAsWu5CBfou/6n5/8Cj+/gi4YBgq9KLy/QAPUdMkDgreUUFm8BPuG4bS4oO/d9L5U46EOSLBe8wpwwc31wwDNe8i1hgECc9dCABpYGkKtKgjKTLFi8+M3VAKH9N+g2D12YlRqw4DLUfO/+7Z2S/mGByggD5JclfU9g4HMEyHEJBAChe0WDwgKqWnxR6FsByrvSZ/s7fyOee24SBgik1JBTe4VlxCe8hYPlPl/Syek6KXHDAohSS5tg9w+uOC7iAAUK2AslwWDDBZCmkjBAnhyM5yBr7X8WGP0XSwIEAKL5ZA9QZf4aYH8EUBrQ8AlzZgkJA4SApwcEespmFQXkFMJ3YXiE6e5WCRQ1i1JODU9fF6sOQEP2J9hvSO38jyN0KwyQaLgtSVfeHxzYiZJIBHqLBIovCtZXiy9TA+Rugfrzr1KgE8FO0bQVYYD8ekrE6VUpmaes+amxIEH8RTTizdNG2tt+LXe4GuCHtwHLC53pncMA+Q1J0L97hcQpZG8aIg0jHp+YW6tUDVg0QDIngPJ7hijWMEDIARJJ48xy6C07RskM0XCqliLFtii93rs8DXBeA0gAC6DZJWGA/Jakbw7oCNbtbRYJmE6+ISVJCVRfi1YN7NTA6xNQWAlhYu5KGCDQhN4n8BDYXLeZIziVJ4wXs2yVqoFSGrgk8WCdI+l1rUbDAHmOJIjfvEJWIDJBcRrPRcagtQgPBb8mLkzd7c/m7+1P/J44TIM5nNzpnCF9avokFdmNk+IgLSNXBfVzxsR1tKSrp+sakrj4dzsvepMPvZ0XfQ3uMt337QWSnpLyzoQB8jxJXx94o09PMe1LTAXcHjYvLFaT96VPvjdX8zde8DYI8LodIljr7pRSjbEniwizNcmGyK0CH9m+FNa4AjUgaoCDuw350Jur/W++A75DEGaSDwdSemxCbp8v6esOQRs7xoDj3bvTQRSHUc13zNMNCFBkLiG/BKCAUgkS5LFeOGYWwMJBG2BhJs8huOoAHsACbxqm/G0XM+AhywYgWAJOO4BR8uI37gx8bwOhhCsMKvy2ZBFktphCMJZgleRi1htbrtkBDib/L0vXIYBnA5A/GCEBydgPhgSfbd8evk+VoAdPAoDBNRfDBOBogFLK56n7zNlPNWBpPgkcW5JsAPJiSaR9nqv8rSTStjWeoXyyX5haAEMDDEAyVwEoz0ob1qn7yJFAFzRT92lX+xuAcNBy1xn1kk0wVKjnSfrDkRzYosP9UUkkC1qS4HN3Vga/udxjvqOkr0oZnXBQnZNsAMKLWDofdVcJr0mgwCQHKOYqPECA8dVz7eCefjEb/1BaNcxxCFjZAAwGjlsmj+4p+7kBCDnKp3jgf52y3rIH2uWqMqWC2m1DjQQ4jplLhwL9gCwwwqYZaNpU9LqS7tByVTIVznDzBiAvSZ3IUN/eKv5XEgeTXL+/9+553ECAFvSs5L87JME8zJKL2XsJgh9f4+waPUsaOt4NQCInjUMbIlb5aQkYWKCWIng5Q2pxqJGLnP2Q8phN/JKEZRjeH6SAHlPOAyBRZ8VdHWyAwbF/JEnPmEroq/tRkn5mioYnaBP/Ocg7liZkkAIkYwHl7Bzs7n1KhdKUX9+lAYPx/KKkhxV8Wwg/bU70PyoJszHXVQr2AcvcTxVsL2dTAIU9YsSncFt/zgQg3yGJlLe5BN+un0uRYLnqLFnPsyV944gNcnDH+p/zp8b3q++QE4A0YCGxPeZ4b7LVIUN6gqRHDLlxpvd8e9pXnZCpf6flSMHW9OUjifyBF2ypgon5bpk7z+zwuynWGmBcFKwf944GKBzwEr6cUwjBjqQEz9kXT13o5wczAf1EAAKDyHs8PWmVYf36fQM8S4PNjFo8t0cBG2BmZl64sdw9cCjEm/p+iRMsl4KeGQzDztWPSD23S17mfHrl2IYVEddpLANWIWaBdR/uH0sWXEZ4KXLIexMoAAYsHSXk0xJIAAtm6RyCdQtSwaULS0ZSDFo5EF4q6fYNQO6fzLBWZeCmwstFANBSBae6N2XqPGGfHCZuC/3M1MTearC+kRCJGJCI4PKDCwgHuksVZg8MD5zMW2XzA9EAhF8g3BCg8rQKB01YEEDc0oS4B6L3bhjsOIAAGABkDnKTBJIIGQfj+GNJd5nDgBx9IDkts4fHEsi+8ToQebeJpx+d/HQcfdkUYWO0tHODJ6WDMu+YKTeHWaOv/1jjcCkBMF7BiyCSBdnbbqRcNEqWkN170YE2QGA3ZBaJCNGJkfDdSNvWshyOcU4TEc5KfilSQYGyLCGfGwQJbjZzdiJt1EgKCzzBo8ycmIsJE7gMQPg3MwBr2IiQQwIK0RIRbd5+spFtM1946rn7jL1iu+OJggRd8UzJJTJXIc4kh18Zlkesghvp5vZgY0d8c2RKburGoSxHh8d4INGlFfph77IkiYLkjORhMMcxEy+fg/ga1yj0dISMfVvyGzZ2m+klg0BVM5T5I0Nzg6pAAVhmvG7r0PTMIaJx0GA7NzF2zns8xhhM1swiU4U2942X54hHgtWMu60+4n1gmT8ifdmhcrlb4NIO7eicJJK0lLOiC+Y0GEdfvknSbzvKUQRLHdahOQkbatzgo7J1bH0AYZPDwRnruqgQc/CYaCWZypN9ivW0x30db4FILsdMQ8hSjdcZk9mDWaTUAei+wUYT0Db1M6uyp7yc7MoviE8LIMnhm/QtgV+tfUqy/L/XlP0iSadaGpr5vZx7ESjHy24VwMV+ZGrBX4w4+6iwH/3evkqGJOB8entX7+wNOR48D8PZ3NZiOPWx97AykGD6xikQsrlDEpaLuBhZBUsWzzJqBbS2273/ZSnZkrceDgM5SNxp6h8CEDrg/eVtdx6XlCkj1+AN9gQFHYpP0rYXybvUmvpQmNk8ErLNDyXuOHt/IIYCBOUSlMLBGC+6RwjtJQB/KvEQ5BEe/CULtlrt0zXWLKw2eAVbBCacKamiCB/YnHQ7hFglPM8HiQUgTYVYMbyuB3AAk/iktLCfwsaN2dki+Jg93lJggfdCA8QKwSKYuQHVf1gKZboXU6yXg9hshfMAhHHiXtG7sdmhiF5rQSbl9VXjiZrk4InZY252/9yqYsPOLIKrkUWm+rHzmukJVjNzJnsBgiLx7yGDlEVwoWaT/HFLoQz3epzXzL82Gfo5VRUsndmPWIRYEfZnpYUsuFb3deKV+LEzSwQgNPZGh1sKuc8ZZEnBdcCaSKabOatkf0u35XFUhewv6hRoHSezHTlarCTYbr+5KEA8+xE2SGyUSgnTKnENFoEsG+rLNQm5/qzs9Mdn8oEaqmePaTp0hhUFiCcar7RLPGC0MnVgAoS2aE2CMeKRxgGT/JUcl6XEY1Bwzx4MKgoQ6rAyM5LVCe/LUmLtH/0C+EtigMyhS89MW3qfxtmH1aOBDFnu0IscAPEss9io44FZQqwAIT7datEpMY4SbXzS2EhpgBBrdJyhj4RCezyXjzSRAyAExvMSWgQyAHyBSogVIBs2ixIdm2EbuF9c0dCvkuG4GFmOxGkM7CNRkCHS8RwAIUGl9azg4ft8YAYqYMhtFSBDtHTpPfhZHTX8dpVMo3CrlKjU0D09NsizkGUPQofZV1gY/vDCfIBlpIF7K0CGK4/zKYsJlRP4Hx5efejOB0l6srGGsBEhxwxCn61p3EqaUStAhr9V5Fy3uOOEf6GHd23jaIrDqUXYS4Y4z3IBBJMofktDBQZzD1/R0Prb91WADNca6bItociQfODZW0Ksz5FkTZbl4tYx5AIIAVFWV/ZbB5zOLA/Eqtg1b9IvkUTM/VB5XAYWnCFtAVprrvsLc9Cw5gIIJ7CcxFqEWYcDubFlzgDhweM2ThjAjSSRZgyjB4wpLA1YimL7L5VjBYZ+3DmGCoeLlpXD0Hq798HueK6xMMQj8FuFJBdA6ITVhs5LkINeaJ8C5ggQkqbCHoNH7JClJu4SL0yk2PvGG/l/3NeH9KdpA89a6+m7p38evrYspH45AeIJgcTfiV/JMWVOAMGDgF9c62az0Q9BXyxrXjmSwqxOnaUS7hCyjfOoRXCkDGdPzgkQbOIwmFikxEnsXADC8olZgKVUVCAsIL1CbsFT1sIKX4LAAb1Z3X7elitfSk6AeHx5SpA5zAEgkJq9QxLcsbmEpQ1LnJxCGourGyokcG7sXI4wqDBTWYSksd9lKdB3b06AYP1AwRYzIf3CrWPM1AlzAIh1fzb02Z4pCW6oXHKxJMKTh0oJrjDr86PvBPIRtx6WnAChM55MVTxgHvRYYlVwbjPvmGm2MX0SI/GqTMr7gHGWOzuwnxrSZfidrXtULHGkFcwSL58bIDivkY/CIiw9WGeOxeE7JUA8+zKL7rgXKlRP+rxt7eAWbmE4GTvs1qM/DBmnWZVYYolFG3eWBCWMVcgpQiDVGDIVQKBJeu0YA9pSJ35KT83QFvkVLcR6+EY9OEO7fVVA2mcNPcBCyMyWRXLPIHSK9Amcklsky6FOT4NTAYSN4gMtSgjcCxFaDh5lqJFIPTZUsm2GtzRIJCCzgUUgBSHYLdvB6hgAgekCvlOL4DcD64T1NH5IG1MApOTs0eggxyxCOnDW70PlaSP+CHBybs2PCE0uCWmzyRgAwVWCqdGiaAY0lslwCoBATMGBXklx8T51Ogj/8HUNnR4rbIHciqTgsAocyniWZ5MxAELnPEQJWB+YRTjkySlTAMRDc8qYWeJwSm7lG2v0RThqhGQbsjwLXwCHlRxa5hYsibc1VurmvtrVzlgA8S4xxnCfngIgrIWtOUjaXgUABGI+q8B2aV3ettsghhsqn6FCht/Th9488D4PCyZVE7hlpVDd26WxAELDHoJhiByYRVgL55LSACGykghLi2DYOKVTwEOGEfWNwuRuITk4RxIvdE7x+F3R/ihMNGMCxEtRn/vgsDRAPCQWbCzZYLYFaxIvrMUzIfqLTuYosnANldzWRxw5PXxkvyrpIUM7bblvTIDQDxgNzYTBiYkiV17u0gDhZce6Y5G+rLk46XGIOlRCLIJp/3eDoY2lIDlvOoxuMzhxMpNa/dVgmufEHcNQdhkbIPeW9BxHr3EvYJNGjHRUSgPE8yvYlzkXmn/o/ocKrj7EmnjlIkk3NBQmGSjRpDnEm8ks94rjMmMZGyA05okToVwuxozSACEIyuoV0DeDWM2u/BjdJ/C2Ej9hcceHdhTmkKh4l+MYQ4gTeXu0A33lSwDkvpJYG3uEUFQrKV23ndIA8YQfbzvk81gCo2tx65IuCsjmWXm8Lyg7OqtKCYAwEK9lgqUWMdsE8nilNEBYLkF+YJFtriIeV5XorEscPNagoYIpmkO9iHjzJOI3xuxhtRia+loKIF7bNoMhFTWzkFdKA4R+evKmkOSHfPKYuHHX8aS5I2W3ldygrVdrvzHlew81aRfLk9excIyAscu9Y6UAQsPPCNjMI4dAUwAEF4wxTph3/UgQrGYJdtpW1xsk3dTwS/SCQDJNXPQBs4XJsekavM7wO48uJQFyvbSf4NMj3iixKQCSK8m9RU8EZsGUEhG4pG5mqICErBglrII7C+DwstoUIz8vCRCUGFlq4afEfoRfOYtMARAO+YgFsTpsWsbVvTeUKCZVhj/TSYZOwNl1D8P9za1Y+TzAonwpqqFNX0sDhDYjSy1+4XCBtiREmQIgjNPjKuJ41zZFogeETbsYCyzJLj3Re7ineAndMCKQ45LlZBGZAiDRpRaHZ5aArKkAUnIWyTF78MIx62FeHirWtN5EIGLS9gpLSJaSxWQKgDA4Boofj1csm7SpAJJjnEP0k5NZxGqOtySoic6oY0Yv9up5KoDQIUyaEWbwoY5yUwKEcZIsKCc1T/thcpJs4bHaBzjOnfBrGipstDEt75N7SsLi5RX6hU/fh70VeMtNCRD6DNNghIFiSIajqQHCOK19GPo8T5bEviyXQB9kSX8NQQeGk13iIZ5u10dSH8CBy1JxmRogxB6g5BMCI9+3xLC+nLl5sZqhEUIaPXVu6sKpkB+WMPdsR+9W58jzE5NN3+Pzhs626yuZru9y45gaIHSIOGI2exHZFbgzF4AwPk7HWYtHBM8CqG2yEKN1OmL1idrlPcxJN+kRIjJGQJapP3MACB3OQXLAhhHXBeKq2zIngNAvuMNYGlppekiUikeBNU+f5YV4haTbGAr0GUu8/lXtpmG4YWlVKl341mHPBSB0Lrpppw6CZh7a4fqdG0DoJymNseSxwWUG3SWYXtmrMcuOQYvUbtsamoBu8bhuBNIIDBLeQ8CmHtz8MV2PPd69vwVzAgidJaYaNu+IwLGFrR1/KMQKEBz2eGm7M1GkT7vKXit5peJHRTQd3sBw5HK91UH9H+mnVVft/Rq/9k80RkD29ZUgsVdHBpKr7NwAwrgIwokE/TS6aXi2rA+d8i930M7keiZT1QN1qTU1dwMQUiCwrMohY7P9m/o4R4AwgNflSMAoiTX1JyRBpGCVaPCRtb0p74e6x5OQB4BgScuSiyOZjD3czqPpbq4AYcCkij42w8ghpLPk3Ws3WSIDVoYhhqrwsLA0DQIQz4/Ptg5HOb1CSugrPGeA0GcsN1CZTilFvUcLDzQSDp2zq0WCnzwdnjtAGJM1ys2jh31lcOvGNFsqncG+/kT//6iUx8UTtRhtu1u+uAOiZQBLAAjj8WSusuhhyL3EmQMSiAKWLLh+cJ5i8YgeY7z4kZEXhrOU2cpSAIICn5WRgynyQLCKwX8bcb6LtO8tC2s7JvQx090N7RuBWcwcbx5aYKr7lgQQdORhjR9Lt9jpiU0AuPwazlXIF46VimhOzlymFn5YMCcXC3qKDHhpAGGsHAKSe4PT6DkIp76cdOP6HWEUyT0WvGxxaAQYV85dubM+vCXOcpadpNgSAYKibpFIjq05JMZWMgx/DVA4bMRUXVIARXNZOHbH7iOzBcs7HC0XJUsFCEo+Os0kYyey9z5QgnuIr8BDFhLv13gr6inHngKXDAKcYHOEjcSSgDNzd3qrw4UecBCtuDhZMkAaZWPLZ8llSV88xYPCCsapM/SefHLB1MJBJq7rfHIRIHTVdHHAyXd8tGB552JPwaeVBX2KMXM6DziKRwLmGuwhAARd8OtJfvZ75VJMrSekAfZl/GhFsl2FOpCr8KEApNEHaZex8Vvy7OXSZa3nUg0ACsARyZU4G10eGkBQLGG8WEpKU3/O5qFO1BGy7BJByOfByCECpHk4xEMzm5x4ME9rngM5mOXUNvUeMkAYL5Q4WLk4mCpJAzrPVzlvrzAosJziypl0NW8vg7UdOkAa9cByyAFjBUrwhUnFiYuHTWb2riLR4a4FIBUo0Tfl0vJEezJjcLaxClkbQLpAwSxc9yi7X3Vi/EmUQxq9ObnSFAHoWgHSVi4MHLhdAxZO56tcqgEYG0lTADhyE9QtRscVIP//qPBdAihcFobzxTzsAR3ltL8BBakNVi8VINtfAYKKyDdOJiP8nA5ZSJB6QQpcYgn1rkMerHVsFSD7NYZDYAOWU/bfvog74NtqQMFnJIvwIgbs7WQFiE1zpEhmVoEBHS/a69uKT3b3xYmIjQxShLhCh1RlgAYqQAYoaccteNayX2GWITXYXCxinG4DAlztAQVkE1ijqhg1UAFiVNie26EoYmYhzdzx6ZPvXNfO25TYUL9zywWfLX+vkkEDFSAZlDiwimMSUHB54XvfdSVJH9txEVsBACyJTAd2sd7W1UAFSH0nqgZ2aKACpL4eVQMVIPUdqBrwaaDOID691VIr0UAFyEoedB2mTwMVID691VIr0UAFyEoedB2mTwMVID691VIr0UAFyEoedB2mTwMVID691VIr0UAFyEoedB2mTwMVID691VIr0UAFyEoedB2mTwMVID691VIr0UAFyEoedB2mTwMVID691VIr0UAFyEoedB2mTwMVID691VIr0cD/AfpXkG2phpxuAAAAAElFTkSuQmCC;direction=west;" vertex="1" parent="1">
          <mxGeometry x="314" y="460" width="30" height="30" as="geometry" />
        </mxCell>
        <mxCell id="Ew4Cx2_c2zEZE24tookL-70" value="" style="shape=image;verticalLabelPosition=bottom;labelBackgroundColor=default;verticalAlign=top;aspect=fixed;imageAspect=0;image=data:image/png,iVBORw0KGgoAAAANSUhEUgAAAMgAAADICAYAAACtWK6eAAAAAXNSR0IArs4c6QAAHcNJREFUeF7tnQv4ftlUx7+MxjSRkKI0ozCKkZkuCJNbuZUZUtJVI5eoMEOppnuhKKVMuSSNVC6RomaaMrkkijSEGEJJuUyJmKSk5/POPv/OnHnP+5611j77nPOevZ7nPO/7//3Pvq1zvu/ee+21vusKqlI1UDXQq4ErVN1UDVQN9GugAqS+HVUDOzRQAVJfj6qBCpD6DlQN+DRQZxCf3mqplWigAmQlD7oO06eBChCf3mqplWigAmQlD7oO06eBChCf3mqplWigAmQlD7oO06eBChCf3mqplWigAmQlD7oO06eBChCf3mqplWigAmQlD7oO06eBChCf3mqplWigAmQlD7oO06eBChCf3mqplWigAmT8B32UpE/pXEfv+NsVJf135/r4nr+NP4qVtlABMuzBX0nS50r6HEnXkPQZ6bralu/dvx0zrInQXf8u6UOS2p9937nvXyS9J90favjQC1eASJ+ZXnwA0ICg+/nZB/oifDQBBbC0r3/q/PtAh79/WGsByFUk3ahznZD+fex+Na3+jrdK4roofTb/fv+ha+bQAHJtSSdvAQNLoyr5NfDBLaB5k6S35G9qmhqXDBBmhS+XdPP0yffjplFjbbWjgf+SdKGk13c+L1mappYEkC4Ybrw0Zdf+6m0twACeP5PEPmi2MmeAnCTpjpLulK7ZKrF2LKSBl0s6T9IFkv4yVNMIhecEEDbNt5b0lQkQdd8wwgOfeZXvS2B5hSQujAKTypQAuWaaIQAF15dOqona+Bw18FpJfy7pXEnnT9HB0gC5jqQ7S7pL+uTArUrVwBANvFHSi9P1yiEFctxTAiDHJzA0wKjnDjme3LrreHULLGz2R5OxAMJJ9D1bswWuGlWqBsbQwEskvUjS8yXhAZBVcgPkCyWdnq5rZe1praxqYLcG/lXSMyWdk85fsugrF0A4o2iAUcI5L8vgayUHq4EGKJiOQxIFyB0SML411ItauGpgHA2wqQcsz/NW7wXI7SU9TNJp3oZXVu6TkpqYjnZsR/dvzb9RDzEk3biR9r/b34k5qdKvgVdJekpafpn05AHIT0s6y9TK8m/Gt4gN4LvTJ9+Jt8BNou/6SOv/PjayCljWNjEq2z7bMSr8Py7+nyUJN/4rj9y3OVX/dEn3t3TIApDPk/RcSbe0NLCQe3nh3956+dtA4PsHFjIOTzcBTAMWANP9jkfD9ROoPPXPrQyu+mwJOITcK0MB8mBJv7K3tnnf8I4Egr/vfAIMZogquzXw6QkogKW5viB9v94ClfcoSY/b1+8hAPkjSXfdV9FM/p81PCeuxCQ0n/jzAAL2AVXG0QB7IECDPx0uQ801d386nCR3vtv7APIESWeMo9NwrV0g8G/cqavMRwO4FrUBw/e5geaJkh7ep7JdAGGd9pvz0fVmzUj8wJ+ka0Zdq10xaADQsI/F9YhwhhsYyo51632TOfhy9fcB5GuSr8tYHRpS7xsk/UVyewYUh7xRHqKPQ70HrgDAQpgDXt2ETU8hpyaXlcu0vQ0gX5FezNKdfG+aGV6W2v+70h2o7c1CA5yx3SaBBeCUFEBKHMoR6QIE/ykivPCpKiFsnpkd8PXnc9bhlyUUUtu4jAZulpxe7yGJ72ML7yNOtuxnN9IFyEMknT1yL/6mtY/405HbqtUfjgbuJgmg8AJz0DmWYJh6RB9A2ATfboSW/1nSs9NB4+zijkcYb61yPA0ADkACWABNbuFdvamkf+vOIAADgOQUwiUBBhfuyFWqBnJq4GslPVDS3XNWKum7m4Px9hKLpRVLrKhAvPw7CRTEElepGhhbA7mBwj78tu0ZhM05p8/RIKefSODA36VK1UBpDeQECha085sZJMfmnBNSWMOrVA1MrYHvl/SzwU48Q9L9GoD8mqTvDFR470hQSqDdWrRqoE8DvM+81155s6SbNABhzXWKs6anSnqQs2wtVjUwpgbwsfoFZwN4eF+tAQhLI+8RP6eexXiKnIOtxdapAZwjB8V99KhnM4MAjMjegY39xevUfx31AjSAD5/3YPFUAMLSiiWWV/a5zHvrreWqBnJoIHL4fQYvd3QzUwGS4zHWOsbSQAQgT+Ll/nFJPxboXQVIQHm16OgaiADkXF7un5T0I4FuVoAElFeLjq6BCEBeyssdpfGpABn9GdcGAhoIA+Sxkn4g0IEKkIDyatHRNRAGCEfyHM17pQLEq7laroQGwgB5vKRHBnpaARJQXi06ugbCAPl5SWcGulkB0q888qLAsWu5CBfou/6n5/8Cj+/gi4YBgq9KLy/QAPUdMkDgreUUFm8BPuG4bS4oO/d9L5U46EOSLBe8wpwwc31wwDNe8i1hgECc9dCABpYGkKtKgjKTLFi8+M3VAKH9N+g2D12YlRqw4DLUfO/+7Z2S/mGByggD5JclfU9g4HMEyHEJBAChe0WDwgKqWnxR6FsByrvSZ/s7fyOee24SBgik1JBTe4VlxCe8hYPlPl/Syek6KXHDAohSS5tg9w+uOC7iAAUK2AslwWDDBZCmkjBAnhyM5yBr7X8WGP0XSwIEAKL5ZA9QZf4aYH8EUBrQ8AlzZgkJA4SApwcEespmFQXkFMJ3YXiE6e5WCRQ1i1JODU9fF6sOQEP2J9hvSO38jyN0KwyQaLgtSVfeHxzYiZJIBHqLBIovCtZXiy9TA+Rugfrzr1KgE8FO0bQVYYD8ekrE6VUpmaes+amxIEH8RTTizdNG2tt+LXe4GuCHtwHLC53pncMA+Q1J0L97hcQpZG8aIg0jHp+YW6tUDVg0QDIngPJ7hijWMEDIARJJ48xy6C07RskM0XCqliLFtii93rs8DXBeA0gAC6DZJWGA/Jakbw7oCNbtbRYJmE6+ISVJCVRfi1YN7NTA6xNQWAlhYu5KGCDQhN4n8BDYXLeZIziVJ4wXs2yVqoFSGrgk8WCdI+l1rUbDAHmOJIjfvEJWIDJBcRrPRcagtQgPBb8mLkzd7c/m7+1P/J44TIM5nNzpnCF9avokFdmNk+IgLSNXBfVzxsR1tKSrp+sakrj4dzsvepMPvZ0XfQ3uMt337QWSnpLyzoQB8jxJXx94o09PMe1LTAXcHjYvLFaT96VPvjdX8zde8DYI8LodIljr7pRSjbEniwizNcmGyK0CH9m+FNa4AjUgaoCDuw350Jur/W++A75DEGaSDwdSemxCbp8v6esOQRs7xoDj3bvTQRSHUc13zNMNCFBkLiG/BKCAUgkS5LFeOGYWwMJBG2BhJs8huOoAHsACbxqm/G0XM+AhywYgWAJOO4BR8uI37gx8bwOhhCsMKvy2ZBFktphCMJZgleRi1htbrtkBDib/L0vXIYBnA5A/GCEBydgPhgSfbd8evk+VoAdPAoDBNRfDBOBogFLK56n7zNlPNWBpPgkcW5JsAPJiSaR9nqv8rSTStjWeoXyyX5haAEMDDEAyVwEoz0ob1qn7yJFAFzRT92lX+xuAcNBy1xn1kk0wVKjnSfrDkRzYosP9UUkkC1qS4HN3Vga/udxjvqOkr0oZnXBQnZNsAMKLWDofdVcJr0mgwCQHKOYqPECA8dVz7eCefjEb/1BaNcxxCFjZAAwGjlsmj+4p+7kBCDnKp3jgf52y3rIH2uWqMqWC2m1DjQQ4jplLhwL9gCwwwqYZaNpU9LqS7tByVTIVznDzBiAvSZ3IUN/eKv5XEgeTXL+/9+553ECAFvSs5L87JME8zJKL2XsJgh9f4+waPUsaOt4NQCInjUMbIlb5aQkYWKCWIng5Q2pxqJGLnP2Q8phN/JKEZRjeH6SAHlPOAyBRZ8VdHWyAwbF/JEnPmEroq/tRkn5mioYnaBP/Ocg7liZkkAIkYwHl7Bzs7n1KhdKUX9+lAYPx/KKkhxV8Wwg/bU70PyoJszHXVQr2AcvcTxVsL2dTAIU9YsSncFt/zgQg3yGJlLe5BN+un0uRYLnqLFnPsyV944gNcnDH+p/zp8b3q++QE4A0YCGxPeZ4b7LVIUN6gqRHDLlxpvd8e9pXnZCpf6flSMHW9OUjifyBF2ypgon5bpk7z+zwuynWGmBcFKwf944GKBzwEr6cUwjBjqQEz9kXT13o5wczAf1EAAKDyHs8PWmVYf36fQM8S4PNjFo8t0cBG2BmZl64sdw9cCjEm/p+iRMsl4KeGQzDztWPSD23S17mfHrl2IYVEddpLANWIWaBdR/uH0sWXEZ4KXLIexMoAAYsHSXk0xJIAAtm6RyCdQtSwaULS0ZSDFo5EF4q6fYNQO6fzLBWZeCmwstFANBSBae6N2XqPGGfHCZuC/3M1MTearC+kRCJGJCI4PKDCwgHuksVZg8MD5zMW2XzA9EAhF8g3BCg8rQKB01YEEDc0oS4B6L3bhjsOIAAGABkDnKTBJIIGQfj+GNJd5nDgBx9IDkts4fHEsi+8ToQebeJpx+d/HQcfdkUYWO0tHODJ6WDMu+YKTeHWaOv/1jjcCkBMF7BiyCSBdnbbqRcNEqWkN170YE2QGA3ZBaJCNGJkfDdSNvWshyOcU4TEc5KfilSQYGyLCGfGwQJbjZzdiJt1EgKCzzBo8ycmIsJE7gMQPg3MwBr2IiQQwIK0RIRbd5+spFtM1946rn7jL1iu+OJggRd8UzJJTJXIc4kh18Zlkesghvp5vZgY0d8c2RKburGoSxHh8d4INGlFfph77IkiYLkjORhMMcxEy+fg/ga1yj0dISMfVvyGzZ2m+klg0BVM5T5I0Nzg6pAAVhmvG7r0PTMIaJx0GA7NzF2zns8xhhM1swiU4U2942X54hHgtWMu60+4n1gmT8ifdmhcrlb4NIO7eicJJK0lLOiC+Y0GEdfvknSbzvKUQRLHdahOQkbatzgo7J1bH0AYZPDwRnruqgQc/CYaCWZypN9ivW0x30db4FILsdMQ8hSjdcZk9mDWaTUAei+wUYT0Db1M6uyp7yc7MoviE8LIMnhm/QtgV+tfUqy/L/XlP0iSadaGpr5vZx7ESjHy24VwMV+ZGrBX4w4+6iwH/3evkqGJOB8entX7+wNOR48D8PZ3NZiOPWx97AykGD6xikQsrlDEpaLuBhZBUsWzzJqBbS2273/ZSnZkrceDgM5SNxp6h8CEDrg/eVtdx6XlCkj1+AN9gQFHYpP0rYXybvUmvpQmNk8ErLNDyXuOHt/IIYCBOUSlMLBGC+6RwjtJQB/KvEQ5BEe/CULtlrt0zXWLKw2eAVbBCacKamiCB/YnHQ7hFglPM8HiQUgTYVYMbyuB3AAk/iktLCfwsaN2dki+Jg93lJggfdCA8QKwSKYuQHVf1gKZboXU6yXg9hshfMAhHHiXtG7sdmhiF5rQSbl9VXjiZrk4InZY252/9yqYsPOLIKrkUWm+rHzmukJVjNzJnsBgiLx7yGDlEVwoWaT/HFLoQz3epzXzL82Gfo5VRUsndmPWIRYEfZnpYUsuFb3deKV+LEzSwQgNPZGh1sKuc8ZZEnBdcCaSKabOatkf0u35XFUhewv6hRoHSezHTlarCTYbr+5KEA8+xE2SGyUSgnTKnENFoEsG+rLNQm5/qzs9Mdn8oEaqmePaTp0hhUFiCcar7RLPGC0MnVgAoS2aE2CMeKRxgGT/JUcl6XEY1Bwzx4MKgoQ6rAyM5LVCe/LUmLtH/0C+EtigMyhS89MW3qfxtmH1aOBDFnu0IscAPEss9io44FZQqwAIT7datEpMY4SbXzS2EhpgBBrdJyhj4RCezyXjzSRAyAExvMSWgQyAHyBSogVIBs2ixIdm2EbuF9c0dCvkuG4GFmOxGkM7CNRkCHS8RwAIUGl9azg4ft8YAYqYMhtFSBDtHTpPfhZHTX8dpVMo3CrlKjU0D09NsizkGUPQofZV1gY/vDCfIBlpIF7K0CGK4/zKYsJlRP4Hx5efejOB0l6srGGsBEhxwxCn61p3EqaUStAhr9V5Fy3uOOEf6GHd23jaIrDqUXYS4Y4z3IBBJMofktDBQZzD1/R0Prb91WADNca6bItociQfODZW0Ksz5FkTZbl4tYx5AIIAVFWV/ZbB5zOLA/Eqtg1b9IvkUTM/VB5XAYWnCFtAVprrvsLc9Cw5gIIJ7CcxFqEWYcDubFlzgDhweM2ThjAjSSRZgyjB4wpLA1YimL7L5VjBYZ+3DmGCoeLlpXD0Hq798HueK6xMMQj8FuFJBdA6ITVhs5LkINeaJ8C5ggQkqbCHoNH7JClJu4SL0yk2PvGG/l/3NeH9KdpA89a6+m7p38evrYspH45AeIJgcTfiV/JMWVOAMGDgF9c62az0Q9BXyxrXjmSwqxOnaUS7hCyjfOoRXCkDGdPzgkQbOIwmFikxEnsXADC8olZgKVUVCAsIL1CbsFT1sIKX4LAAb1Z3X7elitfSk6AeHx5SpA5zAEgkJq9QxLcsbmEpQ1LnJxCGourGyokcG7sXI4wqDBTWYSksd9lKdB3b06AYP1AwRYzIf3CrWPM1AlzAIh1fzb02Z4pCW6oXHKxJMKTh0oJrjDr86PvBPIRtx6WnAChM55MVTxgHvRYYlVwbjPvmGm2MX0SI/GqTMr7gHGWOzuwnxrSZfidrXtULHGkFcwSL58bIDivkY/CIiw9WGeOxeE7JUA8+zKL7rgXKlRP+rxt7eAWbmE4GTvs1qM/DBmnWZVYYolFG3eWBCWMVcgpQiDVGDIVQKBJeu0YA9pSJ35KT83QFvkVLcR6+EY9OEO7fVVA2mcNPcBCyMyWRXLPIHSK9Amcklsky6FOT4NTAYSN4gMtSgjcCxFaDh5lqJFIPTZUsm2GtzRIJCCzgUUgBSHYLdvB6hgAgekCvlOL4DcD64T1NH5IG1MApOTs0eggxyxCOnDW70PlaSP+CHBybs2PCE0uCWmzyRgAwVWCqdGiaAY0lslwCoBATMGBXklx8T51Ogj/8HUNnR4rbIHciqTgsAocyniWZ5MxAELnPEQJWB+YRTjkySlTAMRDc8qYWeJwSm7lG2v0RThqhGQbsjwLXwCHlRxa5hYsibc1VurmvtrVzlgA8S4xxnCfngIgrIWtOUjaXgUABGI+q8B2aV3ettsghhsqn6FCht/Th9488D4PCyZVE7hlpVDd26WxAELDHoJhiByYRVgL55LSACGykghLi2DYOKVTwEOGEfWNwuRuITk4RxIvdE7x+F3R/ihMNGMCxEtRn/vgsDRAPCQWbCzZYLYFaxIvrMUzIfqLTuYosnANldzWRxw5PXxkvyrpIUM7bblvTIDQDxgNzYTBiYkiV17u0gDhZce6Y5G+rLk46XGIOlRCLIJp/3eDoY2lIDlvOoxuMzhxMpNa/dVgmufEHcNQdhkbIPeW9BxHr3EvYJNGjHRUSgPE8yvYlzkXmn/o/ocKrj7EmnjlIkk3NBQmGSjRpDnEm8ks94rjMmMZGyA05okToVwuxozSACEIyuoV0DeDWM2u/BjdJ/C2Ej9hcceHdhTmkKh4l+MYQ4gTeXu0A33lSwDkvpJYG3uEUFQrKV23ndIA8YQfbzvk81gCo2tx65IuCsjmWXm8Lyg7OqtKCYAwEK9lgqUWMdsE8nilNEBYLkF+YJFtriIeV5XorEscPNagoYIpmkO9iHjzJOI3xuxhtRia+loKIF7bNoMhFTWzkFdKA4R+evKmkOSHfPKYuHHX8aS5I2W3ldygrVdrvzHlew81aRfLk9excIyAscu9Y6UAQsPPCNjMI4dAUwAEF4wxTph3/UgQrGYJdtpW1xsk3dTwS/SCQDJNXPQBs4XJsekavM7wO48uJQFyvbSf4NMj3iixKQCSK8m9RU8EZsGUEhG4pG5mqICErBglrII7C+DwstoUIz8vCRCUGFlq4afEfoRfOYtMARAO+YgFsTpsWsbVvTeUKCZVhj/TSYZOwNl1D8P9za1Y+TzAonwpqqFNX0sDhDYjSy1+4XCBtiREmQIgjNPjKuJ41zZFogeETbsYCyzJLj3Re7ineAndMCKQ45LlZBGZAiDRpRaHZ5aArKkAUnIWyTF78MIx62FeHirWtN5EIGLS9gpLSJaSxWQKgDA4Boofj1csm7SpAJJjnEP0k5NZxGqOtySoic6oY0Yv9up5KoDQIUyaEWbwoY5yUwKEcZIsKCc1T/thcpJs4bHaBzjOnfBrGipstDEt75N7SsLi5RX6hU/fh70VeMtNCRD6DNNghIFiSIajqQHCOK19GPo8T5bEviyXQB9kSX8NQQeGk13iIZ5u10dSH8CBy1JxmRogxB6g5BMCI9+3xLC+nLl5sZqhEUIaPXVu6sKpkB+WMPdsR+9W58jzE5NN3+Pzhs626yuZru9y45gaIHSIOGI2exHZFbgzF4AwPk7HWYtHBM8CqG2yEKN1OmL1idrlPcxJN+kRIjJGQJapP3MACB3OQXLAhhHXBeKq2zIngNAvuMNYGlppekiUikeBNU+f5YV4haTbGAr0GUu8/lXtpmG4YWlVKl341mHPBSB0Lrpppw6CZh7a4fqdG0DoJymNseSxwWUG3SWYXtmrMcuOQYvUbtsamoBu8bhuBNIIDBLeQ8CmHtz8MV2PPd69vwVzAgidJaYaNu+IwLGFrR1/KMQKEBz2eGm7M1GkT7vKXit5peJHRTQd3sBw5HK91UH9H+mnVVft/Rq/9k80RkD29ZUgsVdHBpKr7NwAwrgIwokE/TS6aXi2rA+d8i930M7keiZT1QN1qTU1dwMQUiCwrMohY7P9m/o4R4AwgNflSMAoiTX1JyRBpGCVaPCRtb0p74e6x5OQB4BgScuSiyOZjD3czqPpbq4AYcCkij42w8ghpLPk3Ws3WSIDVoYhhqrwsLA0DQIQz4/Ptg5HOb1CSugrPGeA0GcsN1CZTilFvUcLDzQSDp2zq0WCnzwdnjtAGJM1ys2jh31lcOvGNFsqncG+/kT//6iUx8UTtRhtu1u+uAOiZQBLAAjj8WSusuhhyL3EmQMSiAKWLLh+cJ5i8YgeY7z4kZEXhrOU2cpSAIICn5WRgynyQLCKwX8bcb6LtO8tC2s7JvQx090N7RuBWcwcbx5aYKr7lgQQdORhjR9Lt9jpiU0AuPwazlXIF46VimhOzlymFn5YMCcXC3qKDHhpAGGsHAKSe4PT6DkIp76cdOP6HWEUyT0WvGxxaAQYV85dubM+vCXOcpadpNgSAYKibpFIjq05JMZWMgx/DVA4bMRUXVIARXNZOHbH7iOzBcs7HC0XJUsFCEo+Os0kYyey9z5QgnuIr8BDFhLv13gr6inHngKXDAKcYHOEjcSSgDNzd3qrw4UecBCtuDhZMkAaZWPLZ8llSV88xYPCCsapM/SefHLB1MJBJq7rfHIRIHTVdHHAyXd8tGB552JPwaeVBX2KMXM6DziKRwLmGuwhAARd8OtJfvZ75VJMrSekAfZl/GhFsl2FOpCr8KEApNEHaZex8Vvy7OXSZa3nUg0ACsARyZU4G10eGkBQLGG8WEpKU3/O5qFO1BGy7BJByOfByCECpHk4xEMzm5x4ME9rngM5mOXUNvUeMkAYL5Q4WLk4mCpJAzrPVzlvrzAosJziypl0NW8vg7UdOkAa9cByyAFjBUrwhUnFiYuHTWb2riLR4a4FIBUo0Tfl0vJEezJjcLaxClkbQLpAwSxc9yi7X3Vi/EmUQxq9ObnSFAHoWgHSVi4MHLhdAxZO56tcqgEYG0lTADhyE9QtRscVIP//qPBdAihcFobzxTzsAR3ltL8BBakNVi8VINtfAYKKyDdOJiP8nA5ZSJB6QQpcYgn1rkMerHVsFSD7NYZDYAOWU/bfvog74NtqQMFnJIvwIgbs7WQFiE1zpEhmVoEBHS/a69uKT3b3xYmIjQxShLhCh1RlgAYqQAYoaccteNayX2GWITXYXCxinG4DAlztAQVkE1ijqhg1UAFiVNie26EoYmYhzdzx6ZPvXNfO25TYUL9zywWfLX+vkkEDFSAZlDiwimMSUHB54XvfdSVJH9txEVsBACyJTAd2sd7W1UAFSH0nqgZ2aKACpL4eVQMVIPUdqBrwaaDOID691VIr0UAFyEoedB2mTwMVID691VIr0UAFyEoedB2mTwMVID691VIr0UAFyEoedB2mTwMVID691VIr0UAFyEoedB2mTwMVID691VIr0UAFyEoedB2mTwMVID691VIr0UAFyEoedB2mTwMVID691VIr0UAFyEoedB2mTwMVID691VIr0cD/AfpXkG2phpxuAAAAAElFTkSuQmCC;" vertex="1" parent="1">
          <mxGeometry x="469" y="250" width="30" height="30" as="geometry" />
        </mxCell>
        <mxCell id="Ew4Cx2_c2zEZE24tookL-72" value="" style="shape=image;verticalLabelPosition=bottom;labelBackgroundColor=default;verticalAlign=top;aspect=fixed;imageAspect=0;image=data:image/png,iVBORw0KGgoAAAANSUhEUgAAAMgAAADICAYAAACtWK6eAAAAAXNSR0IArs4c6QAAHcNJREFUeF7tnQv4ftlUx7+MxjSRkKI0ozCKkZkuCJNbuZUZUtJVI5eoMEOppnuhKKVMuSSNVC6RomaaMrkkijSEGEJJuUyJmKSk5/POPv/OnHnP+5611j77nPOevZ7nPO/7//3Pvq1zvu/ee+21vusKqlI1UDXQq4ErVN1UDVQN9GugAqS+HVUDOzRQAVJfj6qBCpD6DlQN+DRQZxCf3mqplWigAmQlD7oO06eBChCf3mqplWigAmQlD7oO06eBChCf3mqplWigAmQlD7oO06eBChCf3mqplWigAmQlD7oO06eBChCf3mqplWigAmQlD7oO06eBChCf3mqplWigAmQlD7oO06eBChCf3mqplWigAmT8B32UpE/pXEfv+NsVJf135/r4nr+NP4qVtlABMuzBX0nS50r6HEnXkPQZ6bralu/dvx0zrInQXf8u6UOS2p9937nvXyS9J90favjQC1eASJ+ZXnwA0ICg+/nZB/oifDQBBbC0r3/q/PtAh79/WGsByFUk3ahznZD+fex+Na3+jrdK4roofTb/fv+ha+bQAHJtSSdvAQNLoyr5NfDBLaB5k6S35G9qmhqXDBBmhS+XdPP0yffjplFjbbWjgf+SdKGk13c+L1mappYEkC4Ybrw0Zdf+6m0twACeP5PEPmi2MmeAnCTpjpLulK7ZKrF2LKSBl0s6T9IFkv4yVNMIhecEEDbNt5b0lQkQdd8wwgOfeZXvS2B5hSQujAKTypQAuWaaIQAF15dOqona+Bw18FpJfy7pXEnnT9HB0gC5jqQ7S7pL+uTArUrVwBANvFHSi9P1yiEFctxTAiDHJzA0wKjnDjme3LrreHULLGz2R5OxAMJJ9D1bswWuGlWqBsbQwEskvUjS8yXhAZBVcgPkCyWdnq5rZe1praxqYLcG/lXSMyWdk85fsugrF0A4o2iAUcI5L8vgayUHq4EGKJiOQxIFyB0SML411ItauGpgHA2wqQcsz/NW7wXI7SU9TNJp3oZXVu6TkpqYjnZsR/dvzb9RDzEk3biR9r/b34k5qdKvgVdJekpafpn05AHIT0s6y9TK8m/Gt4gN4LvTJ9+Jt8BNou/6SOv/PjayCljWNjEq2z7bMSr8Py7+nyUJN/4rj9y3OVX/dEn3t3TIApDPk/RcSbe0NLCQe3nh3956+dtA4PsHFjIOTzcBTAMWANP9jkfD9ROoPPXPrQyu+mwJOITcK0MB8mBJv7K3tnnf8I4Egr/vfAIMZogquzXw6QkogKW5viB9v94ClfcoSY/b1+8hAPkjSXfdV9FM/p81PCeuxCQ0n/jzAAL2AVXG0QB7IECDPx0uQ801d386nCR3vtv7APIESWeMo9NwrV0g8G/cqavMRwO4FrUBw/e5geaJkh7ep7JdAGGd9pvz0fVmzUj8wJ+ka0Zdq10xaADQsI/F9YhwhhsYyo51632TOfhy9fcB5GuSr8tYHRpS7xsk/UVyewYUh7xRHqKPQ70HrgDAQpgDXt2ETU8hpyaXlcu0vQ0gX5FezNKdfG+aGV6W2v+70h2o7c1CA5yx3SaBBeCUFEBKHMoR6QIE/ykivPCpKiFsnpkd8PXnc9bhlyUUUtu4jAZulpxe7yGJ72ML7yNOtuxnN9IFyEMknT1yL/6mtY/405HbqtUfjgbuJgmg8AJz0DmWYJh6RB9A2ATfboSW/1nSs9NB4+zijkcYb61yPA0ADkACWABNbuFdvamkf+vOIAADgOQUwiUBBhfuyFWqBnJq4GslPVDS3XNWKum7m4Px9hKLpRVLrKhAvPw7CRTEElepGhhbA7mBwj78tu0ZhM05p8/RIKefSODA36VK1UBpDeQECha085sZJMfmnBNSWMOrVA1MrYHvl/SzwU48Q9L9GoD8mqTvDFR470hQSqDdWrRqoE8DvM+81155s6SbNABhzXWKs6anSnqQs2wtVjUwpgbwsfoFZwN4eF+tAQhLI+8RP6eexXiKnIOtxdapAZwjB8V99KhnM4MAjMjegY39xevUfx31AjSAD5/3YPFUAMLSiiWWV/a5zHvrreWqBnJoIHL4fQYvd3QzUwGS4zHWOsbSQAQgT+Ll/nFJPxboXQVIQHm16OgaiADkXF7un5T0I4FuVoAElFeLjq6BCEBeyssdpfGpABn9GdcGAhoIA+Sxkn4g0IEKkIDyatHRNRAGCEfyHM17pQLEq7laroQGwgB5vKRHBnpaARJQXi06ugbCAPl5SWcGulkB0q888qLAsWu5CBfou/6n5/8Cj+/gi4YBgq9KLy/QAPUdMkDgreUUFm8BPuG4bS4oO/d9L5U46EOSLBe8wpwwc31wwDNe8i1hgECc9dCABpYGkKtKgjKTLFi8+M3VAKH9N+g2D12YlRqw4DLUfO/+7Z2S/mGByggD5JclfU9g4HMEyHEJBAChe0WDwgKqWnxR6FsByrvSZ/s7fyOee24SBgik1JBTe4VlxCe8hYPlPl/Syek6KXHDAohSS5tg9w+uOC7iAAUK2AslwWDDBZCmkjBAnhyM5yBr7X8WGP0XSwIEAKL5ZA9QZf4aYH8EUBrQ8AlzZgkJA4SApwcEespmFQXkFMJ3YXiE6e5WCRQ1i1JODU9fF6sOQEP2J9hvSO38jyN0KwyQaLgtSVfeHxzYiZJIBHqLBIovCtZXiy9TA+Rugfrzr1KgE8FO0bQVYYD8ekrE6VUpmaes+amxIEH8RTTizdNG2tt+LXe4GuCHtwHLC53pncMA+Q1J0L97hcQpZG8aIg0jHp+YW6tUDVg0QDIngPJ7hijWMEDIARJJ48xy6C07RskM0XCqliLFtii93rs8DXBeA0gAC6DZJWGA/Jakbw7oCNbtbRYJmE6+ISVJCVRfi1YN7NTA6xNQWAlhYu5KGCDQhN4n8BDYXLeZIziVJ4wXs2yVqoFSGrgk8WCdI+l1rUbDAHmOJIjfvEJWIDJBcRrPRcagtQgPBb8mLkzd7c/m7+1P/J44TIM5nNzpnCF9avokFdmNk+IgLSNXBfVzxsR1tKSrp+sakrj4dzsvepMPvZ0XfQ3uMt337QWSnpLyzoQB8jxJXx94o09PMe1LTAXcHjYvLFaT96VPvjdX8zde8DYI8LodIljr7pRSjbEniwizNcmGyK0CH9m+FNa4AjUgaoCDuw350Jur/W++A75DEGaSDwdSemxCbp8v6esOQRs7xoDj3bvTQRSHUc13zNMNCFBkLiG/BKCAUgkS5LFeOGYWwMJBG2BhJs8huOoAHsACbxqm/G0XM+AhywYgWAJOO4BR8uI37gx8bwOhhCsMKvy2ZBFktphCMJZgleRi1htbrtkBDib/L0vXIYBnA5A/GCEBydgPhgSfbd8evk+VoAdPAoDBNRfDBOBogFLK56n7zNlPNWBpPgkcW5JsAPJiSaR9nqv8rSTStjWeoXyyX5haAEMDDEAyVwEoz0ob1qn7yJFAFzRT92lX+xuAcNBy1xn1kk0wVKjnSfrDkRzYosP9UUkkC1qS4HN3Vga/udxjvqOkr0oZnXBQnZNsAMKLWDofdVcJr0mgwCQHKOYqPECA8dVz7eCefjEb/1BaNcxxCFjZAAwGjlsmj+4p+7kBCDnKp3jgf52y3rIH2uWqMqWC2m1DjQQ4jplLhwL9gCwwwqYZaNpU9LqS7tByVTIVznDzBiAvSZ3IUN/eKv5XEgeTXL+/9+553ECAFvSs5L87JME8zJKL2XsJgh9f4+waPUsaOt4NQCInjUMbIlb5aQkYWKCWIng5Q2pxqJGLnP2Q8phN/JKEZRjeH6SAHlPOAyBRZ8VdHWyAwbF/JEnPmEroq/tRkn5mioYnaBP/Ocg7liZkkAIkYwHl7Bzs7n1KhdKUX9+lAYPx/KKkhxV8Wwg/bU70PyoJszHXVQr2AcvcTxVsL2dTAIU9YsSncFt/zgQg3yGJlLe5BN+un0uRYLnqLFnPsyV944gNcnDH+p/zp8b3q++QE4A0YCGxPeZ4b7LVIUN6gqRHDLlxpvd8e9pXnZCpf6flSMHW9OUjifyBF2ypgon5bpk7z+zwuynWGmBcFKwf944GKBzwEr6cUwjBjqQEz9kXT13o5wczAf1EAAKDyHs8PWmVYf36fQM8S4PNjFo8t0cBG2BmZl64sdw9cCjEm/p+iRMsl4KeGQzDztWPSD23S17mfHrl2IYVEddpLANWIWaBdR/uH0sWXEZ4KXLIexMoAAYsHSXk0xJIAAtm6RyCdQtSwaULS0ZSDFo5EF4q6fYNQO6fzLBWZeCmwstFANBSBae6N2XqPGGfHCZuC/3M1MTearC+kRCJGJCI4PKDCwgHuksVZg8MD5zMW2XzA9EAhF8g3BCg8rQKB01YEEDc0oS4B6L3bhjsOIAAGABkDnKTBJIIGQfj+GNJd5nDgBx9IDkts4fHEsi+8ToQebeJpx+d/HQcfdkUYWO0tHODJ6WDMu+YKTeHWaOv/1jjcCkBMF7BiyCSBdnbbqRcNEqWkN170YE2QGA3ZBaJCNGJkfDdSNvWshyOcU4TEc5KfilSQYGyLCGfGwQJbjZzdiJt1EgKCzzBo8ycmIsJE7gMQPg3MwBr2IiQQwIK0RIRbd5+spFtM1946rn7jL1iu+OJggRd8UzJJTJXIc4kh18Zlkesghvp5vZgY0d8c2RKburGoSxHh8d4INGlFfph77IkiYLkjORhMMcxEy+fg/ga1yj0dISMfVvyGzZ2m+klg0BVM5T5I0Nzg6pAAVhmvG7r0PTMIaJx0GA7NzF2zns8xhhM1swiU4U2942X54hHgtWMu60+4n1gmT8ifdmhcrlb4NIO7eicJJK0lLOiC+Y0GEdfvknSbzvKUQRLHdahOQkbatzgo7J1bH0AYZPDwRnruqgQc/CYaCWZypN9ivW0x30db4FILsdMQ8hSjdcZk9mDWaTUAei+wUYT0Db1M6uyp7yc7MoviE8LIMnhm/QtgV+tfUqy/L/XlP0iSadaGpr5vZx7ESjHy24VwMV+ZGrBX4w4+6iwH/3evkqGJOB8entX7+wNOR48D8PZ3NZiOPWx97AykGD6xikQsrlDEpaLuBhZBUsWzzJqBbS2273/ZSnZkrceDgM5SNxp6h8CEDrg/eVtdx6XlCkj1+AN9gQFHYpP0rYXybvUmvpQmNk8ErLNDyXuOHt/IIYCBOUSlMLBGC+6RwjtJQB/KvEQ5BEe/CULtlrt0zXWLKw2eAVbBCacKamiCB/YnHQ7hFglPM8HiQUgTYVYMbyuB3AAk/iktLCfwsaN2dki+Jg93lJggfdCA8QKwSKYuQHVf1gKZboXU6yXg9hshfMAhHHiXtG7sdmhiF5rQSbl9VXjiZrk4InZY252/9yqYsPOLIKrkUWm+rHzmukJVjNzJnsBgiLx7yGDlEVwoWaT/HFLoQz3epzXzL82Gfo5VRUsndmPWIRYEfZnpYUsuFb3deKV+LEzSwQgNPZGh1sKuc8ZZEnBdcCaSKabOatkf0u35XFUhewv6hRoHSezHTlarCTYbr+5KEA8+xE2SGyUSgnTKnENFoEsG+rLNQm5/qzs9Mdn8oEaqmePaTp0hhUFiCcar7RLPGC0MnVgAoS2aE2CMeKRxgGT/JUcl6XEY1Bwzx4MKgoQ6rAyM5LVCe/LUmLtH/0C+EtigMyhS89MW3qfxtmH1aOBDFnu0IscAPEss9io44FZQqwAIT7datEpMY4SbXzS2EhpgBBrdJyhj4RCezyXjzSRAyAExvMSWgQyAHyBSogVIBs2ixIdm2EbuF9c0dCvkuG4GFmOxGkM7CNRkCHS8RwAIUGl9azg4ft8YAYqYMhtFSBDtHTpPfhZHTX8dpVMo3CrlKjU0D09NsizkGUPQofZV1gY/vDCfIBlpIF7K0CGK4/zKYsJlRP4Hx5efejOB0l6srGGsBEhxwxCn61p3EqaUStAhr9V5Fy3uOOEf6GHd23jaIrDqUXYS4Y4z3IBBJMofktDBQZzD1/R0Prb91WADNca6bItociQfODZW0Ksz5FkTZbl4tYx5AIIAVFWV/ZbB5zOLA/Eqtg1b9IvkUTM/VB5XAYWnCFtAVprrvsLc9Cw5gIIJ7CcxFqEWYcDubFlzgDhweM2ThjAjSSRZgyjB4wpLA1YimL7L5VjBYZ+3DmGCoeLlpXD0Hq798HueK6xMMQj8FuFJBdA6ITVhs5LkINeaJ8C5ggQkqbCHoNH7JClJu4SL0yk2PvGG/l/3NeH9KdpA89a6+m7p38evrYspH45AeIJgcTfiV/JMWVOAMGDgF9c62az0Q9BXyxrXjmSwqxOnaUS7hCyjfOoRXCkDGdPzgkQbOIwmFikxEnsXADC8olZgKVUVCAsIL1CbsFT1sIKX4LAAb1Z3X7elitfSk6AeHx5SpA5zAEgkJq9QxLcsbmEpQ1LnJxCGourGyokcG7sXI4wqDBTWYSksd9lKdB3b06AYP1AwRYzIf3CrWPM1AlzAIh1fzb02Z4pCW6oXHKxJMKTh0oJrjDr86PvBPIRtx6WnAChM55MVTxgHvRYYlVwbjPvmGm2MX0SI/GqTMr7gHGWOzuwnxrSZfidrXtULHGkFcwSL58bIDivkY/CIiw9WGeOxeE7JUA8+zKL7rgXKlRP+rxt7eAWbmE4GTvs1qM/DBmnWZVYYolFG3eWBCWMVcgpQiDVGDIVQKBJeu0YA9pSJ35KT83QFvkVLcR6+EY9OEO7fVVA2mcNPcBCyMyWRXLPIHSK9Amcklsky6FOT4NTAYSN4gMtSgjcCxFaDh5lqJFIPTZUsm2GtzRIJCCzgUUgBSHYLdvB6hgAgekCvlOL4DcD64T1NH5IG1MApOTs0eggxyxCOnDW70PlaSP+CHBybs2PCE0uCWmzyRgAwVWCqdGiaAY0lslwCoBATMGBXklx8T51Ogj/8HUNnR4rbIHciqTgsAocyniWZ5MxAELnPEQJWB+YRTjkySlTAMRDc8qYWeJwSm7lG2v0RThqhGQbsjwLXwCHlRxa5hYsibc1VurmvtrVzlgA8S4xxnCfngIgrIWtOUjaXgUABGI+q8B2aV3ettsghhsqn6FCht/Th9488D4PCyZVE7hlpVDd26WxAELDHoJhiByYRVgL55LSACGykghLi2DYOKVTwEOGEfWNwuRuITk4RxIvdE7x+F3R/ihMNGMCxEtRn/vgsDRAPCQWbCzZYLYFaxIvrMUzIfqLTuYosnANldzWRxw5PXxkvyrpIUM7bblvTIDQDxgNzYTBiYkiV17u0gDhZce6Y5G+rLk46XGIOlRCLIJp/3eDoY2lIDlvOoxuMzhxMpNa/dVgmufEHcNQdhkbIPeW9BxHr3EvYJNGjHRUSgPE8yvYlzkXmn/o/ocKrj7EmnjlIkk3NBQmGSjRpDnEm8ks94rjMmMZGyA05okToVwuxozSACEIyuoV0DeDWM2u/BjdJ/C2Ej9hcceHdhTmkKh4l+MYQ4gTeXu0A33lSwDkvpJYG3uEUFQrKV23ndIA8YQfbzvk81gCo2tx65IuCsjmWXm8Lyg7OqtKCYAwEK9lgqUWMdsE8nilNEBYLkF+YJFtriIeV5XorEscPNagoYIpmkO9iHjzJOI3xuxhtRia+loKIF7bNoMhFTWzkFdKA4R+evKmkOSHfPKYuHHX8aS5I2W3ldygrVdrvzHlew81aRfLk9excIyAscu9Y6UAQsPPCNjMI4dAUwAEF4wxTph3/UgQrGYJdtpW1xsk3dTwS/SCQDJNXPQBs4XJsekavM7wO48uJQFyvbSf4NMj3iixKQCSK8m9RU8EZsGUEhG4pG5mqICErBglrII7C+DwstoUIz8vCRCUGFlq4afEfoRfOYtMARAO+YgFsTpsWsbVvTeUKCZVhj/TSYZOwNl1D8P9za1Y+TzAonwpqqFNX0sDhDYjSy1+4XCBtiREmQIgjNPjKuJ41zZFogeETbsYCyzJLj3Re7ineAndMCKQ45LlZBGZAiDRpRaHZ5aArKkAUnIWyTF78MIx62FeHirWtN5EIGLS9gpLSJaSxWQKgDA4Boofj1csm7SpAJJjnEP0k5NZxGqOtySoic6oY0Yv9up5KoDQIUyaEWbwoY5yUwKEcZIsKCc1T/thcpJs4bHaBzjOnfBrGipstDEt75N7SsLi5RX6hU/fh70VeMtNCRD6DNNghIFiSIajqQHCOK19GPo8T5bEviyXQB9kSX8NQQeGk13iIZ5u10dSH8CBy1JxmRogxB6g5BMCI9+3xLC+nLl5sZqhEUIaPXVu6sKpkB+WMPdsR+9W58jzE5NN3+Pzhs626yuZru9y45gaIHSIOGI2exHZFbgzF4AwPk7HWYtHBM8CqG2yEKN1OmL1idrlPcxJN+kRIjJGQJapP3MACB3OQXLAhhHXBeKq2zIngNAvuMNYGlppekiUikeBNU+f5YV4haTbGAr0GUu8/lXtpmG4YWlVKl341mHPBSB0Lrpppw6CZh7a4fqdG0DoJymNseSxwWUG3SWYXtmrMcuOQYvUbtsamoBu8bhuBNIIDBLeQ8CmHtz8MV2PPd69vwVzAgidJaYaNu+IwLGFrR1/KMQKEBz2eGm7M1GkT7vKXit5peJHRTQd3sBw5HK91UH9H+mnVVft/Rq/9k80RkD29ZUgsVdHBpKr7NwAwrgIwokE/TS6aXi2rA+d8i930M7keiZT1QN1qTU1dwMQUiCwrMohY7P9m/o4R4AwgNflSMAoiTX1JyRBpGCVaPCRtb0p74e6x5OQB4BgScuSiyOZjD3czqPpbq4AYcCkij42w8ghpLPk3Ws3WSIDVoYhhqrwsLA0DQIQz4/Ptg5HOb1CSugrPGeA0GcsN1CZTilFvUcLDzQSDp2zq0WCnzwdnjtAGJM1ys2jh31lcOvGNFsqncG+/kT//6iUx8UTtRhtu1u+uAOiZQBLAAjj8WSusuhhyL3EmQMSiAKWLLh+cJ5i8YgeY7z4kZEXhrOU2cpSAIICn5WRgynyQLCKwX8bcb6LtO8tC2s7JvQx090N7RuBWcwcbx5aYKr7lgQQdORhjR9Lt9jpiU0AuPwazlXIF46VimhOzlymFn5YMCcXC3qKDHhpAGGsHAKSe4PT6DkIp76cdOP6HWEUyT0WvGxxaAQYV85dubM+vCXOcpadpNgSAYKibpFIjq05JMZWMgx/DVA4bMRUXVIARXNZOHbH7iOzBcs7HC0XJUsFCEo+Os0kYyey9z5QgnuIr8BDFhLv13gr6inHngKXDAKcYHOEjcSSgDNzd3qrw4UecBCtuDhZMkAaZWPLZ8llSV88xYPCCsapM/SefHLB1MJBJq7rfHIRIHTVdHHAyXd8tGB552JPwaeVBX2KMXM6DziKRwLmGuwhAARd8OtJfvZ75VJMrSekAfZl/GhFsl2FOpCr8KEApNEHaZex8Vvy7OXSZa3nUg0ACsARyZU4G10eGkBQLGG8WEpKU3/O5qFO1BGy7BJByOfByCECpHk4xEMzm5x4ME9rngM5mOXUNvUeMkAYL5Q4WLk4mCpJAzrPVzlvrzAosJziypl0NW8vg7UdOkAa9cByyAFjBUrwhUnFiYuHTWb2riLR4a4FIBUo0Tfl0vJEezJjcLaxClkbQLpAwSxc9yi7X3Vi/EmUQxq9ObnSFAHoWgHSVi4MHLhdAxZO56tcqgEYG0lTADhyE9QtRscVIP//qPBdAihcFobzxTzsAR3ltL8BBakNVi8VINtfAYKKyDdOJiP8nA5ZSJB6QQpcYgn1rkMerHVsFSD7NYZDYAOWU/bfvog74NtqQMFnJIvwIgbs7WQFiE1zpEhmVoEBHS/a69uKT3b3xYmIjQxShLhCh1RlgAYqQAYoaccteNayX2GWITXYXCxinG4DAlztAQVkE1ijqhg1UAFiVNie26EoYmYhzdzx6ZPvXNfO25TYUL9zywWfLX+vkkEDFSAZlDiwimMSUHB54XvfdSVJH9txEVsBACyJTAd2sd7W1UAFSH0nqgZ2aKACpL4eVQMVIPUdqBrwaaDOID691VIr0UAFyEoedB2mTwMVID691VIr0UAFyEoedB2mTwMVID691VIr0UAFyEoedB2mTwMVID691VIr0UAFyEoedB2mTwMVID691VIr0UAFyEoedB2mTwMVID691VIr0UAFyEoedB2mTwMVID691VIr0UAFyEoedB2mTwMVID691VIr0cD/AfpXkG2phpxuAAAAAElFTkSuQmCC;direction=west;" vertex="1" parent="1">
          <mxGeometry x="154" y="422" width="30" height="30" as="geometry" />
        </mxCell>
        <mxCell id="Ew4Cx2_c2zEZE24tookL-73" value="" style="shape=image;verticalLabelPosition=bottom;labelBackgroundColor=default;verticalAlign=top;aspect=fixed;imageAspect=0;image=data:image/png,iVBORw0KGgoAAAANSUhEUgAAAMgAAADICAYAAACtWK6eAAAAAXNSR0IArs4c6QAAHcNJREFUeF7tnQv4ftlUx7+MxjSRkKI0ozCKkZkuCJNbuZUZUtJVI5eoMEOppnuhKKVMuSSNVC6RomaaMrkkijSEGEJJuUyJmKSk5/POPv/OnHnP+5611j77nPOevZ7nPO/7//3Pvq1zvu/ee+21vusKqlI1UDXQq4ErVN1UDVQN9GugAqS+HVUDOzRQAVJfj6qBCpD6DlQN+DRQZxCf3mqplWigAmQlD7oO06eBChCf3mqplWigAmQlD7oO06eBChCf3mqplWigAmQlD7oO06eBChCf3mqplWigAmQlD7oO06eBChCf3mqplWigAmQlD7oO06eBChCf3mqplWigAmQlD7oO06eBChCf3mqplWigAmT8B32UpE/pXEfv+NsVJf135/r4nr+NP4qVtlABMuzBX0nS50r6HEnXkPQZ6bralu/dvx0zrInQXf8u6UOS2p9937nvXyS9J90favjQC1eASJ+ZXnwA0ICg+/nZB/oifDQBBbC0r3/q/PtAh79/WGsByFUk3ahznZD+fex+Na3+jrdK4roofTb/fv+ha+bQAHJtSSdvAQNLoyr5NfDBLaB5k6S35G9qmhqXDBBmhS+XdPP0yffjplFjbbWjgf+SdKGk13c+L1mappYEkC4Ybrw0Zdf+6m0twACeP5PEPmi2MmeAnCTpjpLulK7ZKrF2LKSBl0s6T9IFkv4yVNMIhecEEDbNt5b0lQkQdd8wwgOfeZXvS2B5hSQujAKTypQAuWaaIQAF15dOqona+Bw18FpJfy7pXEnnT9HB0gC5jqQ7S7pL+uTArUrVwBANvFHSi9P1yiEFctxTAiDHJzA0wKjnDjme3LrreHULLGz2R5OxAMJJ9D1bswWuGlWqBsbQwEskvUjS8yXhAZBVcgPkCyWdnq5rZe1praxqYLcG/lXSMyWdk85fsugrF0A4o2iAUcI5L8vgayUHq4EGKJiOQxIFyB0SML411ItauGpgHA2wqQcsz/NW7wXI7SU9TNJp3oZXVu6TkpqYjnZsR/dvzb9RDzEk3biR9r/b34k5qdKvgVdJekpafpn05AHIT0s6y9TK8m/Gt4gN4LvTJ9+Jt8BNou/6SOv/PjayCljWNjEq2z7bMSr8Py7+nyUJN/4rj9y3OVX/dEn3t3TIApDPk/RcSbe0NLCQe3nh3956+dtA4PsHFjIOTzcBTAMWANP9jkfD9ROoPPXPrQyu+mwJOITcK0MB8mBJv7K3tnnf8I4Egr/vfAIMZogquzXw6QkogKW5viB9v94ClfcoSY/b1+8hAPkjSXfdV9FM/p81PCeuxCQ0n/jzAAL2AVXG0QB7IECDPx0uQ801d386nCR3vtv7APIESWeMo9NwrV0g8G/cqavMRwO4FrUBw/e5geaJkh7ep7JdAGGd9pvz0fVmzUj8wJ+ka0Zdq10xaADQsI/F9YhwhhsYyo51632TOfhy9fcB5GuSr8tYHRpS7xsk/UVyewYUh7xRHqKPQ70HrgDAQpgDXt2ETU8hpyaXlcu0vQ0gX5FezNKdfG+aGV6W2v+70h2o7c1CA5yx3SaBBeCUFEBKHMoR6QIE/ykivPCpKiFsnpkd8PXnc9bhlyUUUtu4jAZulpxe7yGJ72ML7yNOtuxnN9IFyEMknT1yL/6mtY/405HbqtUfjgbuJgmg8AJz0DmWYJh6RB9A2ATfboSW/1nSs9NB4+zijkcYb61yPA0ADkACWABNbuFdvamkf+vOIAADgOQUwiUBBhfuyFWqBnJq4GslPVDS3XNWKum7m4Px9hKLpRVLrKhAvPw7CRTEElepGhhbA7mBwj78tu0ZhM05p8/RIKefSODA36VK1UBpDeQECha085sZJMfmnBNSWMOrVA1MrYHvl/SzwU48Q9L9GoD8mqTvDFR470hQSqDdWrRqoE8DvM+81155s6SbNABhzXWKs6anSnqQs2wtVjUwpgbwsfoFZwN4eF+tAQhLI+8RP6eexXiKnIOtxdapAZwjB8V99KhnM4MAjMjegY39xevUfx31AjSAD5/3YPFUAMLSiiWWV/a5zHvrreWqBnJoIHL4fQYvd3QzUwGS4zHWOsbSQAQgT+Ll/nFJPxboXQVIQHm16OgaiADkXF7un5T0I4FuVoAElFeLjq6BCEBeyssdpfGpABn9GdcGAhoIA+Sxkn4g0IEKkIDyatHRNRAGCEfyHM17pQLEq7laroQGwgB5vKRHBnpaARJQXi06ugbCAPl5SWcGulkB0q888qLAsWu5CBfou/6n5/8Cj+/gi4YBgq9KLy/QAPUdMkDgreUUFm8BPuG4bS4oO/d9L5U46EOSLBe8wpwwc31wwDNe8i1hgECc9dCABpYGkKtKgjKTLFi8+M3VAKH9N+g2D12YlRqw4DLUfO/+7Z2S/mGByggD5JclfU9g4HMEyHEJBAChe0WDwgKqWnxR6FsByrvSZ/s7fyOee24SBgik1JBTe4VlxCe8hYPlPl/Syek6KXHDAohSS5tg9w+uOC7iAAUK2AslwWDDBZCmkjBAnhyM5yBr7X8WGP0XSwIEAKL5ZA9QZf4aYH8EUBrQ8AlzZgkJA4SApwcEespmFQXkFMJ3YXiE6e5WCRQ1i1JODU9fF6sOQEP2J9hvSO38jyN0KwyQaLgtSVfeHxzYiZJIBHqLBIovCtZXiy9TA+Rugfrzr1KgE8FO0bQVYYD8ekrE6VUpmaes+amxIEH8RTTizdNG2tt+LXe4GuCHtwHLC53pncMA+Q1J0L97hcQpZG8aIg0jHp+YW6tUDVg0QDIngPJ7hijWMEDIARJJ48xy6C07RskM0XCqliLFtii93rs8DXBeA0gAC6DZJWGA/Jakbw7oCNbtbRYJmE6+ISVJCVRfi1YN7NTA6xNQWAlhYu5KGCDQhN4n8BDYXLeZIziVJ4wXs2yVqoFSGrgk8WCdI+l1rUbDAHmOJIjfvEJWIDJBcRrPRcagtQgPBb8mLkzd7c/m7+1P/J44TIM5nNzpnCF9avokFdmNk+IgLSNXBfVzxsR1tKSrp+sakrj4dzsvepMPvZ0XfQ3uMt337QWSnpLyzoQB8jxJXx94o09PMe1LTAXcHjYvLFaT96VPvjdX8zde8DYI8LodIljr7pRSjbEniwizNcmGyK0CH9m+FNa4AjUgaoCDuw350Jur/W++A75DEGaSDwdSemxCbp8v6esOQRs7xoDj3bvTQRSHUc13zNMNCFBkLiG/BKCAUgkS5LFeOGYWwMJBG2BhJs8huOoAHsACbxqm/G0XM+AhywYgWAJOO4BR8uI37gx8bwOhhCsMKvy2ZBFktphCMJZgleRi1htbrtkBDib/L0vXIYBnA5A/GCEBydgPhgSfbd8evk+VoAdPAoDBNRfDBOBogFLK56n7zNlPNWBpPgkcW5JsAPJiSaR9nqv8rSTStjWeoXyyX5haAEMDDEAyVwEoz0ob1qn7yJFAFzRT92lX+xuAcNBy1xn1kk0wVKjnSfrDkRzYosP9UUkkC1qS4HN3Vga/udxjvqOkr0oZnXBQnZNsAMKLWDofdVcJr0mgwCQHKOYqPECA8dVz7eCefjEb/1BaNcxxCFjZAAwGjlsmj+4p+7kBCDnKp3jgf52y3rIH2uWqMqWC2m1DjQQ4jplLhwL9gCwwwqYZaNpU9LqS7tByVTIVznDzBiAvSZ3IUN/eKv5XEgeTXL+/9+553ECAFvSs5L87JME8zJKL2XsJgh9f4+waPUsaOt4NQCInjUMbIlb5aQkYWKCWIng5Q2pxqJGLnP2Q8phN/JKEZRjeH6SAHlPOAyBRZ8VdHWyAwbF/JEnPmEroq/tRkn5mioYnaBP/Ocg7liZkkAIkYwHl7Bzs7n1KhdKUX9+lAYPx/KKkhxV8Wwg/bU70PyoJszHXVQr2AcvcTxVsL2dTAIU9YsSncFt/zgQg3yGJlLe5BN+un0uRYLnqLFnPsyV944gNcnDH+p/zp8b3q++QE4A0YCGxPeZ4b7LVIUN6gqRHDLlxpvd8e9pXnZCpf6flSMHW9OUjifyBF2ypgon5bpk7z+zwuynWGmBcFKwf944GKBzwEr6cUwjBjqQEz9kXT13o5wczAf1EAAKDyHs8PWmVYf36fQM8S4PNjFo8t0cBG2BmZl64sdw9cCjEm/p+iRMsl4KeGQzDztWPSD23S17mfHrl2IYVEddpLANWIWaBdR/uH0sWXEZ4KXLIexMoAAYsHSXk0xJIAAtm6RyCdQtSwaULS0ZSDFo5EF4q6fYNQO6fzLBWZeCmwstFANBSBae6N2XqPGGfHCZuC/3M1MTearC+kRCJGJCI4PKDCwgHuksVZg8MD5zMW2XzA9EAhF8g3BCg8rQKB01YEEDc0oS4B6L3bhjsOIAAGABkDnKTBJIIGQfj+GNJd5nDgBx9IDkts4fHEsi+8ToQebeJpx+d/HQcfdkUYWO0tHODJ6WDMu+YKTeHWaOv/1jjcCkBMF7BiyCSBdnbbqRcNEqWkN170YE2QGA3ZBaJCNGJkfDdSNvWshyOcU4TEc5KfilSQYGyLCGfGwQJbjZzdiJt1EgKCzzBo8ycmIsJE7gMQPg3MwBr2IiQQwIK0RIRbd5+spFtM1946rn7jL1iu+OJggRd8UzJJTJXIc4kh18Zlkesghvp5vZgY0d8c2RKburGoSxHh8d4INGlFfph77IkiYLkjORhMMcxEy+fg/ga1yj0dISMfVvyGzZ2m+klg0BVM5T5I0Nzg6pAAVhmvG7r0PTMIaJx0GA7NzF2zns8xhhM1swiU4U2942X54hHgtWMu60+4n1gmT8ifdmhcrlb4NIO7eicJJK0lLOiC+Y0GEdfvknSbzvKUQRLHdahOQkbatzgo7J1bH0AYZPDwRnruqgQc/CYaCWZypN9ivW0x30db4FILsdMQ8hSjdcZk9mDWaTUAei+wUYT0Db1M6uyp7yc7MoviE8LIMnhm/QtgV+tfUqy/L/XlP0iSadaGpr5vZx7ESjHy24VwMV+ZGrBX4w4+6iwH/3evkqGJOB8entX7+wNOR48D8PZ3NZiOPWx97AykGD6xikQsrlDEpaLuBhZBUsWzzJqBbS2273/ZSnZkrceDgM5SNxp6h8CEDrg/eVtdx6XlCkj1+AN9gQFHYpP0rYXybvUmvpQmNk8ErLNDyXuOHt/IIYCBOUSlMLBGC+6RwjtJQB/KvEQ5BEe/CULtlrt0zXWLKw2eAVbBCacKamiCB/YnHQ7hFglPM8HiQUgTYVYMbyuB3AAk/iktLCfwsaN2dki+Jg93lJggfdCA8QKwSKYuQHVf1gKZboXU6yXg9hshfMAhHHiXtG7sdmhiF5rQSbl9VXjiZrk4InZY252/9yqYsPOLIKrkUWm+rHzmukJVjNzJnsBgiLx7yGDlEVwoWaT/HFLoQz3epzXzL82Gfo5VRUsndmPWIRYEfZnpYUsuFb3deKV+LEzSwQgNPZGh1sKuc8ZZEnBdcCaSKabOatkf0u35XFUhewv6hRoHSezHTlarCTYbr+5KEA8+xE2SGyUSgnTKnENFoEsG+rLNQm5/qzs9Mdn8oEaqmePaTp0hhUFiCcar7RLPGC0MnVgAoS2aE2CMeKRxgGT/JUcl6XEY1Bwzx4MKgoQ6rAyM5LVCe/LUmLtH/0C+EtigMyhS89MW3qfxtmH1aOBDFnu0IscAPEss9io44FZQqwAIT7datEpMY4SbXzS2EhpgBBrdJyhj4RCezyXjzSRAyAExvMSWgQyAHyBSogVIBs2ixIdm2EbuF9c0dCvkuG4GFmOxGkM7CNRkCHS8RwAIUGl9azg4ft8YAYqYMhtFSBDtHTpPfhZHTX8dpVMo3CrlKjU0D09NsizkGUPQofZV1gY/vDCfIBlpIF7K0CGK4/zKYsJlRP4Hx5efejOB0l6srGGsBEhxwxCn61p3EqaUStAhr9V5Fy3uOOEf6GHd23jaIrDqUXYS4Y4z3IBBJMofktDBQZzD1/R0Prb91WADNca6bItociQfODZW0Ksz5FkTZbl4tYx5AIIAVFWV/ZbB5zOLA/Eqtg1b9IvkUTM/VB5XAYWnCFtAVprrvsLc9Cw5gIIJ7CcxFqEWYcDubFlzgDhweM2ThjAjSSRZgyjB4wpLA1YimL7L5VjBYZ+3DmGCoeLlpXD0Hq798HueK6xMMQj8FuFJBdA6ITVhs5LkINeaJ8C5ggQkqbCHoNH7JClJu4SL0yk2PvGG/l/3NeH9KdpA89a6+m7p38evrYspH45AeIJgcTfiV/JMWVOAMGDgF9c62az0Q9BXyxrXjmSwqxOnaUS7hCyjfOoRXCkDGdPzgkQbOIwmFikxEnsXADC8olZgKVUVCAsIL1CbsFT1sIKX4LAAb1Z3X7elitfSk6AeHx5SpA5zAEgkJq9QxLcsbmEpQ1LnJxCGourGyokcG7sXI4wqDBTWYSksd9lKdB3b06AYP1AwRYzIf3CrWPM1AlzAIh1fzb02Z4pCW6oXHKxJMKTh0oJrjDr86PvBPIRtx6WnAChM55MVTxgHvRYYlVwbjPvmGm2MX0SI/GqTMr7gHGWOzuwnxrSZfidrXtULHGkFcwSL58bIDivkY/CIiw9WGeOxeE7JUA8+zKL7rgXKlRP+rxt7eAWbmE4GTvs1qM/DBmnWZVYYolFG3eWBCWMVcgpQiDVGDIVQKBJeu0YA9pSJ35KT83QFvkVLcR6+EY9OEO7fVVA2mcNPcBCyMyWRXLPIHSK9Amcklsky6FOT4NTAYSN4gMtSgjcCxFaDh5lqJFIPTZUsm2GtzRIJCCzgUUgBSHYLdvB6hgAgekCvlOL4DcD64T1NH5IG1MApOTs0eggxyxCOnDW70PlaSP+CHBybs2PCE0uCWmzyRgAwVWCqdGiaAY0lslwCoBATMGBXklx8T51Ogj/8HUNnR4rbIHciqTgsAocyniWZ5MxAELnPEQJWB+YRTjkySlTAMRDc8qYWeJwSm7lG2v0RThqhGQbsjwLXwCHlRxa5hYsibc1VurmvtrVzlgA8S4xxnCfngIgrIWtOUjaXgUABGI+q8B2aV3ettsghhsqn6FCht/Th9488D4PCyZVE7hlpVDd26WxAELDHoJhiByYRVgL55LSACGykghLi2DYOKVTwEOGEfWNwuRuITk4RxIvdE7x+F3R/ihMNGMCxEtRn/vgsDRAPCQWbCzZYLYFaxIvrMUzIfqLTuYosnANldzWRxw5PXxkvyrpIUM7bblvTIDQDxgNzYTBiYkiV17u0gDhZce6Y5G+rLk46XGIOlRCLIJp/3eDoY2lIDlvOoxuMzhxMpNa/dVgmufEHcNQdhkbIPeW9BxHr3EvYJNGjHRUSgPE8yvYlzkXmn/o/ocKrj7EmnjlIkk3NBQmGSjRpDnEm8ks94rjMmMZGyA05okToVwuxozSACEIyuoV0DeDWM2u/BjdJ/C2Ej9hcceHdhTmkKh4l+MYQ4gTeXu0A33lSwDkvpJYG3uEUFQrKV23ndIA8YQfbzvk81gCo2tx65IuCsjmWXm8Lyg7OqtKCYAwEK9lgqUWMdsE8nilNEBYLkF+YJFtriIeV5XorEscPNagoYIpmkO9iHjzJOI3xuxhtRia+loKIF7bNoMhFTWzkFdKA4R+evKmkOSHfPKYuHHX8aS5I2W3ldygrVdrvzHlew81aRfLk9excIyAscu9Y6UAQsPPCNjMI4dAUwAEF4wxTph3/UgQrGYJdtpW1xsk3dTwS/SCQDJNXPQBs4XJsekavM7wO48uJQFyvbSf4NMj3iixKQCSK8m9RU8EZsGUEhG4pG5mqICErBglrII7C+DwstoUIz8vCRCUGFlq4afEfoRfOYtMARAO+YgFsTpsWsbVvTeUKCZVhj/TSYZOwNl1D8P9za1Y+TzAonwpqqFNX0sDhDYjSy1+4XCBtiREmQIgjNPjKuJ41zZFogeETbsYCyzJLj3Re7ineAndMCKQ45LlZBGZAiDRpRaHZ5aArKkAUnIWyTF78MIx62FeHirWtN5EIGLS9gpLSJaSxWQKgDA4Boofj1csm7SpAJJjnEP0k5NZxGqOtySoic6oY0Yv9up5KoDQIUyaEWbwoY5yUwKEcZIsKCc1T/thcpJs4bHaBzjOnfBrGipstDEt75N7SsLi5RX6hU/fh70VeMtNCRD6DNNghIFiSIajqQHCOK19GPo8T5bEviyXQB9kSX8NQQeGk13iIZ5u10dSH8CBy1JxmRogxB6g5BMCI9+3xLC+nLl5sZqhEUIaPXVu6sKpkB+WMPdsR+9W58jzE5NN3+Pzhs626yuZru9y45gaIHSIOGI2exHZFbgzF4AwPk7HWYtHBM8CqG2yEKN1OmL1idrlPcxJN+kRIjJGQJapP3MACB3OQXLAhhHXBeKq2zIngNAvuMNYGlppekiUikeBNU+f5YV4haTbGAr0GUu8/lXtpmG4YWlVKl341mHPBSB0Lrpppw6CZh7a4fqdG0DoJymNseSxwWUG3SWYXtmrMcuOQYvUbtsamoBu8bhuBNIIDBLeQ8CmHtz8MV2PPd69vwVzAgidJaYaNu+IwLGFrR1/KMQKEBz2eGm7M1GkT7vKXit5peJHRTQd3sBw5HK91UH9H+mnVVft/Rq/9k80RkD29ZUgsVdHBpKr7NwAwrgIwokE/TS6aXi2rA+d8i930M7keiZT1QN1qTU1dwMQUiCwrMohY7P9m/o4R4AwgNflSMAoiTX1JyRBpGCVaPCRtb0p74e6x5OQB4BgScuSiyOZjD3czqPpbq4AYcCkij42w8ghpLPk3Ws3WSIDVoYhhqrwsLA0DQIQz4/Ptg5HOb1CSugrPGeA0GcsN1CZTilFvUcLDzQSDp2zq0WCnzwdnjtAGJM1ys2jh31lcOvGNFsqncG+/kT//6iUx8UTtRhtu1u+uAOiZQBLAAjj8WSusuhhyL3EmQMSiAKWLLh+cJ5i8YgeY7z4kZEXhrOU2cpSAIICn5WRgynyQLCKwX8bcb6LtO8tC2s7JvQx090N7RuBWcwcbx5aYKr7lgQQdORhjR9Lt9jpiU0AuPwazlXIF46VimhOzlymFn5YMCcXC3qKDHhpAGGsHAKSe4PT6DkIp76cdOP6HWEUyT0WvGxxaAQYV85dubM+vCXOcpadpNgSAYKibpFIjq05JMZWMgx/DVA4bMRUXVIARXNZOHbH7iOzBcs7HC0XJUsFCEo+Os0kYyey9z5QgnuIr8BDFhLv13gr6inHngKXDAKcYHOEjcSSgDNzd3qrw4UecBCtuDhZMkAaZWPLZ8llSV88xYPCCsapM/SefHLB1MJBJq7rfHIRIHTVdHHAyXd8tGB552JPwaeVBX2KMXM6DziKRwLmGuwhAARd8OtJfvZ75VJMrSekAfZl/GhFsl2FOpCr8KEApNEHaZex8Vvy7OXSZa3nUg0ACsARyZU4G10eGkBQLGG8WEpKU3/O5qFO1BGy7BJByOfByCECpHk4xEMzm5x4ME9rngM5mOXUNvUeMkAYL5Q4WLk4mCpJAzrPVzlvrzAosJziypl0NW8vg7UdOkAa9cByyAFjBUrwhUnFiYuHTWb2riLR4a4FIBUo0Tfl0vJEezJjcLaxClkbQLpAwSxc9yi7X3Vi/EmUQxq9ObnSFAHoWgHSVi4MHLhdAxZO56tcqgEYG0lTADhyE9QtRscVIP//qPBdAihcFobzxTzsAR3ltL8BBakNVi8VINtfAYKKyDdOJiP8nA5ZSJB6QQpcYgn1rkMerHVsFSD7NYZDYAOWU/bfvog74NtqQMFnJIvwIgbs7WQFiE1zpEhmVoEBHS/a69uKT3b3xYmIjQxShLhCh1RlgAYqQAYoaccteNayX2GWITXYXCxinG4DAlztAQVkE1ijqhg1UAFiVNie26EoYmYhzdzx6ZPvXNfO25TYUL9zywWfLX+vkkEDFSAZlDiwimMSUHB54XvfdSVJH9txEVsBACyJTAd2sd7W1UAFSH0nqgZ2aKACpL4eVQMVIPUdqBrwaaDOID691VIr0UAFyEoedB2mTwMVID691VIr0UAFyEoedB2mTwMVID691VIr0UAFyEoedB2mTwMVID691VIr0UAFyEoedB2mTwMVID691VIr0UAFyEoedB2mTwMVID691VIr0UAFyEoedB2mTwMVID691VIr0UAFyEoedB2mTwMVID691VIr0cD/AfpXkG2phpxuAAAAAElFTkSuQmCC;direction=west;rotation=90;" vertex="1" parent="1">
          <mxGeometry x="44.76999999999998" y="620" width="30" height="30" as="geometry" />
        </mxCell>
        <mxCell id="Ew4Cx2_c2zEZE24tookL-74" value="" style="shape=image;verticalLabelPosition=bottom;labelBackgroundColor=default;verticalAlign=top;aspect=fixed;imageAspect=0;image=data:image/png,iVBORw0KGgoAAAANSUhEUgAAAMgAAADICAYAAACtWK6eAAAAAXNSR0IArs4c6QAAHcNJREFUeF7tnQv4ftlUx7+MxjSRkKI0ozCKkZkuCJNbuZUZUtJVI5eoMEOppnuhKKVMuSSNVC6RomaaMrkkijSEGEJJuUyJmKSk5/POPv/OnHnP+5611j77nPOevZ7nPO/7//3Pvq1zvu/ee+21vusKqlI1UDXQq4ErVN1UDVQN9GugAqS+HVUDOzRQAVJfj6qBCpD6DlQN+DRQZxCf3mqplWigAmQlD7oO06eBChCf3mqplWigAmQlD7oO06eBChCf3mqplWigAmQlD7oO06eBChCf3mqplWigAmQlD7oO06eBChCf3mqplWigAmQlD7oO06eBChCf3mqplWigAmQlD7oO06eBChCf3mqplWigAmT8B32UpE/pXEfv+NsVJf135/r4nr+NP4qVtlABMuzBX0nS50r6HEnXkPQZ6bralu/dvx0zrInQXf8u6UOS2p9937nvXyS9J90favjQC1eASJ+ZXnwA0ICg+/nZB/oifDQBBbC0r3/q/PtAh79/WGsByFUk3ahznZD+fex+Na3+jrdK4roofTb/fv+ha+bQAHJtSSdvAQNLoyr5NfDBLaB5k6S35G9qmhqXDBBmhS+XdPP0yffjplFjbbWjgf+SdKGk13c+L1mappYEkC4Ybrw0Zdf+6m0twACeP5PEPmi2MmeAnCTpjpLulK7ZKrF2LKSBl0s6T9IFkv4yVNMIhecEEDbNt5b0lQkQdd8wwgOfeZXvS2B5hSQujAKTypQAuWaaIQAF15dOqona+Bw18FpJfy7pXEnnT9HB0gC5jqQ7S7pL+uTArUrVwBANvFHSi9P1yiEFctxTAiDHJzA0wKjnDjme3LrreHULLGz2R5OxAMJJ9D1bswWuGlWqBsbQwEskvUjS8yXhAZBVcgPkCyWdnq5rZe1praxqYLcG/lXSMyWdk85fsugrF0A4o2iAUcI5L8vgayUHq4EGKJiOQxIFyB0SML411ItauGpgHA2wqQcsz/NW7wXI7SU9TNJp3oZXVu6TkpqYjnZsR/dvzb9RDzEk3biR9r/b34k5qdKvgVdJekpafpn05AHIT0s6y9TK8m/Gt4gN4LvTJ9+Jt8BNou/6SOv/PjayCljWNjEq2z7bMSr8Py7+nyUJN/4rj9y3OVX/dEn3t3TIApDPk/RcSbe0NLCQe3nh3956+dtA4PsHFjIOTzcBTAMWANP9jkfD9ROoPPXPrQyu+mwJOITcK0MB8mBJv7K3tnnf8I4Egr/vfAIMZogquzXw6QkogKW5viB9v94ClfcoSY/b1+8hAPkjSXfdV9FM/p81PCeuxCQ0n/jzAAL2AVXG0QB7IECDPx0uQ801d386nCR3vtv7APIESWeMo9NwrV0g8G/cqavMRwO4FrUBw/e5geaJkh7ep7JdAGGd9pvz0fVmzUj8wJ+ka0Zdq10xaADQsI/F9YhwhhsYyo51632TOfhy9fcB5GuSr8tYHRpS7xsk/UVyewYUh7xRHqKPQ70HrgDAQpgDXt2ETU8hpyaXlcu0vQ0gX5FezNKdfG+aGV6W2v+70h2o7c1CA5yx3SaBBeCUFEBKHMoR6QIE/ykivPCpKiFsnpkd8PXnc9bhlyUUUtu4jAZulpxe7yGJ72ML7yNOtuxnN9IFyEMknT1yL/6mtY/405HbqtUfjgbuJgmg8AJz0DmWYJh6RB9A2ATfboSW/1nSs9NB4+zijkcYb61yPA0ADkACWABNbuFdvamkf+vOIAADgOQUwiUBBhfuyFWqBnJq4GslPVDS3XNWKum7m4Px9hKLpRVLrKhAvPw7CRTEElepGhhbA7mBwj78tu0ZhM05p8/RIKefSODA36VK1UBpDeQECha085sZJMfmnBNSWMOrVA1MrYHvl/SzwU48Q9L9GoD8mqTvDFR470hQSqDdWrRqoE8DvM+81155s6SbNABhzXWKs6anSnqQs2wtVjUwpgbwsfoFZwN4eF+tAQhLI+8RP6eexXiKnIOtxdapAZwjB8V99KhnM4MAjMjegY39xevUfx31AjSAD5/3YPFUAMLSiiWWV/a5zHvrreWqBnJoIHL4fQYvd3QzUwGS4zHWOsbSQAQgT+Ll/nFJPxboXQVIQHm16OgaiADkXF7un5T0I4FuVoAElFeLjq6BCEBeyssdpfGpABn9GdcGAhoIA+Sxkn4g0IEKkIDyatHRNRAGCEfyHM17pQLEq7laroQGwgB5vKRHBnpaARJQXi06ugbCAPl5SWcGulkB0q888qLAsWu5CBfou/6n5/8Cj+/gi4YBgq9KLy/QAPUdMkDgreUUFm8BPuG4bS4oO/d9L5U46EOSLBe8wpwwc31wwDNe8i1hgECc9dCABpYGkKtKgjKTLFi8+M3VAKH9N+g2D12YlRqw4DLUfO/+7Z2S/mGByggD5JclfU9g4HMEyHEJBAChe0WDwgKqWnxR6FsByrvSZ/s7fyOee24SBgik1JBTe4VlxCe8hYPlPl/Syek6KXHDAohSS5tg9w+uOC7iAAUK2AslwWDDBZCmkjBAnhyM5yBr7X8WGP0XSwIEAKL5ZA9QZf4aYH8EUBrQ8AlzZgkJA4SApwcEespmFQXkFMJ3YXiE6e5WCRQ1i1JODU9fF6sOQEP2J9hvSO38jyN0KwyQaLgtSVfeHxzYiZJIBHqLBIovCtZXiy9TA+Rugfrzr1KgE8FO0bQVYYD8ekrE6VUpmaes+amxIEH8RTTizdNG2tt+LXe4GuCHtwHLC53pncMA+Q1J0L97hcQpZG8aIg0jHp+YW6tUDVg0QDIngPJ7hijWMEDIARJJ48xy6C07RskM0XCqliLFtii93rs8DXBeA0gAC6DZJWGA/Jakbw7oCNbtbRYJmE6+ISVJCVRfi1YN7NTA6xNQWAlhYu5KGCDQhN4n8BDYXLeZIziVJ4wXs2yVqoFSGrgk8WCdI+l1rUbDAHmOJIjfvEJWIDJBcRrPRcagtQgPBb8mLkzd7c/m7+1P/J44TIM5nNzpnCF9avokFdmNk+IgLSNXBfVzxsR1tKSrp+sakrj4dzsvepMPvZ0XfQ3uMt337QWSnpLyzoQB8jxJXx94o09PMe1LTAXcHjYvLFaT96VPvjdX8zde8DYI8LodIljr7pRSjbEniwizNcmGyK0CH9m+FNa4AjUgaoCDuw350Jur/W++A75DEGaSDwdSemxCbp8v6esOQRs7xoDj3bvTQRSHUc13zNMNCFBkLiG/BKCAUgkS5LFeOGYWwMJBG2BhJs8huOoAHsACbxqm/G0XM+AhywYgWAJOO4BR8uI37gx8bwOhhCsMKvy2ZBFktphCMJZgleRi1htbrtkBDib/L0vXIYBnA5A/GCEBydgPhgSfbd8evk+VoAdPAoDBNRfDBOBogFLK56n7zNlPNWBpPgkcW5JsAPJiSaR9nqv8rSTStjWeoXyyX5haAEMDDEAyVwEoz0ob1qn7yJFAFzRT92lX+xuAcNBy1xn1kk0wVKjnSfrDkRzYosP9UUkkC1qS4HN3Vga/udxjvqOkr0oZnXBQnZNsAMKLWDofdVcJr0mgwCQHKOYqPECA8dVz7eCefjEb/1BaNcxxCFjZAAwGjlsmj+4p+7kBCDnKp3jgf52y3rIH2uWqMqWC2m1DjQQ4jplLhwL9gCwwwqYZaNpU9LqS7tByVTIVznDzBiAvSZ3IUN/eKv5XEgeTXL+/9+553ECAFvSs5L87JME8zJKL2XsJgh9f4+waPUsaOt4NQCInjUMbIlb5aQkYWKCWIng5Q2pxqJGLnP2Q8phN/JKEZRjeH6SAHlPOAyBRZ8VdHWyAwbF/JEnPmEroq/tRkn5mioYnaBP/Ocg7liZkkAIkYwHl7Bzs7n1KhdKUX9+lAYPx/KKkhxV8Wwg/bU70PyoJszHXVQr2AcvcTxVsL2dTAIU9YsSncFt/zgQg3yGJlLe5BN+un0uRYLnqLFnPsyV944gNcnDH+p/zp8b3q++QE4A0YCGxPeZ4b7LVIUN6gqRHDLlxpvd8e9pXnZCpf6flSMHW9OUjifyBF2ypgon5bpk7z+zwuynWGmBcFKwf944GKBzwEr6cUwjBjqQEz9kXT13o5wczAf1EAAKDyHs8PWmVYf36fQM8S4PNjFo8t0cBG2BmZl64sdw9cCjEm/p+iRMsl4KeGQzDztWPSD23S17mfHrl2IYVEddpLANWIWaBdR/uH0sWXEZ4KXLIexMoAAYsHSXk0xJIAAtm6RyCdQtSwaULS0ZSDFo5EF4q6fYNQO6fzLBWZeCmwstFANBSBae6N2XqPGGfHCZuC/3M1MTearC+kRCJGJCI4PKDCwgHuksVZg8MD5zMW2XzA9EAhF8g3BCg8rQKB01YEEDc0oS4B6L3bhjsOIAAGABkDnKTBJIIGQfj+GNJd5nDgBx9IDkts4fHEsi+8ToQebeJpx+d/HQcfdkUYWO0tHODJ6WDMu+YKTeHWaOv/1jjcCkBMF7BiyCSBdnbbqRcNEqWkN170YE2QGA3ZBaJCNGJkfDdSNvWshyOcU4TEc5KfilSQYGyLCGfGwQJbjZzdiJt1EgKCzzBo8ycmIsJE7gMQPg3MwBr2IiQQwIK0RIRbd5+spFtM1946rn7jL1iu+OJggRd8UzJJTJXIc4kh18Zlkesghvp5vZgY0d8c2RKburGoSxHh8d4INGlFfph77IkiYLkjORhMMcxEy+fg/ga1yj0dISMfVvyGzZ2m+klg0BVM5T5I0Nzg6pAAVhmvG7r0PTMIaJx0GA7NzF2zns8xhhM1swiU4U2942X54hHgtWMu60+4n1gmT8ifdmhcrlb4NIO7eicJJK0lLOiC+Y0GEdfvknSbzvKUQRLHdahOQkbatzgo7J1bH0AYZPDwRnruqgQc/CYaCWZypN9ivW0x30db4FILsdMQ8hSjdcZk9mDWaTUAei+wUYT0Db1M6uyp7yc7MoviE8LIMnhm/QtgV+tfUqy/L/XlP0iSadaGpr5vZx7ESjHy24VwMV+ZGrBX4w4+6iwH/3evkqGJOB8entX7+wNOR48D8PZ3NZiOPWx97AykGD6xikQsrlDEpaLuBhZBUsWzzJqBbS2273/ZSnZkrceDgM5SNxp6h8CEDrg/eVtdx6XlCkj1+AN9gQFHYpP0rYXybvUmvpQmNk8ErLNDyXuOHt/IIYCBOUSlMLBGC+6RwjtJQB/KvEQ5BEe/CULtlrt0zXWLKw2eAVbBCacKamiCB/YnHQ7hFglPM8HiQUgTYVYMbyuB3AAk/iktLCfwsaN2dki+Jg93lJggfdCA8QKwSKYuQHVf1gKZboXU6yXg9hshfMAhHHiXtG7sdmhiF5rQSbl9VXjiZrk4InZY252/9yqYsPOLIKrkUWm+rHzmukJVjNzJnsBgiLx7yGDlEVwoWaT/HFLoQz3epzXzL82Gfo5VRUsndmPWIRYEfZnpYUsuFb3deKV+LEzSwQgNPZGh1sKuc8ZZEnBdcCaSKabOatkf0u35XFUhewv6hRoHSezHTlarCTYbr+5KEA8+xE2SGyUSgnTKnENFoEsG+rLNQm5/qzs9Mdn8oEaqmePaTp0hhUFiCcar7RLPGC0MnVgAoS2aE2CMeKRxgGT/JUcl6XEY1Bwzx4MKgoQ6rAyM5LVCe/LUmLtH/0C+EtigMyhS89MW3qfxtmH1aOBDFnu0IscAPEss9io44FZQqwAIT7datEpMY4SbXzS2EhpgBBrdJyhj4RCezyXjzSRAyAExvMSWgQyAHyBSogVIBs2ixIdm2EbuF9c0dCvkuG4GFmOxGkM7CNRkCHS8RwAIUGl9azg4ft8YAYqYMhtFSBDtHTpPfhZHTX8dpVMo3CrlKjU0D09NsizkGUPQofZV1gY/vDCfIBlpIF7K0CGK4/zKYsJlRP4Hx5efejOB0l6srGGsBEhxwxCn61p3EqaUStAhr9V5Fy3uOOEf6GHd23jaIrDqUXYS4Y4z3IBBJMofktDBQZzD1/R0Prb91WADNca6bItociQfODZW0Ksz5FkTZbl4tYx5AIIAVFWV/ZbB5zOLA/Eqtg1b9IvkUTM/VB5XAYWnCFtAVprrvsLc9Cw5gIIJ7CcxFqEWYcDubFlzgDhweM2ThjAjSSRZgyjB4wpLA1YimL7L5VjBYZ+3DmGCoeLlpXD0Hq798HueK6xMMQj8FuFJBdA6ITVhs5LkINeaJ8C5ggQkqbCHoNH7JClJu4SL0yk2PvGG/l/3NeH9KdpA89a6+m7p38evrYspH45AeIJgcTfiV/JMWVOAMGDgF9c62az0Q9BXyxrXjmSwqxOnaUS7hCyjfOoRXCkDGdPzgkQbOIwmFikxEnsXADC8olZgKVUVCAsIL1CbsFT1sIKX4LAAb1Z3X7elitfSk6AeHx5SpA5zAEgkJq9QxLcsbmEpQ1LnJxCGourGyokcG7sXI4wqDBTWYSksd9lKdB3b06AYP1AwRYzIf3CrWPM1AlzAIh1fzb02Z4pCW6oXHKxJMKTh0oJrjDr86PvBPIRtx6WnAChM55MVTxgHvRYYlVwbjPvmGm2MX0SI/GqTMr7gHGWOzuwnxrSZfidrXtULHGkFcwSL58bIDivkY/CIiw9WGeOxeE7JUA8+zKL7rgXKlRP+rxt7eAWbmE4GTvs1qM/DBmnWZVYYolFG3eWBCWMVcgpQiDVGDIVQKBJeu0YA9pSJ35KT83QFvkVLcR6+EY9OEO7fVVA2mcNPcBCyMyWRXLPIHSK9Amcklsky6FOT4NTAYSN4gMtSgjcCxFaDh5lqJFIPTZUsm2GtzRIJCCzgUUgBSHYLdvB6hgAgekCvlOL4DcD64T1NH5IG1MApOTs0eggxyxCOnDW70PlaSP+CHBybs2PCE0uCWmzyRgAwVWCqdGiaAY0lslwCoBATMGBXklx8T51Ogj/8HUNnR4rbIHciqTgsAocyniWZ5MxAELnPEQJWB+YRTjkySlTAMRDc8qYWeJwSm7lG2v0RThqhGQbsjwLXwCHlRxa5hYsibc1VurmvtrVzlgA8S4xxnCfngIgrIWtOUjaXgUABGI+q8B2aV3ettsghhsqn6FCht/Th9488D4PCyZVE7hlpVDd26WxAELDHoJhiByYRVgL55LSACGykghLi2DYOKVTwEOGEfWNwuRuITk4RxIvdE7x+F3R/ihMNGMCxEtRn/vgsDRAPCQWbCzZYLYFaxIvrMUzIfqLTuYosnANldzWRxw5PXxkvyrpIUM7bblvTIDQDxgNzYTBiYkiV17u0gDhZce6Y5G+rLk46XGIOlRCLIJp/3eDoY2lIDlvOoxuMzhxMpNa/dVgmufEHcNQdhkbIPeW9BxHr3EvYJNGjHRUSgPE8yvYlzkXmn/o/ocKrj7EmnjlIkk3NBQmGSjRpDnEm8ks94rjMmMZGyA05okToVwuxozSACEIyuoV0DeDWM2u/BjdJ/C2Ej9hcceHdhTmkKh4l+MYQ4gTeXu0A33lSwDkvpJYG3uEUFQrKV23ndIA8YQfbzvk81gCo2tx65IuCsjmWXm8Lyg7OqtKCYAwEK9lgqUWMdsE8nilNEBYLkF+YJFtriIeV5XorEscPNagoYIpmkO9iHjzJOI3xuxhtRia+loKIF7bNoMhFTWzkFdKA4R+evKmkOSHfPKYuHHX8aS5I2W3ldygrVdrvzHlew81aRfLk9excIyAscu9Y6UAQsPPCNjMI4dAUwAEF4wxTph3/UgQrGYJdtpW1xsk3dTwS/SCQDJNXPQBs4XJsekavM7wO48uJQFyvbSf4NMj3iixKQCSK8m9RU8EZsGUEhG4pG5mqICErBglrII7C+DwstoUIz8vCRCUGFlq4afEfoRfOYtMARAO+YgFsTpsWsbVvTeUKCZVhj/TSYZOwNl1D8P9za1Y+TzAonwpqqFNX0sDhDYjSy1+4XCBtiREmQIgjNPjKuJ41zZFogeETbsYCyzJLj3Re7ineAndMCKQ45LlZBGZAiDRpRaHZ5aArKkAUnIWyTF78MIx62FeHirWtN5EIGLS9gpLSJaSxWQKgDA4Boofj1csm7SpAJJjnEP0k5NZxGqOtySoic6oY0Yv9up5KoDQIUyaEWbwoY5yUwKEcZIsKCc1T/thcpJs4bHaBzjOnfBrGipstDEt75N7SsLi5RX6hU/fh70VeMtNCRD6DNNghIFiSIajqQHCOK19GPo8T5bEviyXQB9kSX8NQQeGk13iIZ5u10dSH8CBy1JxmRogxB6g5BMCI9+3xLC+nLl5sZqhEUIaPXVu6sKpkB+WMPdsR+9W58jzE5NN3+Pzhs626yuZru9y45gaIHSIOGI2exHZFbgzF4AwPk7HWYtHBM8CqG2yEKN1OmL1idrlPcxJN+kRIjJGQJapP3MACB3OQXLAhhHXBeKq2zIngNAvuMNYGlppekiUikeBNU+f5YV4haTbGAr0GUu8/lXtpmG4YWlVKl341mHPBSB0Lrpppw6CZh7a4fqdG0DoJymNseSxwWUG3SWYXtmrMcuOQYvUbtsamoBu8bhuBNIIDBLeQ8CmHtz8MV2PPd69vwVzAgidJaYaNu+IwLGFrR1/KMQKEBz2eGm7M1GkT7vKXit5peJHRTQd3sBw5HK91UH9H+mnVVft/Rq/9k80RkD29ZUgsVdHBpKr7NwAwrgIwokE/TS6aXi2rA+d8i930M7keiZT1QN1qTU1dwMQUiCwrMohY7P9m/o4R4AwgNflSMAoiTX1JyRBpGCVaPCRtb0p74e6x5OQB4BgScuSiyOZjD3czqPpbq4AYcCkij42w8ghpLPk3Ws3WSIDVoYhhqrwsLA0DQIQz4/Ptg5HOb1CSugrPGeA0GcsN1CZTilFvUcLDzQSDp2zq0WCnzwdnjtAGJM1ys2jh31lcOvGNFsqncG+/kT//6iUx8UTtRhtu1u+uAOiZQBLAAjj8WSusuhhyL3EmQMSiAKWLLh+cJ5i8YgeY7z4kZEXhrOU2cpSAIICn5WRgynyQLCKwX8bcb6LtO8tC2s7JvQx090N7RuBWcwcbx5aYKr7lgQQdORhjR9Lt9jpiU0AuPwazlXIF46VimhOzlymFn5YMCcXC3qKDHhpAGGsHAKSe4PT6DkIp76cdOP6HWEUyT0WvGxxaAQYV85dubM+vCXOcpadpNgSAYKibpFIjq05JMZWMgx/DVA4bMRUXVIARXNZOHbH7iOzBcs7HC0XJUsFCEo+Os0kYyey9z5QgnuIr8BDFhLv13gr6inHngKXDAKcYHOEjcSSgDNzd3qrw4UecBCtuDhZMkAaZWPLZ8llSV88xYPCCsapM/SefHLB1MJBJq7rfHIRIHTVdHHAyXd8tGB552JPwaeVBX2KMXM6DziKRwLmGuwhAARd8OtJfvZ75VJMrSekAfZl/GhFsl2FOpCr8KEApNEHaZex8Vvy7OXSZa3nUg0ACsARyZU4G10eGkBQLGG8WEpKU3/O5qFO1BGy7BJByOfByCECpHk4xEMzm5x4ME9rngM5mOXUNvUeMkAYL5Q4WLk4mCpJAzrPVzlvrzAosJziypl0NW8vg7UdOkAa9cByyAFjBUrwhUnFiYuHTWb2riLR4a4FIBUo0Tfl0vJEezJjcLaxClkbQLpAwSxc9yi7X3Vi/EmUQxq9ObnSFAHoWgHSVi4MHLhdAxZO56tcqgEYG0lTADhyE9QtRscVIP//qPBdAihcFobzxTzsAR3ltL8BBakNVi8VINtfAYKKyDdOJiP8nA5ZSJB6QQpcYgn1rkMerHVsFSD7NYZDYAOWU/bfvog74NtqQMFnJIvwIgbs7WQFiE1zpEhmVoEBHS/a69uKT3b3xYmIjQxShLhCh1RlgAYqQAYoaccteNayX2GWITXYXCxinG4DAlztAQVkE1ijqhg1UAFiVNie26EoYmYhzdzx6ZPvXNfO25TYUL9zywWfLX+vkkEDFSAZlDiwimMSUHB54XvfdSVJH9txEVsBACyJTAd2sd7W1UAFSH0nqgZ2aKACpL4eVQMVIPUdqBrwaaDOID691VIr0UAFyEoedB2mTwMVID691VIr0UAFyEoedB2mTwMVID691VIr0UAFyEoedB2mTwMVID691VIr0UAFyEoedB2mTwMVID691VIr0UAFyEoedB2mTwMVID691VIr0UAFyEoedB2mTwMVID691VIr0UAFyEoedB2mTwMVID691VIr0cD/AfpXkG2phpxuAAAAAElFTkSuQmCC;direction=west;rotation=-90;" vertex="1" parent="1">
          <mxGeometry x="490" y="625" width="30" height="30" as="geometry" />
        </mxCell>
        <mxCell id="Ew4Cx2_c2zEZE24tookL-75" value="" style="endArrow=classic;html=1;rounded=0;fontSize=18;dashed=1;strokeColor=#6666FF;entryX=0.55;entryY=0.304;entryDx=0;entryDy=0;entryPerimeter=0;" edge="1" parent="1" source="Ew4Cx2_c2zEZE24tookL-70" target="Ew4Cx2_c2zEZE24tookL-23">
          <mxGeometry width="50" height="50" relative="1" as="geometry">
            <mxPoint x="599" y="189.41346153846166" as="sourcePoint" />
            <mxPoint x="510" y="180" as="targetPoint" />
          </mxGeometry>
        </mxCell>
        <mxCell id="Ew4Cx2_c2zEZE24tookL-76" value="" style="endArrow=classic;html=1;rounded=0;fontSize=18;dashed=1;strokeColor=#6666FF;entryX=0.545;entryY=0.261;entryDx=0;entryDy=0;entryPerimeter=0;exitX=0.533;exitY=0.667;exitDx=0;exitDy=0;exitPerimeter=0;" edge="1" parent="1" source="Ew4Cx2_c2zEZE24tookL-68" target="Ew4Cx2_c2zEZE24tookL-6">
          <mxGeometry width="50" height="50" relative="1" as="geometry">
            <mxPoint x="494" y="290" as="sourcePoint" />
            <mxPoint x="494" y="329.9200000000001" as="targetPoint" />
          </mxGeometry>
        </mxCell>
        <mxCell id="Ew4Cx2_c2zEZE24tookL-77" value="" style="endArrow=classic;html=1;rounded=0;fontSize=18;dashed=1;strokeColor=#6666FF;entryX=0.545;entryY=0.739;entryDx=0;entryDy=0;entryPerimeter=0;exitX=0.467;exitY=0.667;exitDx=0;exitDy=0;exitPerimeter=0;" edge="1" parent="1" source="Ew4Cx2_c2zEZE24tookL-69" target="Ew4Cx2_c2zEZE24tookL-6">
          <mxGeometry width="50" height="50" relative="1" as="geometry">
            <mxPoint x="504" y="300" as="sourcePoint" />
            <mxPoint x="504" y="339.9200000000001" as="targetPoint" />
          </mxGeometry>
        </mxCell>
        <mxCell id="Ew4Cx2_c2zEZE24tookL-78" value="" style="endArrow=classic;html=1;rounded=0;fontSize=18;dashed=1;strokeColor=#6666FF;entryX=0.618;entryY=0.714;entryDx=0;entryDy=0;entryPerimeter=0;exitX=0.467;exitY=0.733;exitDx=0;exitDy=0;exitPerimeter=0;" edge="1" parent="1" source="Ew4Cx2_c2zEZE24tookL-72" target="Ew4Cx2_c2zEZE24tookL-47">
          <mxGeometry width="50" height="50" relative="1" as="geometry">
            <mxPoint x="514" y="310" as="sourcePoint" />
            <mxPoint x="514" y="349.9200000000001" as="targetPoint" />
          </mxGeometry>
        </mxCell>
        <mxCell id="Ew4Cx2_c2zEZE24tookL-79" value="" style="endArrow=classic;html=1;rounded=0;fontSize=18;dashed=1;strokeColor=#6666FF;entryX=0.172;entryY=0.86;entryDx=0;entryDy=0;entryPerimeter=0;" edge="1" parent="1" target="Ew4Cx2_c2zEZE24tookL-1">
          <mxGeometry width="50" height="50" relative="1" as="geometry">
            <mxPoint x="60" y="635" as="sourcePoint" />
            <mxPoint x="524" y="359.9200000000001" as="targetPoint" />
          </mxGeometry>
        </mxCell>
        <mxCell id="Ew4Cx2_c2zEZE24tookL-80" value="" style="endArrow=classic;html=1;rounded=0;fontSize=18;dashed=1;strokeColor=#6666FF;entryX=0.69;entryY=0.868;entryDx=0;entryDy=0;entryPerimeter=0;exitX=0.5;exitY=0.667;exitDx=0;exitDy=0;exitPerimeter=0;" edge="1" parent="1" source="Ew4Cx2_c2zEZE24tookL-74" target="Ew4Cx2_c2zEZE24tookL-1">
          <mxGeometry width="50" height="50" relative="1" as="geometry">
            <mxPoint x="534" y="330" as="sourcePoint" />
            <mxPoint x="534" y="369.9200000000001" as="targetPoint" />
          </mxGeometry>
        </mxCell>
        <mxCell id="Ew4Cx2_c2zEZE24tookL-81" value="" style="endArrow=classic;html=1;rounded=0;fontSize=18;dashed=1;strokeColor=#6666FF;exitX=0.692;exitY=0.703;exitDx=0;exitDy=0;exitPerimeter=0;" edge="1" parent="1" source="Ew4Cx2_c2zEZE24tookL-55">
          <mxGeometry width="50" height="50" relative="1" as="geometry">
            <mxPoint x="544" y="340" as="sourcePoint" />
            <mxPoint x="80" y="770" as="targetPoint" />
          </mxGeometry>
        </mxCell>
        <mxCell id="Ew4Cx2_c2zEZE24tookL-82" value="" style="endArrow=classic;html=1;rounded=0;fontSize=18;dashed=1;strokeColor=#6666FF;exitX=0.806;exitY=0.711;exitDx=0;exitDy=0;exitPerimeter=0;" edge="1" parent="1" source="Ew4Cx2_c2zEZE24tookL-58">
          <mxGeometry width="50" height="50" relative="1" as="geometry">
            <mxPoint x="554" y="350" as="sourcePoint" />
            <mxPoint x="320" y="760" as="targetPoint" />
          </mxGeometry>
        </mxCell>
        <mxCell id="Ew4Cx2_c2zEZE24tookL-83" value="" style="endArrow=classic;html=1;rounded=0;fontSize=18;dashed=1;strokeColor=#6666FF;exitX=0.709;exitY=0.685;exitDx=0;exitDy=0;exitPerimeter=0;" edge="1" parent="1" source="Ew4Cx2_c2zEZE24tookL-57">
          <mxGeometry width="50" height="50" relative="1" as="geometry">
            <mxPoint x="564" y="360" as="sourcePoint" />
            <mxPoint x="570" y="750" as="targetPoint" />
          </mxGeometry>
        </mxCell>
        <mxCell id="Ew4Cx2_c2zEZE24tookL-84" value="" style="shape=image;verticalLabelPosition=bottom;labelBackgroundColor=default;verticalAlign=top;aspect=fixed;imageAspect=0;image=data:image/png,iVBORw0KGgoAAAANSUhEUgAAAMgAAADICAYAAACtWK6eAAAAAXNSR0IArs4c6QAAHcNJREFUeF7tnQv4ftlUx7+MxjSRkKI0ozCKkZkuCJNbuZUZUtJVI5eoMEOppnuhKKVMuSSNVC6RomaaMrkkijSEGEJJuUyJmKSk5/POPv/OnHnP+5611j77nPOevZ7nPO/7//3Pvq1zvu/ee+21vusKqlI1UDXQq4ErVN1UDVQN9GugAqS+HVUDOzRQAVJfj6qBCpD6DlQN+DRQZxCf3mqplWigAmQlD7oO06eBChCf3mqplWigAmQlD7oO06eBChCf3mqplWigAmQlD7oO06eBChCf3mqplWigAmQlD7oO06eBChCf3mqplWigAmQlD7oO06eBChCf3mqplWigAmQlD7oO06eBChCf3mqplWigAmT8B32UpE/pXEfv+NsVJf135/r4nr+NP4qVtlABMuzBX0nS50r6HEnXkPQZ6bralu/dvx0zrInQXf8u6UOS2p9937nvXyS9J90favjQC1eASJ+ZXnwA0ICg+/nZB/oifDQBBbC0r3/q/PtAh79/WGsByFUk3ahznZD+fex+Na3+jrdK4roofTb/fv+ha+bQAHJtSSdvAQNLoyr5NfDBLaB5k6S35G9qmhqXDBBmhS+XdPP0yffjplFjbbWjgf+SdKGk13c+L1mappYEkC4Ybrw0Zdf+6m0twACeP5PEPmi2MmeAnCTpjpLulK7ZKrF2LKSBl0s6T9IFkv4yVNMIhecEEDbNt5b0lQkQdd8wwgOfeZXvS2B5hSQujAKTypQAuWaaIQAF15dOqona+Bw18FpJfy7pXEnnT9HB0gC5jqQ7S7pL+uTArUrVwBANvFHSi9P1yiEFctxTAiDHJzA0wKjnDjme3LrreHULLGz2R5OxAMJJ9D1bswWuGlWqBsbQwEskvUjS8yXhAZBVcgPkCyWdnq5rZe1praxqYLcG/lXSMyWdk85fsugrF0A4o2iAUcI5L8vgayUHq4EGKJiOQxIFyB0SML411ItauGpgHA2wqQcsz/NW7wXI7SU9TNJp3oZXVu6TkpqYjnZsR/dvzb9RDzEk3biR9r/b34k5qdKvgVdJekpafpn05AHIT0s6y9TK8m/Gt4gN4LvTJ9+Jt8BNou/6SOv/PjayCljWNjEq2z7bMSr8Py7+nyUJN/4rj9y3OVX/dEn3t3TIApDPk/RcSbe0NLCQe3nh3956+dtA4PsHFjIOTzcBTAMWANP9jkfD9ROoPPXPrQyu+mwJOITcK0MB8mBJv7K3tnnf8I4Egr/vfAIMZogquzXw6QkogKW5viB9v94ClfcoSY/b1+8hAPkjSXfdV9FM/p81PCeuxCQ0n/jzAAL2AVXG0QB7IECDPx0uQ801d386nCR3vtv7APIESWeMo9NwrV0g8G/cqavMRwO4FrUBw/e5geaJkh7ep7JdAGGd9pvz0fVmzUj8wJ+ka0Zdq10xaADQsI/F9YhwhhsYyo51632TOfhy9fcB5GuSr8tYHRpS7xsk/UVyewYUh7xRHqKPQ70HrgDAQpgDXt2ETU8hpyaXlcu0vQ0gX5FezNKdfG+aGV6W2v+70h2o7c1CA5yx3SaBBeCUFEBKHMoR6QIE/ykivPCpKiFsnpkd8PXnc9bhlyUUUtu4jAZulpxe7yGJ72ML7yNOtuxnN9IFyEMknT1yL/6mtY/405HbqtUfjgbuJgmg8AJz0DmWYJh6RB9A2ATfboSW/1nSs9NB4+zijkcYb61yPA0ADkACWABNbuFdvamkf+vOIAADgOQUwiUBBhfuyFWqBnJq4GslPVDS3XNWKum7m4Px9hKLpRVLrKhAvPw7CRTEElepGhhbA7mBwj78tu0ZhM05p8/RIKefSODA36VK1UBpDeQECha085sZJMfmnBNSWMOrVA1MrYHvl/SzwU48Q9L9GoD8mqTvDFR470hQSqDdWrRqoE8DvM+81155s6SbNABhzXWKs6anSnqQs2wtVjUwpgbwsfoFZwN4eF+tAQhLI+8RP6eexXiKnIOtxdapAZwjB8V99KhnM4MAjMjegY39xevUfx31AjSAD5/3YPFUAMLSiiWWV/a5zHvrreWqBnJoIHL4fQYvd3QzUwGS4zHWOsbSQAQgT+Ll/nFJPxboXQVIQHm16OgaiADkXF7un5T0I4FuVoAElFeLjq6BCEBeyssdpfGpABn9GdcGAhoIA+Sxkn4g0IEKkIDyatHRNRAGCEfyHM17pQLEq7laroQGwgB5vKRHBnpaARJQXi06ugbCAPl5SWcGulkB0q888qLAsWu5CBfou/6n5/8Cj+/gi4YBgq9KLy/QAPUdMkDgreUUFm8BPuG4bS4oO/d9L5U46EOSLBe8wpwwc31wwDNe8i1hgECc9dCABpYGkKtKgjKTLFi8+M3VAKH9N+g2D12YlRqw4DLUfO/+7Z2S/mGByggD5JclfU9g4HMEyHEJBAChe0WDwgKqWnxR6FsByrvSZ/s7fyOee24SBgik1JBTe4VlxCe8hYPlPl/Syek6KXHDAohSS5tg9w+uOC7iAAUK2AslwWDDBZCmkjBAnhyM5yBr7X8WGP0XSwIEAKL5ZA9QZf4aYH8EUBrQ8AlzZgkJA4SApwcEespmFQXkFMJ3YXiE6e5WCRQ1i1JODU9fF6sOQEP2J9hvSO38jyN0KwyQaLgtSVfeHxzYiZJIBHqLBIovCtZXiy9TA+Rugfrzr1KgE8FO0bQVYYD8ekrE6VUpmaes+amxIEH8RTTizdNG2tt+LXe4GuCHtwHLC53pncMA+Q1J0L97hcQpZG8aIg0jHp+YW6tUDVg0QDIngPJ7hijWMEDIARJJ48xy6C07RskM0XCqliLFtii93rs8DXBeA0gAC6DZJWGA/Jakbw7oCNbtbRYJmE6+ISVJCVRfi1YN7NTA6xNQWAlhYu5KGCDQhN4n8BDYXLeZIziVJ4wXs2yVqoFSGrgk8WCdI+l1rUbDAHmOJIjfvEJWIDJBcRrPRcagtQgPBb8mLkzd7c/m7+1P/J44TIM5nNzpnCF9avokFdmNk+IgLSNXBfVzxsR1tKSrp+sakrj4dzsvepMPvZ0XfQ3uMt337QWSnpLyzoQB8jxJXx94o09PMe1LTAXcHjYvLFaT96VPvjdX8zde8DYI8LodIljr7pRSjbEniwizNcmGyK0CH9m+FNa4AjUgaoCDuw350Jur/W++A75DEGaSDwdSemxCbp8v6esOQRs7xoDj3bvTQRSHUc13zNMNCFBkLiG/BKCAUgkS5LFeOGYWwMJBG2BhJs8huOoAHsACbxqm/G0XM+AhywYgWAJOO4BR8uI37gx8bwOhhCsMKvy2ZBFktphCMJZgleRi1htbrtkBDib/L0vXIYBnA5A/GCEBydgPhgSfbd8evk+VoAdPAoDBNRfDBOBogFLK56n7zNlPNWBpPgkcW5JsAPJiSaR9nqv8rSTStjWeoXyyX5haAEMDDEAyVwEoz0ob1qn7yJFAFzRT92lX+xuAcNBy1xn1kk0wVKjnSfrDkRzYosP9UUkkC1qS4HN3Vga/udxjvqOkr0oZnXBQnZNsAMKLWDofdVcJr0mgwCQHKOYqPECA8dVz7eCefjEb/1BaNcxxCFjZAAwGjlsmj+4p+7kBCDnKp3jgf52y3rIH2uWqMqWC2m1DjQQ4jplLhwL9gCwwwqYZaNpU9LqS7tByVTIVznDzBiAvSZ3IUN/eKv5XEgeTXL+/9+553ECAFvSs5L87JME8zJKL2XsJgh9f4+waPUsaOt4NQCInjUMbIlb5aQkYWKCWIng5Q2pxqJGLnP2Q8phN/JKEZRjeH6SAHlPOAyBRZ8VdHWyAwbF/JEnPmEroq/tRkn5mioYnaBP/Ocg7liZkkAIkYwHl7Bzs7n1KhdKUX9+lAYPx/KKkhxV8Wwg/bU70PyoJszHXVQr2AcvcTxVsL2dTAIU9YsSncFt/zgQg3yGJlLe5BN+un0uRYLnqLFnPsyV944gNcnDH+p/zp8b3q++QE4A0YCGxPeZ4b7LVIUN6gqRHDLlxpvd8e9pXnZCpf6flSMHW9OUjifyBF2ypgon5bpk7z+zwuynWGmBcFKwf944GKBzwEr6cUwjBjqQEz9kXT13o5wczAf1EAAKDyHs8PWmVYf36fQM8S4PNjFo8t0cBG2BmZl64sdw9cCjEm/p+iRMsl4KeGQzDztWPSD23S17mfHrl2IYVEddpLANWIWaBdR/uH0sWXEZ4KXLIexMoAAYsHSXk0xJIAAtm6RyCdQtSwaULS0ZSDFo5EF4q6fYNQO6fzLBWZeCmwstFANBSBae6N2XqPGGfHCZuC/3M1MTearC+kRCJGJCI4PKDCwgHuksVZg8MD5zMW2XzA9EAhF8g3BCg8rQKB01YEEDc0oS4B6L3bhjsOIAAGABkDnKTBJIIGQfj+GNJd5nDgBx9IDkts4fHEsi+8ToQebeJpx+d/HQcfdkUYWO0tHODJ6WDMu+YKTeHWaOv/1jjcCkBMF7BiyCSBdnbbqRcNEqWkN170YE2QGA3ZBaJCNGJkfDdSNvWshyOcU4TEc5KfilSQYGyLCGfGwQJbjZzdiJt1EgKCzzBo8ycmIsJE7gMQPg3MwBr2IiQQwIK0RIRbd5+spFtM1946rn7jL1iu+OJggRd8UzJJTJXIc4kh18Zlkesghvp5vZgY0d8c2RKburGoSxHh8d4INGlFfph77IkiYLkjORhMMcxEy+fg/ga1yj0dISMfVvyGzZ2m+klg0BVM5T5I0Nzg6pAAVhmvG7r0PTMIaJx0GA7NzF2zns8xhhM1swiU4U2942X54hHgtWMu60+4n1gmT8ifdmhcrlb4NIO7eicJJK0lLOiC+Y0GEdfvknSbzvKUQRLHdahOQkbatzgo7J1bH0AYZPDwRnruqgQc/CYaCWZypN9ivW0x30db4FILsdMQ8hSjdcZk9mDWaTUAei+wUYT0Db1M6uyp7yc7MoviE8LIMnhm/QtgV+tfUqy/L/XlP0iSadaGpr5vZx7ESjHy24VwMV+ZGrBX4w4+6iwH/3evkqGJOB8entX7+wNOR48D8PZ3NZiOPWx97AykGD6xikQsrlDEpaLuBhZBUsWzzJqBbS2273/ZSnZkrceDgM5SNxp6h8CEDrg/eVtdx6XlCkj1+AN9gQFHYpP0rYXybvUmvpQmNk8ErLNDyXuOHt/IIYCBOUSlMLBGC+6RwjtJQB/KvEQ5BEe/CULtlrt0zXWLKw2eAVbBCacKamiCB/YnHQ7hFglPM8HiQUgTYVYMbyuB3AAk/iktLCfwsaN2dki+Jg93lJggfdCA8QKwSKYuQHVf1gKZboXU6yXg9hshfMAhHHiXtG7sdmhiF5rQSbl9VXjiZrk4InZY252/9yqYsPOLIKrkUWm+rHzmukJVjNzJnsBgiLx7yGDlEVwoWaT/HFLoQz3epzXzL82Gfo5VRUsndmPWIRYEfZnpYUsuFb3deKV+LEzSwQgNPZGh1sKuc8ZZEnBdcCaSKabOatkf0u35XFUhewv6hRoHSezHTlarCTYbr+5KEA8+xE2SGyUSgnTKnENFoEsG+rLNQm5/qzs9Mdn8oEaqmePaTp0hhUFiCcar7RLPGC0MnVgAoS2aE2CMeKRxgGT/JUcl6XEY1Bwzx4MKgoQ6rAyM5LVCe/LUmLtH/0C+EtigMyhS89MW3qfxtmH1aOBDFnu0IscAPEss9io44FZQqwAIT7datEpMY4SbXzS2EhpgBBrdJyhj4RCezyXjzSRAyAExvMSWgQyAHyBSogVIBs2ixIdm2EbuF9c0dCvkuG4GFmOxGkM7CNRkCHS8RwAIUGl9azg4ft8YAYqYMhtFSBDtHTpPfhZHTX8dpVMo3CrlKjU0D09NsizkGUPQofZV1gY/vDCfIBlpIF7K0CGK4/zKYsJlRP4Hx5efejOB0l6srGGsBEhxwxCn61p3EqaUStAhr9V5Fy3uOOEf6GHd23jaIrDqUXYS4Y4z3IBBJMofktDBQZzD1/R0Prb91WADNca6bItociQfODZW0Ksz5FkTZbl4tYx5AIIAVFWV/ZbB5zOLA/Eqtg1b9IvkUTM/VB5XAYWnCFtAVprrvsLc9Cw5gIIJ7CcxFqEWYcDubFlzgDhweM2ThjAjSSRZgyjB4wpLA1YimL7L5VjBYZ+3DmGCoeLlpXD0Hq798HueK6xMMQj8FuFJBdA6ITVhs5LkINeaJ8C5ggQkqbCHoNH7JClJu4SL0yk2PvGG/l/3NeH9KdpA89a6+m7p38evrYspH45AeIJgcTfiV/JMWVOAMGDgF9c62az0Q9BXyxrXjmSwqxOnaUS7hCyjfOoRXCkDGdPzgkQbOIwmFikxEnsXADC8olZgKVUVCAsIL1CbsFT1sIKX4LAAb1Z3X7elitfSk6AeHx5SpA5zAEgkJq9QxLcsbmEpQ1LnJxCGourGyokcG7sXI4wqDBTWYSksd9lKdB3b06AYP1AwRYzIf3CrWPM1AlzAIh1fzb02Z4pCW6oXHKxJMKTh0oJrjDr86PvBPIRtx6WnAChM55MVTxgHvRYYlVwbjPvmGm2MX0SI/GqTMr7gHGWOzuwnxrSZfidrXtULHGkFcwSL58bIDivkY/CIiw9WGeOxeE7JUA8+zKL7rgXKlRP+rxt7eAWbmE4GTvs1qM/DBmnWZVYYolFG3eWBCWMVcgpQiDVGDIVQKBJeu0YA9pSJ35KT83QFvkVLcR6+EY9OEO7fVVA2mcNPcBCyMyWRXLPIHSK9Amcklsky6FOT4NTAYSN4gMtSgjcCxFaDh5lqJFIPTZUsm2GtzRIJCCzgUUgBSHYLdvB6hgAgekCvlOL4DcD64T1NH5IG1MApOTs0eggxyxCOnDW70PlaSP+CHBybs2PCE0uCWmzyRgAwVWCqdGiaAY0lslwCoBATMGBXklx8T51Ogj/8HUNnR4rbIHciqTgsAocyniWZ5MxAELnPEQJWB+YRTjkySlTAMRDc8qYWeJwSm7lG2v0RThqhGQbsjwLXwCHlRxa5hYsibc1VurmvtrVzlgA8S4xxnCfngIgrIWtOUjaXgUABGI+q8B2aV3ettsghhsqn6FCht/Th9488D4PCyZVE7hlpVDd26WxAELDHoJhiByYRVgL55LSACGykghLi2DYOKVTwEOGEfWNwuRuITk4RxIvdE7x+F3R/ihMNGMCxEtRn/vgsDRAPCQWbCzZYLYFaxIvrMUzIfqLTuYosnANldzWRxw5PXxkvyrpIUM7bblvTIDQDxgNzYTBiYkiV17u0gDhZce6Y5G+rLk46XGIOlRCLIJp/3eDoY2lIDlvOoxuMzhxMpNa/dVgmufEHcNQdhkbIPeW9BxHr3EvYJNGjHRUSgPE8yvYlzkXmn/o/ocKrj7EmnjlIkk3NBQmGSjRpDnEm8ks94rjMmMZGyA05okToVwuxozSACEIyuoV0DeDWM2u/BjdJ/C2Ej9hcceHdhTmkKh4l+MYQ4gTeXu0A33lSwDkvpJYG3uEUFQrKV23ndIA8YQfbzvk81gCo2tx65IuCsjmWXm8Lyg7OqtKCYAwEK9lgqUWMdsE8nilNEBYLkF+YJFtriIeV5XorEscPNagoYIpmkO9iHjzJOI3xuxhtRia+loKIF7bNoMhFTWzkFdKA4R+evKmkOSHfPKYuHHX8aS5I2W3ldygrVdrvzHlew81aRfLk9excIyAscu9Y6UAQsPPCNjMI4dAUwAEF4wxTph3/UgQrGYJdtpW1xsk3dTwS/SCQDJNXPQBs4XJsekavM7wO48uJQFyvbSf4NMj3iixKQCSK8m9RU8EZsGUEhG4pG5mqICErBglrII7C+DwstoUIz8vCRCUGFlq4afEfoRfOYtMARAO+YgFsTpsWsbVvTeUKCZVhj/TSYZOwNl1D8P9za1Y+TzAonwpqqFNX0sDhDYjSy1+4XCBtiREmQIgjNPjKuJ41zZFogeETbsYCyzJLj3Re7ineAndMCKQ45LlZBGZAiDRpRaHZ5aArKkAUnIWyTF78MIx62FeHirWtN5EIGLS9gpLSJaSxWQKgDA4Boofj1csm7SpAJJjnEP0k5NZxGqOtySoic6oY0Yv9up5KoDQIUyaEWbwoY5yUwKEcZIsKCc1T/thcpJs4bHaBzjOnfBrGipstDEt75N7SsLi5RX6hU/fh70VeMtNCRD6DNNghIFiSIajqQHCOK19GPo8T5bEviyXQB9kSX8NQQeGk13iIZ5u10dSH8CBy1JxmRogxB6g5BMCI9+3xLC+nLl5sZqhEUIaPXVu6sKpkB+WMPdsR+9W58jzE5NN3+Pzhs626yuZru9y45gaIHSIOGI2exHZFbgzF4AwPk7HWYtHBM8CqG2yEKN1OmL1idrlPcxJN+kRIjJGQJapP3MACB3OQXLAhhHXBeKq2zIngNAvuMNYGlppekiUikeBNU+f5YV4haTbGAr0GUu8/lXtpmG4YWlVKl341mHPBSB0Lrpppw6CZh7a4fqdG0DoJymNseSxwWUG3SWYXtmrMcuOQYvUbtsamoBu8bhuBNIIDBLeQ8CmHtz8MV2PPd69vwVzAgidJaYaNu+IwLGFrR1/KMQKEBz2eGm7M1GkT7vKXit5peJHRTQd3sBw5HK91UH9H+mnVVft/Rq/9k80RkD29ZUgsVdHBpKr7NwAwrgIwokE/TS6aXi2rA+d8i930M7keiZT1QN1qTU1dwMQUiCwrMohY7P9m/o4R4AwgNflSMAoiTX1JyRBpGCVaPCRtb0p74e6x5OQB4BgScuSiyOZjD3czqPpbq4AYcCkij42w8ghpLPk3Ws3WSIDVoYhhqrwsLA0DQIQz4/Ptg5HOb1CSugrPGeA0GcsN1CZTilFvUcLDzQSDp2zq0WCnzwdnjtAGJM1ys2jh31lcOvGNFsqncG+/kT//6iUx8UTtRhtu1u+uAOiZQBLAAjj8WSusuhhyL3EmQMSiAKWLLh+cJ5i8YgeY7z4kZEXhrOU2cpSAIICn5WRgynyQLCKwX8bcb6LtO8tC2s7JvQx090N7RuBWcwcbx5aYKr7lgQQdORhjR9Lt9jpiU0AuPwazlXIF46VimhOzlymFn5YMCcXC3qKDHhpAGGsHAKSe4PT6DkIp76cdOP6HWEUyT0WvGxxaAQYV85dubM+vCXOcpadpNgSAYKibpFIjq05JMZWMgx/DVA4bMRUXVIARXNZOHbH7iOzBcs7HC0XJUsFCEo+Os0kYyey9z5QgnuIr8BDFhLv13gr6inHngKXDAKcYHOEjcSSgDNzd3qrw4UecBCtuDhZMkAaZWPLZ8llSV88xYPCCsapM/SefHLB1MJBJq7rfHIRIHTVdHHAyXd8tGB552JPwaeVBX2KMXM6DziKRwLmGuwhAARd8OtJfvZ75VJMrSekAfZl/GhFsl2FOpCr8KEApNEHaZex8Vvy7OXSZa3nUg0ACsARyZU4G10eGkBQLGG8WEpKU3/O5qFO1BGy7BJByOfByCECpHk4xEMzm5x4ME9rngM5mOXUNvUeMkAYL5Q4WLk4mCpJAzrPVzlvrzAosJziypl0NW8vg7UdOkAa9cByyAFjBUrwhUnFiYuHTWb2riLR4a4FIBUo0Tfl0vJEezJjcLaxClkbQLpAwSxc9yi7X3Vi/EmUQxq9ObnSFAHoWgHSVi4MHLhdAxZO56tcqgEYG0lTADhyE9QtRscVIP//qPBdAihcFobzxTzsAR3ltL8BBakNVi8VINtfAYKKyDdOJiP8nA5ZSJB6QQpcYgn1rkMerHVsFSD7NYZDYAOWU/bfvog74NtqQMFnJIvwIgbs7WQFiE1zpEhmVoEBHS/a69uKT3b3xYmIjQxShLhCh1RlgAYqQAYoaccteNayX2GWITXYXCxinG4DAlztAQVkE1ijqhg1UAFiVNie26EoYmYhzdzx6ZPvXNfO25TYUL9zywWfLX+vkkEDFSAZlDiwimMSUHB54XvfdSVJH9txEVsBACyJTAd2sd7W1UAFSH0nqgZ2aKACpL4eVQMVIPUdqBrwaaDOID691VIr0UAFyEoedB2mTwMVID691VIr0UAFyEoedB2mTwMVID691VIr0UAFyEoedB2mTwMVID691VIr0UAFyEoedB2mTwMVID691VIr0UAFyEoedB2mTwMVID691VIr0UAFyEoedB2mTwMVID691VIr0UAFyEoedB2mTwMVID691VIr0cD/AfpXkG2phpxuAAAAAElFTkSuQmCC;direction=west;rotation=90;" vertex="1" parent="1">
          <mxGeometry x="220" y="515" width="30" height="30" as="geometry" />
        </mxCell>
        <mxCell id="Ew4Cx2_c2zEZE24tookL-85" value="" style="endArrow=classic;html=1;rounded=0;fontSize=18;dashed=1;strokeColor=#6666FF;entryX=0.261;entryY=0.4;entryDx=0;entryDy=0;entryPerimeter=0;exitX=0.5;exitY=0.667;exitDx=0;exitDy=0;exitPerimeter=0;" edge="1" parent="1" source="Ew4Cx2_c2zEZE24tookL-84" target="Ew4Cx2_c2zEZE24tookL-50">
          <mxGeometry width="50" height="50" relative="1" as="geometry">
            <mxPoint x="70" y="645" as="sourcePoint" />
            <mxPoint x="149.75999999999976" y="644.8" as="targetPoint" />
          </mxGeometry>
        </mxCell>
      </root>
    </mxGraphModel>
  </diagram>
</mxfile>
